<?xml version="1.0" encoding="utf-8"?>
<!-- Generator: Adobe Illustrator 22.0.0, SVG Export Plug-In . SVG Version: 6.00 Build 0)  -->
<svg version="1.1" id="Layer_1" xmlns="http://www.w3.org/2000/svg" xmlns:xlink="http://www.w3.org/1999/xlink" x="0px" y="0px"
	 viewBox="0 0 268.8 75.9" style="enable-background:new 0 0 268.8 75.9;" xml:space="preserve">
<style type="text/css">
	.st0{fill:#FFFFFF;}
	.st1{fill-rule:evenodd;clip-rule:evenodd;fill:#FFC71D;}
	.st2{fill:#FFC71D;}
</style>
<g>
	<path class="st0" d="M74.9,31.5H83l2.2-9.5h-8.1l2.3-9.6H68.8l0,0l-2.3,9.6H41.1c-6.2,0.1-9.5,2.2-11.3,4.1c-2,2-3,4.8-3,7.3
		c0,2.3,0.6,4.8,2,6.3c1.2,1.3,3.3,2.8,7.3,3.1h7.1c0,0,1,0,1.5,0.3c0.5,0.2,0.9,0.9,0.8,1.5c-0.1,0.8-0.4,2.9-2.9,3l-20.1,1.6
		L19,58.3l24.4-1.7c2.7-0.2,5.8-0.7,8.1-2.1c1.5-0.9,2.6-2.6,3.6-4.2c1-1.7,1.9-5,1.9-7.4c0-2.4-0.8-4.1-1.3-4.9
		c-0.7-1.1-1.9-2.4-4.4-3.2c-1.3-0.4-4.1-0.5-4.1-0.5h-6.6c-1.3,0-2.3-0.4-2.1-1.7c0.1-0.7,0.7-1.3,1.4-1.5c0.5-0.2,2.7-0.1,2.7-0.1
		l0,0h21.9l-3.4,14c-0.2,1.9-1,5.3,1.3,8c2.4,2.7,4.9,2.6,8,2.6h7.1l2.1-8.9h-3.6c0,0-1.7-0.1-2.2-0.4c-1.2-0.7-1.6-1.8-1.2-4
		L74.9,31.5z"/>
	<polygon class="st0" points="91.9,55.4 81.2,55.4 89,22.1 99.7,22.1 	"/>
	<polygon class="st0" points="100.1,19.8 89.4,19.8 91.1,12.5 101.8,12.5 	"/>
	<polygon class="st0" points="183.3,23.3 178.3,23.3 164.6,23.3 158.7,53.9 178.1,53.2 179.3,46.9 167.3,46.9 168.4,41.3 
		177.5,41.3 178.7,35 169.6,35 170.7,29.6 177.1,29.6 182.1,29.6 186.1,29.6 181.5,53.2 188.8,52.8 193.4,29.6 253.7,24.9 254,23.3 
			"/>
	<path class="st0" d="M136.1,56.6c-2.8,2.4-6.5,3.9-10.5,3.9c-3.6,0-6.9-1.2-9.6-3.2l-98.1,3.6l-0.3,0.6l169.8-1.2l1.2-5.6
		L136.1,56.6z"/>
	<g>
		<path class="st0" d="M110.4,38.1c1.5-6.3,6.3-25.6,6.3-25.6H106v0l-7.8,32.3c-0.2,1.9-1,5.3,1.3,8c2.4,2.7,4.9,2.6,8,2.6l6-0.3
			c-2.6-2.9-4.2-6.6-4.2-10.8C109.4,42.2,109.9,40.1,110.4,38.1z"/>
	</g>
	<g>
		<path class="st0" d="M153.3,32.5v-0.1c4.1-2.1,6.5-6.1,6.5-9.9c0-4.2-2.4-7.6-6.6-9c-2.1-0.7-4.6-0.9-7.3-0.9h-13.5l0,0h-8.7
			l-2,8.8h9l0,0h10.3l0,0h5.1c2.3,0,3.2,1.2,3.2,2.8c0,2.3-1.6,4.7-4.5,4.7h-5.3l0,0h-9.7c4.4,1.2,8.1,4.2,10.2,8.2h3.7v0h0.5
			c2.5,0,3.7,1.4,3.7,3.3c0,1.8-1,3.7-2.6,4.7c-0.8,0.5-1.8,0.7-2.9,0.7h-0.7c-0.3,3.4-1.6,6.4-3.6,8.9l3.4-0.1
			c2.3,0,4.6-0.2,6.7-0.9c5.8-1.8,10.3-6.3,10.3-13C158.4,37.2,157,33.9,153.3,32.5z"/>
	</g>
	<path class="st0" d="M137.5,38.7c-0.3-0.6-0.6-1.2-1-1.7c-0.5-0.7-1-1.4-1.6-2c-1.7-1.7-3.9-2.9-6.2-3.5c-1-0.2-2.1-0.4-3.1-0.4
		c-3.5,0-6.8,1.4-9.4,3.9c-2.5,2.5-3.9,5.8-3.9,9.4c0,0.7,0.1,1.4,0.2,2c0.4,2.8,1.7,5.3,3.7,7.3c0.5,0.5,0.9,0.9,1.5,1.3
		c1.3,1,2.8,1.7,4.3,2.1c1.2,0.3,2.4,0.5,3.6,0.5c1.6,0,3.1-0.3,4.5-0.8c1.3-0.5,2.6-1.2,3.7-2.1c0.4-0.3,0.8-0.6,1.1-1
		c2.2-2.2,3.5-5,3.8-8c0-0.4,0.1-0.8,0.1-1.2c0,0,0-0.1,0-0.1C138.8,42.4,138.4,40.5,137.5,38.7z"/>
	<g>
		<path class="st1" d="M125.7,45.9c2.8,0.8,4.8,1.1,4.8,1.1c-1.2-1.2-2.3-2.4-3.2-3.6c1.6-2.3,2.9-3.8,2.9-3.8
			c-1.7,0.4-3.3,0.8-4.8,1.3c-1.4-2-2.1-3.4-2.1-3.4c-0.4,1.5-0.6,3-0.7,4.4c-2.3,0.9-3.7,1.6-3.7,1.6c1.2,0.6,2.5,1,3.8,1.5
			c0.2,2.7,0.7,4.5,0.7,4.5C124.2,48.3,124.9,47.1,125.7,45.9L125.7,45.9z"/>
		<path class="st1" d="M138.3,45.2c-0.4,0.6-1,1-1.6,1.3c-0.1-1.9-0.4-3.6-0.4-3.6c-0.6,1.6-1.2,2.9-1.8,4.1c-2,0.3-4,0-4,0
			c1.1,1.3,1.9,2.1,2.6,2.6c-1,1.7-1.8,2.7-1.8,2.7c1.4-0.3,2.6-0.9,3.5-1.5c0.4,0.3,0.7,0.5,1,1c0,0,0.6-0.8,0.8-2.8
			C138.1,47.2,138.3,45.2,138.3,45.2L138.3,45.2z"/>
		<path class="st1" d="M137.7,40c-0.6-1.5-1.6-2.6-2.6-3.4c-0.9-1.8-1.9-2.7-1.9-2.7c0.1,0.4,0,0.9-0.1,1.4
			c-2.2-1.1-4.1-1.2-4.1-1.2c1.3,0.8,2.4,1.8,3.3,2.9c-0.9,1.4-2,2.6-2,2.6c1.5-0.3,2.8-0.5,3.8-0.5c1.5,2.1,2.3,3.8,2.3,3.8
			c0-1.4-0.1-2.6-0.3-3.7C137.3,39.5,137.7,40,137.7,40L137.7,40z"/>
		<path class="st1" d="M128.9,34.1c-1-0.5-2.1-0.9-3-1.1c1.2-1,2.3-1.3,2.3-1.3c-1.9-0.1-3.5,0.3-4.9,0.8c-2-0.2-3.4,0.2-3.4,0.2
			c0.3,0.2,0.6,0.6,0.8,1.1c-1.7,1.2-2.6,2.4-2.6,2.4c1-0.5,2.2-0.9,3.2-1.2c0.1,0.2,0.2,0.4,0.4,0.7c0.7,1.1,1.5,1.9,1.5,1.9
			c0.3-1.3,0.8-2.4,1.3-3.2C127.1,34,128.9,34.1,128.9,34.1L128.9,34.1z"/>
		<path class="st1" d="M115.8,38.3c0.7-0.6,1.4-1.3,2.4-2c0,0-0.9,0-1.8,0.2c0.6-1.5,1.3-2.3,1.3-2.3s-4,2.8-4.7,7.9
			c0,0,0.3-0.9,1.5-2.3c0.4,1,1,1.6,1,1.6C115.4,40.2,115.5,39.2,115.8,38.3L115.8,38.3z"/>
		<path class="st1" d="M118.9,43.6c-1.4,0-2.4,0.2-3.3,0.3c-0.2-1.5-0.3-2.5-0.3-2.5c-0.7,1-1.1,2-1.4,3c-1,0.4-1.2,0.7-1.2,0.7
			c0.1,0.5,0.4,1,0.8,1.5c-0.1,2.2,0.6,3.7,0.6,3.7c0.2-0.8,0.5-1.5,0.9-2.2c1.2,0.9,2.3,1.6,2.3,1.6c-0.5-1-0.9-2.1-1.2-3.1
			C117.5,44.7,118.9,43.6,118.9,43.6L118.9,43.6z"/>
		<path class="st1" d="M125.7,54.8c0,0-1.2-0.5-2.8-1.4c0.1-1,0.2-2.3,0.5-3.9c0,0-1.3,1.3-3,2.3c-1-0.7-2-1.5-3-2.4
			c0,0,0.5,1.5,1.4,3.2c-0.9,0.3-1.8,0.5-2.7,0.3c0,0,1,1.2,4.1,1.8c0.9,1,1.9,1.8,3.1,2.1c0,0-0.4-0.4-0.4-1.9
			C123.8,54.9,124.7,54.9,125.7,54.8L125.7,54.8z"/>
		<path class="st1" d="M131.3,54.7c0.3-1.2,0.1-2.3,0.1-2.3c-0.8,1.1-1.5,2-2.2,2.6c-1.9,0.1-3.4-0.1-3.4-0.1s0.8,0.8,1.8,1.3
			c-1.3,0.8-2.2,0.9-2.2,0.9c5.7,0.1,9.1-3.6,9.1-3.6C133.5,54.1,132.4,54.5,131.3,54.7L131.3,54.7z"/>
	</g>
	<path class="st2" d="M209.4,46.4L209.4,46.4L209.4,46.4c0.3-0.6,0.6-1.1,1.1-1.8c-1-0.9-2.2-1.5-3.6-1.8l0,0l11.3-12.1l-20.8,1.8
		l-1.2,5.6h8.3l-8.1,9.1c1.2-0.3,2.7-0.5,4.5-0.5c3.4,0,5.5,1.6,5.5,3.9c0,1.3-0.5,2.4-1.6,3.3c-1,0.9-2.3,1.3-3.9,1.3
		c-2.7,0-4.4-1.1-5.2-3.4l-5.3,2.9c0.7,1.8,1.9,3.3,3.8,4.4c1.9,1.1,4,1.6,6.3,1.6c3.5,0,6.4-1,8.6-3.2c0.1-0.1,0.3-0.2,0.4-0.4
		c-1-1.6-1.5-3.5-1.5-5.6C208.2,49.6,208.8,47.6,209.4,46.4z"/>
	<path class="st2" d="M252,33.6l1.3-6.4l-16.6,1.3L231.5,43c0.5,0.7,1,1.4,1.3,2.1c1.5-0.3,3.2-0.5,5.1-0.5c3.6,0,6.1,1.9,6.1,4.4
		c0,2.9-2.4,5.3-5.7,5.3c-2,0-3.7-0.8-4.8-2.1c-0.5,2.3-1.7,4.4-3.5,6.3c0.2,0.1,0.4,0.2,0.6,0.4c2.1,1.2,4.4,1.8,7.1,1.8
		c4,0,7.2-1.2,9.7-3.6c2.5-2.4,3.7-5.2,3.7-8.6c0-2.8-1-5.1-3-6.9c-2-1.8-4.5-2.7-7.6-2.7c-0.5,0-0.8,0-1,0.1l1.6-4.1L252,33.6z"/>
	<path class="st2" d="M230.8,44.9c-0.3-0.5-0.7-1-1.1-1.5c-1.6-1.7-3.6-2.5-6.1-2.6c-0.2,0-0.4,0-0.5,0l10.2-11.7l-8.2,1.1l-8.6,9.8
		c-1.1,1.2-1.9,2.1-2.3,2.6c-0.5,0.5-1,1.2-1.7,2.1c-0.3,0.4-0.6,0.8-0.8,1.2c-0.3,0.4-0.5,0.8-0.6,1.1c-0.5,1.2-1.1,2.9-1.1,4.7
		c0,1.6,0.3,3,1,4.2c0.5,0.9,1.1,1.7,1.9,2.5c1.9,1.8,4.3,2.6,7.3,2.6c3.4,0,6.3-1.2,8.6-3.4c0,0,0,0,0.1-0.1c1.9-1.9,3-4,3.3-6.4
		c0.1-0.5,0.1-1,0.1-1.5C232,46.5,230.8,44.9,230.8,44.9z M224.1,53.7c-1,1-2.2,1.5-3.6,1.5c-2.6,0-4.3-1.7-4.3-4.1
		c0-1.3,0.5-2.5,1.5-3.5c1-1,2.2-1.5,3.6-1.5c2.6,0,4.4,1.7,4.4,4.1C225.7,51.6,225.2,52.7,224.1,53.7z"/>
</g>
</svg>
