<svg xmlns="http://www.w3.org/2000/svg" width="17" height="17" viewBox="0 0 17 17">
  <defs>
    <linearGradient id="curling-02-a" x1="0%" y1="49.881%" y2="49.881%">
      <stop offset="0%" stop-color="#D9D9D9"/>
      <stop offset="7.895%" stop-color="#CFCFCF"/>
      <stop offset="31.82%" stop-color="#B8B8B8"/>
      <stop offset="54.37%" stop-color="#ABABAB"/>
      <stop offset="73.94%" stop-color="#A6A6A6"/>
      <stop offset="90.78%" stop-color="#ACACAC"/>
      <stop offset="100%" stop-color="#B3B3B3"/>
    </linearGradient>
    <linearGradient id="curling-02-b" x1="20.73%" x2="84.524%" y1="7.761%" y2="98.203%">
      <stop offset="0%" stop-color="#FB5450"/>
      <stop offset="100%" stop-color="#EE242B"/>
    </linearGradient>
    <linearGradient id="curling-02-c" x1="10.596%" x2="91.034%" y1="22.549%" y2="71.263%">
      <stop offset="0%" stop-color="#F14950"/>
      <stop offset="35.23%" stop-color="#EF2E35"/>
      <stop offset="55.15%" stop-color="#ED1C24"/>
      <stop offset="100%" stop-color="#C9151B"/>
    </linearGradient>
  </defs>
  <g fill="none" fill-rule="evenodd">
    <path fill="#77787B" fill-rule="nonzero" d="M8.38496238,12.4615277 C6.26827065,12.4615277 4.26661651,12.1164149 2.42601501,11.4722043 C1.96586463,11.3111517 1.52872178,11.1270916 1.09157892,10.9430314 C0.976541329,10.8970164 0.884511254,10.8510013 0.76947366,10.7819788 C0.723458623,10.7589713 0.654436066,10.7359637 0.608421029,10.7129562 C0.58541351,10.6899487 0.562405991,10.6899487 0.539398472,10.6669412 C0.639947049,7.67244843 2.09257122,5.94153173 4.89727099,5.47419111 C9.10432065,4.77318018 10.5973352,4.90702608 13.400735,6.04559038 C15.2696682,6.80463324 16.2742854,8.29906847 16.4145864,10.5288961 L16.483609,10.5288961 C16.437594,10.5519036 16.3685714,10.5749111 16.3225564,10.5979186 C16.1154887,10.7129562 15.908421,10.8049863 15.6783458,10.8970164 C15.241203,11.104084 14.8040601,11.2651367 14.3439097,11.4261893 C12.5263158,12.0934074 10.5016541,12.4615277 8.38496238,12.4615277 Z"/>
    <path fill="url(#curling-02-a)" fill-rule="nonzero" d="M8.49999997,14.9923547 C11.9281203,14.9923547 14.8270676,14.2791216 15.9314285,13.2897983 C16.3455639,12.5765652 16.5526316,11.7482946 16.5526316,10.8279938 C16.5526316,10.436866 16.5066165,10.0457382 16.3915789,9.67761788 C16.3915789,9.67761788 16.3915789,9.65461036 16.3915789,9.65461036 C16.3915789,9.7006254 16.3915789,9.72363292 16.3915789,9.76964796 C16.3915789,11.1961141 12.848421,12.3464901 8.49999997,12.3464901 C4.1285714,12.3464901 0.608421029,11.1961141 0.608421029,9.76964796 C0.608421029,9.72363292 0.608421029,9.7006254 0.608421029,9.65461036 C0.608421029,9.67761788 0.608421029,9.7006254 0.58541351,9.7006254 C0.493383435,10.0687457 0.447368397,10.436866 0.447368397,10.8279938 C0.447368397,11.7482946 0.654436066,12.5765652 1.06857141,13.2897983 C2.1729323,14.2791216 5.09488719,14.9923547 8.49999997,14.9923547 Z"/>
    <path fill="#9B9B9B" fill-rule="nonzero" d="M8.52300749,14.9923547 C5.11789471,14.9923547 2.1729323,14.3021291 1.06857141,13.3128058 C2.14992478,15.1764148 4.65774433,16.2577682 8.49999997,16.2577682 C12.3882706,16.2577682 14.8500752,15.1764148 15.908421,13.3128058 C14.8270676,14.2791216 11.9511278,14.9923547 8.52300749,14.9923547 Z"/>
    <path fill="#F36F74" fill-rule="nonzero" d="M14.3439101,7.07776892 C14.3439101,7.95205463 11.8821055,8.87235539 8.50000028,8.91837042 C5.11789502,8.94137794 2.63308299,7.88303208 2.67909803,7.14679148 C2.67909803,6.84769373 2.7711281,6.61761854 3.13924841,6.36453584 C3.23127848,6.29551328 3.5073687,6.11145313 3.59939878,6.01942306 C4.65774464,5.4672426 6.36030103,5.26017493 8.5230078,5.26017493 C10.8467672,5.26017493 12.5723311,5.4672426 13.5616544,6.11145313 C13.6536845,6.18047569 14.0218048,6.43355839 14.0908273,6.50258095 C14.297895,6.6866411 14.3439101,6.82468621 14.3439101,7.07776892 Z"/>
    <path fill="url(#curling-02-b)" fill-rule="nonzero" d="M13.7457146,6.52558847 C13.7457146,7.30784411 11.5369928,8.1591223 8.50000028,8.20513734 C5.4630078,8.22814486 3.23127848,7.26182907 3.254286,6.59461102 C3.254286,6.3185208 3.32330856,6.18047569 3.66842133,5.9504005 C4.54270705,5.37521252 6.38330855,4.96107719 8.50000028,4.96107719 C10.5936845,4.96107719 12.388271,5.35220501 13.2855642,5.90438546 C13.6536845,6.15746817 13.7457146,6.24949824 13.7457146,6.52558847 Z"/>
    <path fill="#DE1C24" fill-rule="nonzero" d="M11.5139852,7.62994906 C11.5139852,7.62994906 8.45398524,8.13611448 7.32661682,8.06709192 C5.92315818,7.99806936 4.15157923,7.21581372 4.08255667,6.75566335 C4.10556419,6.4565656 5.39398524,6.9397235 6.42932359,6.73265583 C7.46466194,6.52558816 7.92481231,6.9397235 7.80977472,7.14679117 C7.64872209,7.44588891 7.76375968,7.62994906 8.38496269,7.56092651 C9.16721833,7.39987387 10.9848123,7.21581372 11.4219552,7.23882124 C12.2042108,7.19280621 12.1812033,7.53791899 11.5139852,7.62994906 Z"/>
    <path fill="url(#curling-02-c)" fill-rule="nonzero" d="M11.1458648,2.77536259 C11.1458648,2.77536259 7.5796994,2.56829492 6.31428587,3.18949793 C5.50902271,3.58062575 5.04887233,5.03009944 4.81879715,5.55927237 C4.65774452,6.01942275 4.40466181,5.99641523 4.22060166,6.0884453 C4.05954903,6.15746786 3.96751895,6.22649042 3.94451144,6.34152801 C3.87548888,6.64062575 4.31263174,7.21581372 5.53203023,7.39987387 C6.75142872,7.58393402 7.694737,7.35385884 7.76375955,7.00874606 C7.78676707,6.9397235 7.76375955,6.89370846 7.71774451,6.8246859 C7.62571444,6.64062575 7.2115791,6.47957312 7.07353399,5.95040019 C6.8434588,5.14513703 6.93548888,4.31686636 7.64872196,4.29385884 C8.56902271,4.45491147 10.6627069,4.2478438 11.1458648,4.01776861 C11.997143,3.78769342 11.9281205,2.77536259 11.1458648,2.77536259 Z"/>
    <path fill="#F36F74" fill-rule="nonzero" d="M11.1458648 2.77536259C11.1458648 2.77536259 7.5796994 2.56829492 6.31428587 3.18949793 5.50902271 3.60363327 11.2609024 3.30453552 11.1458648 2.77536259zM5.48601519 4.08679117C5.14090241 4.63897162 4.91082722 5.32919718 4.77278211 5.67430996 4.65774452 5.92739267 4.56571444 5.97340771 4.42766933 6.01942275 4.28962422 6.06543778 4.22060166 6.06543778 4.17458662 6.24949793 4.12857159 6.4565656 4.56571444 6.98573854 5.39398512 7.10077613 6.22225579 7.21581372 6.86646632 7.07776861 6.91248136 6.84769342 6.91248136 6.80167839 6.91248136 6.75566335 6.88947384 6.73265583 6.82045128 6.61761824 6.54436106 6.50258064 6.45233098 6.13446034 6.31428587 5.55927237 6.36030091 3.64964831 5.48601519 4.08679117z"/>
  </g>
</svg>
