<?xml version="1.0" encoding="UTF-8"?>
<svg width="17px" height="11px" viewBox="0 0 17 11" version="1.1" xmlns="http://www.w3.org/2000/svg" xmlns:xlink="http://www.w3.org/1999/xlink">
    <!-- Generator: Sketch 48.2 (47327) - http://www.bohemiancoding.com/sketch -->
    <title>sports icons/cycling</title>
    <desc>Created with Sketch.</desc>
    <defs></defs>
    <g id="Artboard-Copy" stroke="none" stroke-width="1" fill="none" fill-rule="evenodd" transform="translate(0.000000, -3.000000)">
        <g id="sports-icons/cycling" fill-rule="nonzero">
            <path d="M7.072,6.18860974 C6.91333333,6.18860974 6.77733333,6.05260974 6.77733333,5.89394308 L6.68666667,4.30727641 C6.68666667,4.14860974 6.8,3.98994308 6.98133333,3.98994308 C7.14,3.96727641 7.29866667,4.10327641 7.29866667,4.28460974 L7.38933333,5.87127641 C7.38933333,6.02994308 7.276,6.18860974 7.072,6.18860974 C7.09466667,6.18860974 7.09466667,6.18860974 7.072,6.18860974 Z" id="Shape" fill="#FFFFFF"></path>
            <path d="M7.412,10.8126097 C7.36666667,10.8126097 7.344,10.8126097 7.29866667,10.7899431 C7.208,10.7446097 7.14,10.6539431 7.14,10.5632764 L6.75466667,5.14594308 C6.75466667,5.07794308 6.77733333,4.98727641 6.82266667,4.94194308 C6.868,4.89660974 6.95866667,4.85127641 7.02666667,4.85127641 L12.9426667,4.85127641 C13.0786667,4.85127641 13.2146667,4.96460974 13.2146667,5.10060974 L13.3053333,6.25660974 C13.3053333,6.34727641 13.2826667,6.43794308 13.192,6.50594308 L7.57066667,10.7446097 C7.52533333,10.7899431 7.48,10.8126097 7.412,10.8126097 Z M7.32133333,5.37260974 L7.63866667,9.99660974 L12.716,6.12060974 L12.6706667,5.37260974 L7.32133333,5.37260974 Z" id="Shape" fill="#F24141"></path>
            <path d="M3.30933333,13.2152764 C1.81333333,13.2152764 0.589333333,11.9912764 0.589333333,10.4726097 C0.589333333,8.95394308 1.81333333,7.72994308 3.332,7.72994308 C4.85066667,7.72994308 6.07466667,8.95394308 6.07466667,10.4726097 C6.052,11.9912764 4.828,13.2152764 3.30933333,13.2152764 Z M3.30933333,8.36460974 C2.13066667,8.36460974 1.17866667,9.31660974 1.17866667,10.4952764 C1.17866667,11.6739431 2.13066667,12.6259431 3.30933333,12.6259431 C4.488,12.6259431 5.44,11.6739431 5.44,10.4952764 C5.44,9.31660974 4.488,8.36460974 3.30933333,8.36460974 Z" id="Shape" fill="#E2D8D9"></path>
            <path d="M3.30933333,13.5552764 C1.58666667,13.5552764 0.204,12.1499431 0.204,10.4272764 C0.204,8.70460974 1.60933333,7.29927641 3.332,7.29927641 C5.05466667,7.29927641 6.46,8.70460974 6.46,10.4272764 C6.46,12.1499431 5.032,13.5552764 3.30933333,13.5552764 Z M3.30933333,7.93394308 C1.92666667,7.93394308 0.793333333,9.06727641 0.793333333,10.4499431 C0.793333333,11.8326097 1.92666667,12.9659431 3.30933333,12.9659431 C4.692,12.9659431 5.82533333,11.8326097 5.82533333,10.4499431 C5.82533333,9.04460974 4.71466667,7.93394308 3.30933333,7.93394308 Z" id="Shape" fill="#FFFFFF"></path>
            <circle id="Oval" fill="#E2D8D9" cx="3.30933333" cy="10.2459431" r="1"></circle>
            <path d="M13.6906667,13.1926097 C12.172,13.1926097 10.9253333,11.9459431 10.9253333,10.4272764 C10.9253333,8.90860974 12.172,7.66194308 13.6906667,7.66194308 C15.2093333,7.66194308 16.456,8.90860974 16.456,10.4272764 C16.456,11.9686097 15.2093333,13.1926097 13.6906667,13.1926097 Z M13.6906667,8.29660974 C12.512,8.29660974 11.5373333,9.24860974 11.5373333,10.4499431 C11.5373333,11.6286097 12.4893333,12.6032764 13.6906667,12.6032764 C14.8693333,12.6032764 15.844,11.6512764 15.844,10.4499431 C15.844,9.24860974 14.8693333,8.29660974 13.6906667,8.29660974 Z" id="Shape" fill="#E2D8D9"></path>
            <path d="M13.5773333,10.8352764 C13.2373333,10.8352764 12.9653333,10.5632764 12.9653333,10.2232764 C12.9653333,9.88327641 13.2373333,9.61127641 13.5773333,9.61127641 C13.9173333,9.61127641 14.1893333,9.88327641 14.1893333,10.2232764 C14.1893333,10.5632764 13.9173333,10.8352764 13.5773333,10.8352764 Z M13.5773333,9.88327641 C13.3733333,9.88327641 13.2146667,10.0419431 13.2146667,10.2459431 C13.2146667,10.4499431 13.3733333,10.6086097 13.5773333,10.6086097 C13.7813333,10.6086097 13.94,10.4499431 13.94,10.2459431 C13.94,10.0419431 13.7813333,9.88327641 13.5773333,9.88327641 Z" id="Shape" fill="#2EEDFF"></path>
            <path d="M3.30933333,10.8352764 C2.96933333,10.8352764 2.69733333,10.5632764 2.69733333,10.2232764 C2.69733333,9.88327641 2.96933333,9.61127641 3.30933333,9.61127641 C3.64933333,9.61127641 3.92133333,9.88327641 3.92133333,10.2232764 C3.92133333,10.5632764 3.64933333,10.8352764 3.30933333,10.8352764 Z M3.30933333,9.88327641 C3.10533333,9.88327641 2.94666667,10.0419431 2.94666667,10.2459431 C2.94666667,10.4499431 3.10533333,10.6086097 3.30933333,10.6086097 C3.51333333,10.6086097 3.672,10.4499431 3.672,10.2459431 C3.672,10.0419431 3.51333333,9.88327641 3.30933333,9.88327641 Z" id="Shape" fill="#2EEDFF"></path>
            <path d="M7.208,11.6512764 C7.18533333,11.6512764 7.18533333,11.6512764 7.16266667,11.6512764 L3.10533333,10.5632764 C3.06,10.5406097 3.03733333,10.5179431 3.01466667,10.4726097 C2.992,10.4272764 2.992,10.3819431 3.01466667,10.3366097 L3.21866667,9.83794308 C3.24133333,9.79260974 3.28666667,9.74727641 3.35466667,9.74727641 L7.36666667,9.47527641 C7.45733333,9.47527641 7.52533333,9.54327641 7.52533333,9.61127641 C7.52533333,9.70194308 7.45733333,9.76994308 7.38933333,9.76994308 L3.468,10.0646097 L3.35466667,10.2912764 L7.25333333,11.3339431 C7.344,11.3566097 7.38933333,11.4472764 7.36666667,11.5152764 C7.344,11.6059431 7.276,11.6512764 7.208,11.6512764 Z" id="Shape" fill="#E2D8D9"></path>
            <path d="M13.6906667,13.5326097 C11.968,13.5326097 10.5626667,12.1272764 10.5626667,10.4046097 C10.5626667,8.68194308 11.968,7.27660974 13.6906667,7.27660974 C15.4133333,7.27660974 16.8186667,8.68194308 16.8186667,10.4046097 C16.8186667,12.1272764 15.4133333,13.5326097 13.6906667,13.5326097 Z M13.6906667,7.88860974 C12.308,7.88860974 11.1746667,9.02194308 11.1746667,10.4046097 C11.1746667,11.7872764 12.308,12.9206097 13.6906667,12.9206097 C15.0733333,12.9206097 16.2066667,11.7872764 16.2066667,10.4046097 C16.2066667,9.02194308 15.0733333,7.88860974 13.6906667,7.88860974 Z" id="Shape" fill="#FFFFFF"></path>
            <path d="M7.36666667,10.8579431 C7.36666667,10.8579431 7.344,10.8579431 7.36666667,10.8579431 L3.196,10.5632764 C3.10533333,10.5632764 3.01466667,10.4952764 2.96933333,10.4046097 C2.924,10.3139431 2.94666667,10.2006097 2.992,10.1326097 L6.77733333,4.98727641 C6.868,4.87394308 7.04933333,4.82860974 7.16266667,4.91927641 C7.276,5.00994308 7.32133333,5.19127641 7.23066667,5.30460974 L3.71733333,10.0419431 L7.38933333,10.2912764 C7.548,10.2912764 7.66133333,10.4272764 7.63866667,10.5859431 C7.63866667,10.7446097 7.50266667,10.8579431 7.36666667,10.8579431 Z" id="Shape" fill="#F24141"></path>
            <path d="M13.5773333,10.4726097 C13.464,10.4726097 13.3506667,10.3819431 13.328,10.2686097 C12.8973333,7.57127641 12.6253333,4.44327641 12.6253333,4.39794308 C12.6253333,4.26194308 12.716,4.14860974 12.852,4.12594308 C12.988,4.12594308 13.1013333,4.21660974 13.124,4.35260974 C13.124,4.37527641 13.3733333,7.50327641 13.804,10.1779431 C13.8266667,10.3139431 13.736,10.4272764 13.6,10.4499431 C13.6226667,10.4726097 13.6,10.4726097 13.5773333,10.4726097 Z" id="Shape" fill="#F24141"></path>
            <circle id="Oval" fill="#E2D8D9" cx="7.36666667" cy="10.5632764" r="1"></circle>
            <path d="M7.36666667,11.6512764 C6.77733333,11.6512764 6.27866667,11.1752764 6.27866667,10.5632764 C6.27866667,9.97394308 6.75466667,9.47527641 7.36666667,9.47527641 C7.956,9.47527641 8.45466667,9.95127641 8.45466667,10.5632764 C8.45466667,11.1752764 7.956,11.6512764 7.36666667,11.6512764 Z M7.36666667,9.79260974 C6.936,9.79260974 6.596,10.1326097 6.596,10.5632764 C6.596,10.9939431 6.936,11.3339431 7.36666667,11.3339431 C7.79733333,11.3339431 8.13733333,10.9939431 8.13733333,10.5632764 C8.13733333,10.1552764 7.79733333,9.79260974 7.36666667,9.79260974 Z" id="Shape" fill="#E2D8D9"></path>
            <path d="M12.6933333,5.93927641 C12.648,5.93927641 12.6253333,5.93927641 12.58,5.93927641 C12.4213333,5.93927641 12.2853333,5.80327641 12.2853333,5.62194308 C12.2853333,5.46327641 12.4213333,5.32727641 12.6026667,5.32727641 C13.4186667,5.34994308 13.7813333,5.12327641 13.8266667,4.91927641 C13.872,4.78327641 13.7813333,4.64727641 13.736,4.62460974 C13.5773333,4.55660974 13.532,4.35260974 13.6,4.21660974 C13.668,4.05794308 13.872,4.01260974 14.008,4.08060974 C14.3026667,4.21660974 14.5293333,4.64727641 14.416,5.07794308 C14.348,5.39527641 14.008,5.93927641 12.6933333,5.93927641 Z" id="Shape" fill="#FFFFFF"></path>
            <path d="M13.7813333,4.60194308 L12.8973333,4.60194308 C12.7386667,4.60194308 12.58,4.46594308 12.58,4.28460974 C12.58,4.12594308 12.716,3.96727641 12.8973333,3.96727641 L13.7813333,3.96727641 C13.94,3.96727641 14.0986667,4.10327641 14.0986667,4.28460974 C14.076,4.46594308 13.94,4.60194308 13.7813333,4.60194308 Z" id="Shape" fill="#FFFFFF"></path>
            <path d="M8.11466667,4.26194308 C8.11466667,4.32994308 8.04666667,4.39794308 7.97866667,4.39794308 L6.14266667,4.39794308 C6.07466667,4.39794308 6.00666667,4.32994308 6.00666667,4.26194308 L5.916,3.85394308 C5.916,3.78594308 5.984,3.71794308 6.052,3.71794308 L7.97866667,3.92194308 C8.04666667,3.92194308 8.11466667,3.98994308 8.11466667,4.05794308 L8.11466667,4.26194308 Z" id="Shape" fill="#6EBACE"></path>
        </g>
    </g>
</svg>