<?xml version="1.0" encoding="UTF-8"?>
<svg width="15px" height="17px" viewBox="0 0 15 17" version="1.1" xmlns="http://www.w3.org/2000/svg" xmlns:xlink="http://www.w3.org/1999/xlink">
    <!-- Generator: Sketch 48.2 (47327) - http://www.bohemiancoding.com/sketch -->
    <title>sports icons/specials</title>
    <desc>Created with Sketch.</desc>
    <defs>
        <linearGradient x1="-0.373921191%" y1="49.9135428%" x2="99.8766084%" y2="49.9135428%" id="linearGradient-1">
            <stop stop-color="#A02504" offset="20.97%"></stop>
            <stop stop-color="#AF2A03" offset="26.44%"></stop>
            <stop stop-color="#CC3300" offset="34.41%"></stop>
            <stop stop-color="#D94112" offset="39.68%"></stop>
            <stop stop-color="#E85026" offset="47.5%"></stop>
            <stop stop-color="#ED562E" offset="52.69%"></stop>
            <stop stop-color="#E54E23" offset="59.25%"></stop>
            <stop stop-color="#D03705" offset="70.82%"></stop>
            <stop stop-color="#CC3300" offset="72.58%"></stop>
            <stop stop-color="#A62703" offset="84.95%"></stop>
        </linearGradient>
        <linearGradient x1="-0.0852332027%" y1="50.0274008%" x2="99.906713%" y2="50.0274008%" id="linearGradient-2">
            <stop stop-color="#ED562E" offset="27.96%"></stop>
            <stop stop-color="#E34B20" offset="55.33%"></stop>
            <stop stop-color="#CC3300" offset="100%"></stop>
        </linearGradient>
        <linearGradient x1="0.142591454%" y1="49.9659569%" x2="100.066084%" y2="49.9659569%" id="linearGradient-3">
            <stop stop-color="#CC3300" offset="0%"></stop>
            <stop stop-color="#E34B20" offset="44.67%"></stop>
            <stop stop-color="#ED562E" offset="72.04%"></stop>
        </linearGradient>
    </defs>
    <g id="Artboard-Copy" stroke="none" stroke-width="1" fill="none" fill-rule="evenodd" transform="translate(-1.000000, 0.000000)">
        <g id="sports-icons/specials" fill-rule="nonzero">
            <path d="M12.8864211,7.97049477 C13.5370737,8.45848425 14.1644888,9.06266169 14.5595279,9.78302711 C14.9080918,10.4336797 15.1404677,11.1308076 15.1172301,11.8976482 C15.0939925,12.6644888 14.8151414,13.338379 14.3968647,13.9425565 C13.9088752,14.6396843 13.1652722,15.1276738 12.4449068,15.5227129 C11.7245414,15.8945144 10.9344632,16.1268903 10.1676226,16.2663159 C9.30783161,16.4057414 8.40156544,16.428979 7.54177446,16.3360286 C6.68198348,16.2430783 5.8221925,16.0571775 5.00887671,15.7550888 C4.2652737,15.4530001 3.56814587,15.0811986 2.96396843,14.6164467 C2.59216692,14.314358 2.2668406,13.965794 1.96475188,13.5939925 C1.84856391,13.4080918 1.77885113,13.3151414 1.63942556,13.1292407 C2.2900782,12.0370737 2.94073083,10.9216692 3.56814587,9.80626471 C3.8702346,10.1548286 4.17232332,10.5033925 4.45117445,10.8519564 C4.59060001,11.0146196 4.70678798,11.1308076 4.79973836,11.2237579 C4.89268874,11.2934707 5.0553519,11.4328963 5.28772784,11.618797 C5.35744062,11.6652722 5.38067821,11.6885098 5.45039099,11.734985 C5.79895491,12.0138361 6.17075641,12.1997369 6.56579551,12.3391625 C7.03054739,12.5018256 7.51853687,12.6180136 8.00652634,12.6644888 C8.49451582,12.710964 9.02898048,12.710964 9.51696996,12.6180136 C9.93524665,12.5483008 10.3767609,12.4321128 10.7718,12.2229745 C11.0506512,12.0835489 11.1900767,11.8744106 11.2133143,11.618797 C11.2365519,11.3631835 11.120364,11.1308076 10.887988,10.9449068 C10.5394241,10.6892933 10.144385,10.5033925 9.7493459,10.363967 C9.30783161,10.2013038 8.81984214,10.131591 8.33185266,10.0618782 C7.51853687,9.96892786 6.72845867,9.80626471 5.98485566,9.52741358 C5.31096543,9.27180004 4.6603128,8.92323613 4.07937294,8.43524665 C3.4751955,7.94725718 2.96396843,7.34307973 2.6618797,6.59947672 C2.38302858,5.92558649 2.31331579,5.18198348 2.42950376,4.48485566 C2.56892933,3.76449024 2.82454286,3.09060001 3.28929474,2.48642257 C3.75404663,1.85900753 4.38146167,1.37101805 5.07858949,0.999216546 C5.70600453,0.673890229 6.37989476,0.441514288 7.07702258,0.325326317 C7.7741504,0.162663159 8.54099101,0.162663159 9.26135643,0.232375941 C10.0049594,0.302088723 10.7485624,0.487989476 11.4689279,0.766840605 C12.1195805,0.999216546 12.7469955,1.39425565 13.3046978,1.83576993 C13.4905985,1.99843309 13.6764993,2.13785866 13.8159249,2.30052181 C13.9553504,2.46318497 14.4665775,3.04412483 14.6060031,3.23002558 C14.1412512,4.39190528 13.6764993,5.55378499 13.2117474,6.6924271 C12.9561339,6.22767522 12.8399459,6.15796243 12.5378572,5.78616093 C12.4216692,5.64673536 12.0266301,5.34464664 11.9569173,5.27493386 C11.8872046,5.20522108 11.7013038,5.08903311 11.5618782,4.94960754 C11.5386406,4.92636995 11.4921655,4.87989476 11.4456903,4.85665716 C11.3992151,4.83341957 11.3295023,4.78694438 11.2830271,4.76370679 C10.9809384,4.55456844 10.6091369,4.29895491 10.2373354,4.18276694 C9.79582109,4.02010378 9.3543068,3.9271534 8.91279251,3.88067821 C8.47127823,3.83420302 8.00652634,3.85744062 7.56501206,3.9271534 C7.16997296,3.97362859 6.77493386,4.11305415 6.40313235,4.29895491 C6.14751882,4.43838047 6.00809325,4.62428122 5.96161806,4.87989476 C5.93838047,5.13550829 6.03133085,5.34464664 6.24046919,5.53054739 C6.54255792,5.78616093 6.91435942,5.99529927 7.28616093,6.11148725 C7.72767522,6.25091281 8.1691895,6.34386319 8.63394139,6.41357597 C9.42401958,6.50652634 10.1908602,6.6691895 10.9112256,6.94804063 C11.6083534,7.15717898 12.2822437,7.52898048 12.8864211,7.97049477 Z" id="Shape" fill="url(#linearGradient-1)"></path>
            <path d="M5.91514288,9.48093839 C5.91514288,9.48093839 0.47754586,7.64516846 2.98720602,2.7652737 C5.12506468,-1.44073083 11.7245414,0.255613535 13.3046978,1.81253234 C13.3046978,1.81253234 14.1180136,2.62584813 14.6060031,3.20678798 L13.2117474,6.6691895 C13.2117474,6.6691895 12.0266301,4.81018198 9.91200906,4.04334137 C9.42401958,3.85744062 8.44804063,3.78772784 7.82062559,3.83420302 C5.58981656,3.99686618 3.4519579,7.55221808 5.91514288,9.48093839 Z" id="Shape" fill="url(#linearGradient-2)"></path>
            <path d="M10.8415128,12.1300241 C15.4890316,9.15561207 10.8415128,6.90156544 10.8415128,6.90156544 C10.8415128,6.90156544 14.7686662,8.13315793 15.0939925,11.5490843 C15.3960813,14.7093971 11.8407294,15.7550888 11.8407294,15.7550888 C11.8407294,15.7550888 8.28537747,17.2655324 4.6603128,15.6156632 C4.6603128,15.6156632 2.52245414,14.7558722 1.56971278,13.1060031 L3.49843309,9.75978952 C3.49843309,9.75978952 5.14830227,11.8744106 6.33341957,12.2229745 C7.54177446,12.5483008 8.63394139,12.8039143 9.56344515,12.5483008 C10.4697113,12.2926873 10.8415128,12.1300241 10.8415128,12.1300241 Z" id="Shape" fill="url(#linearGradient-3)"></path>
        </g>
    </g>
</svg>