<svg xmlns="http://www.w3.org/2000/svg" width="17" height="17" viewBox="0 0 17 17">
  <defs>
    <radialGradient id="futsal-02-a" cx="42.777%" cy="39.727%" r="75.961%" fx="42.777%" fy="39.727%">
      <stop offset="0%" stop-color="#FFF"/>
      <stop offset="43.27%" stop-color="#D6D6E0"/>
      <stop offset="49.78%" stop-color="#C8C8D1"/>
      <stop offset="62.17%" stop-color="#A3A3AB"/>
      <stop offset="64.94%" stop-color="#9A9AA2"/>
      <stop offset="89.49%" stop-color="#D1D1D1"/>
    </radialGradient>
    <radialGradient id="futsal-02-b" cx="45.411%" cy="40.954%" r="82.608%" fx="45.411%" fy="40.954%" gradientTransform="matrix(1 0 0 .97621 0 .01)">
      <stop offset="0%" stop-color="#E6E6E6"/>
      <stop offset="43.27%" stop-color="#BDBDC7"/>
      <stop offset="49.78%" stop-color="#AFAFB8"/>
      <stop offset="62.17%" stop-color="#8A8A92"/>
      <stop offset="64.94%" stop-color="#818189"/>
      <stop offset="89.49%" stop-color="#B8B8B8"/>
    </radialGradient>
  </defs>
  <g fill="none">
    <circle cx="8.5" cy="8.524" r="8.38" fill="url(#futsal-02-a)"/>
    <path fill="url(#futsal-02-b)" d="M9.62535211,6.46478873 C11.7802817,5.77042254 14.3183099,5.6028169 14.3183099,5.6028169 C14.3183099,5.6028169 15.8267606,5.14788732 13.9112676,5.31549296 C11.9957746,5.48309859 9.48169014,6.15352113 9.48169014,6.15352113 C9.48169014,6.15352113 7.47042254,7.15915493 9.62535211,6.46478873 Z M3.63943662,6.2971831 C3.63943662,6.2971831 2.46619718,5.86619718 1.02957746,5.96197183 C0.790140845,6.05774648 1.0056338,6.20140845 1.0056338,6.20140845 C1.0056338,6.20140845 3.32816901,6.2971831 3.66338028,6.75211268 C3.97464789,7.20704225 3.63943662,6.2971831 3.63943662,6.2971831 Z M6.75211268,4.0943662 C6.72816901,3.80704225 6.82394366,1.77183099 7.32676056,1.02957746 C7.82957746,0.263380282 7.06338028,0.933802817 7.06338028,0.933802817 C7.06338028,0.933802817 6.36901408,2.2028169 6.48873239,4.14225352 C6.8,4.35774648 6.77605634,4.38169014 6.75211268,4.0943662 Z M4.50140845,9.93661972 C4.50140845,9.93661972 3.61549296,11.6605634 3.63943662,13.5042254 C3.78309859,14.1507042 3.92676056,13.5760563 3.92676056,13.5760563 C3.92676056,13.5760563 3.97464789,11.6366197 4.81267606,10.128169 C5.6028169,8.73943662 4.50140845,9.93661972 4.50140845,9.93661972 Z M8.76338028,9.86478873 C7.94929577,8.21267606 8.38028169,9.96056338 8.38028169,9.96056338 C8.38028169,9.96056338 9.74507042,12.2830986 11.7084507,13.2408451 C12.0915493,13.1929577 11.9478873,13.0492958 11.9478873,13.0492958 C11.9478873,13.0492958 9.60140845,11.5408451 8.76338028,9.86478873 Z M15.2521127,7.94929577 C15.4197183,8.54788732 14.8929577,11.0859155 14.1028169,12.0676056 C14.3183099,12.1873239 14.3422535,12.2112676 14.3422535,12.2112676 C14.3422535,12.2112676 15.5394366,10.6549296 15.5394366,8.18873239 C15.4915493,7.3028169 15.2521127,7.90140845 15.2521127,7.94929577 Z M10.5112676,15.6591549 C10.5112676,15.6591549 7.9971831,16.0422535 6.15352113,15.443662 C5.93802817,15.5633803 6.00985915,15.7070423 6.00985915,15.7070423 C6.00985915,15.7070423 8.35633803,16.4492958 10.8225352,15.8267606 C11.6366197,15.443662 10.5112676,15.6591549 10.5112676,15.6591549 Z M0.454929577,7.70985915 C0.454929577,7.70985915 0.407042254,7.27887324 0.287323944,7.92535211 C0.167605634,11.3971831 1.91549296,13.0014085 1.91549296,13.0014085 C1.91549296,13.0014085 2.3943662,13.3126761 2.22676056,12.9535211 C0.35915493,11.3492958 0.454929577,7.70985915 0.454929577,7.70985915 Z M13.4323944,3.4 C13.4323944,3.4 14.2464789,4.07042254 13.6478873,3.30422535 C12.3788732,1.24507042 10.5591549,0.550704225 10.343662,0.502816901 C10.128169,0.454929577 9.52957746,0.383098592 9.76901408,0.550704225 C12.043662,1.05352113 13.4323944,3.4 13.4323944,3.4 Z"/>
    <path fill="#79272D" d="M9.98450704,5.89014085 C9.17042254,5.17183099 7.13521127,4.11830986 6.84788732,3.99859155 C6.63239437,3.9028169 6.63239437,3.87887324 6.39295775,3.99859155 C5.21971831,4.50140845 3.5915493,5.86619718 3.37605634,6.1056338 C3.16056338,6.34507042 3.16056338,6.27323944 3.23239437,6.58450704 C3.44788732,7.78169014 4.19014085,9.62535211 4.35774648,9.93661972 C4.52535211,10.2239437 4.52535211,10.271831 4.74084507,10.2957746 C5.19577465,10.343662 8.06901408,10.3915493 8.47605634,10.343662 C8.88309859,10.2957746 8.81126761,10.2478873 8.90704225,10.0084507 C9.05070423,9.55352113 10.0323944,6.58450704 10.1042254,6.41690141 C10.1760563,6.20140845 10.2,6.08169014 9.98450704,5.89014085 Z M6.36901408,15.515493 C5.21971831,14.8690141 4.04647887,13.4084507 3.95070423,13.2887324 C3.87887324,13.1450704 3.80704225,13.0971831 3.51971831,13.0732394 C3.23239437,13.0492958 2.15492958,12.8098592 2.03521127,12.7859155 C1.91549296,12.7380282 1.81971831,12.5704225 1.77183099,12.9295775 C1.74788732,13.0971831 1.79577465,13.384507 1.84366197,13.6478873 C2.51408451,14.7253521 4.02253521,15.8985915 5.17183099,16.2577465 C5.74647887,16.2098592 6.12957746,15.9704225 6.27323944,15.8507042 C6.46478873,15.6830986 6.56056338,15.6352113 6.36901408,15.515493 Z M1.67605634,3.68732394 C0.766197183,4.66901408 -4.4408921e-16,6.77605634 0.143661972,8.42816901 C0.311267606,8.38028169 0.430985915,8.38028169 0.430985915,8.26056338 C0.478873239,7.66197183 1.07746479,6.48873239 1.1971831,6.2971831 C1.34084507,6.12957746 1.34084507,6.08169014 1.34084507,5.91408451 C1.31690141,5.48309859 1.72394366,3.85492958 1.81971831,3.71126761 C1.84366197,3.66338028 1.77183099,3.66338028 1.67605634,3.68732394 Z M14.2464789,11.8042254 C13.8633803,12.0676056 12.1633803,12.7619718 11.828169,12.8338028 C11.4929577,12.9056338 11.4929577,12.8577465 11.3971831,13.2408451 C11.1577465,14.0788732 10.4633803,15.3478873 10.271831,15.5394366 C10.0802817,15.7549296 10.056338,15.8267606 10.1760563,15.9225352 C10.271831,16.0183099 10.6070423,16.2577465 11.1816901,16.3056338 C11.3253521,16.3056338 11.4690141,16.3056338 11.6366197,16.2577465 C12.8338028,15.8985915 14.3422535,14.7971831 14.9169014,13.8873239 C15.0126761,13.0732394 14.7253521,12.0915493 14.6295775,11.9478873 C14.5338028,11.7802817 14.4859155,11.684507 14.2464789,11.8042254 Z M6.91971831,1.29295775 C7.18309859,1.31690141 7.15915493,1.24507042 7.51830986,1.14929577 C7.90140845,1.05352113 8.93098592,0.718309859 10.1521127,0.670422535 C10.3915493,0.646478873 10.5112676,0.574647887 10.1521127,0.311267606 C9.86478873,0.167605634 9.0028169,0.0957746479 8.42816901,0.0957746479 C6.91971831,0.0957746479 5.07605634,0.670422535 4.30985915,1.26901408 C4.5971831,1.24507042 6.17746479,1.1971831 6.91971831,1.29295775 Z M14.7492958,2.94507042 C14.7492958,2.94507042 14.7253521,2.94507042 14.7492958,2.94507042 C14.5338028,3.06478873 13.7915493,3.06478873 13.5760563,3.06478873 C13.3605634,3.06478873 13.2887324,3.08873239 13.2887324,3.30422535 C13.2887324,3.51971831 13.1690141,5.14788732 13.1211268,5.36338028 C13.0732394,5.57887324 13.1450704,5.65070423 13.3605634,5.86619718 C13.5760563,6.08169014 14.9408451,7.94929577 15.156338,8.26056338 C15.371831,8.57183099 15.4197183,8.5 15.5633803,8.38028169 C15.7070423,8.26056338 16.4014085,7.85352113 16.8084507,7.85352113 C16.8084507,7.85352113 16.8323944,7.85352113 16.8323944,7.85352113 C16.8802817,6.20140845 15.8985915,4.07042254 14.7492958,2.94507042 Z"/>
  </g>
</svg>
