<svg xmlns="http://www.w3.org/2000/svg" width="17" height="17" viewBox="0 0 17 17">
  <defs>
    <radialGradient id="bandy-02-a" cx="43.678%" cy=".501%" r="221.909%" fx="43.678%" fy=".501%" gradientTransform="matrix(.72576 0 0 1 .12 0)">
      <stop offset="0%" stop-color="#E7E7E7"/>
      <stop offset="40.61%" stop-color="#E0E0E0"/>
      <stop offset="69.3%" stop-color="#ABABAB"/>
      <stop offset="83.03%" stop-color="#CECECE"/>
      <stop offset="98.18%" stop-color="#8E8E8E"/>
    </radialGradient>
    <radialGradient id="bandy-02-b" cx="52.657%" cy="48.704%" r="39.909%" fx="52.657%" fy="48.704%" gradientTransform="matrix(.85732 0 0 1 .075 0)">
      <stop offset="0%" stop-color="#E3E3E3"/>
      <stop offset="100%" stop-color="#DEDEDE"/>
    </radialGradient>
    <radialGradient id="bandy-02-c" cx="54.643%" cy="46.4%" r="65.944%" fx="54.643%" fy="46.4%" gradientTransform="matrix(.93199 0 0 1 .037 0)">
      <stop offset="0%" stop-color="#E3E3E3"/>
      <stop offset="100%" stop-color="#DEDEDE"/>
    </radialGradient>
  </defs>
  <g fill="none" transform="translate(.5 .62)">
    <g transform="translate(0 .47)">
      <path fill="#666" d="M15.0508474,11.0012961 C15.0508474,11.0012961 15.8644068,11.399533 15.7288136,12.2208968 C15.7288136,12.2208968 15.5118644,13.3160484 12.7728813,13.3907178 C12.7728813,13.3907178 8.46101695,13.764065 0.27118644,13.0920401 C0.27118644,13.0920401 0.0813559322,12.1462273 0.786440678,12.0964477 C0.786440678,12.0964477 2.14237288,12.3453458 2.03389831,10.7772878 L3.30847458,10.7026184 C3.30847458,10.7026184 3.2,11.4742024 3.25423729,11.6484312 C3.44406779,12.1462273 3.71525424,12.1711172 5.7220339,12.320456 C5.7220339,12.320456 7.0779661,12.4697948 9.08474576,12.320456 C9.08474576,12.320456 10.0067797,12.3453458 9.76271191,11.1257451 C9.70847454,10.8270674 11.0915255,11.2004146 11.0915255,11.2004146 C11.0915255,11.2004146 10.7932203,11.5737617 10.9559322,11.9719987 C10.9559322,11.9719987 10.9830508,12.3453458 12.0406779,12.3951255 C12.0406779,12.3951255 12.6372881,12.4200152 13.0983051,12.444905 C13.6406779,12.4697948 14.0474576,12.5195745 14.318644,12.1462273 C14.318644,12.1462273 14.779661,11.4493127 13.8033898,11.1257451 C12.8,10.8519572 15.0508474,11.0012961 15.0508474,11.0012961 Z"/>
      <path fill="#000" d="M1.32881356,8.88566221 C1.32881356,8.88566221 1.43728813,9.53279727 1.41016949,10.5532795 C1.41016949,10.5532795 1.30169492,10.9266266 1.76271187,10.9764062 C2.35932203,11.0261859 3.55254237,11.2004146 4.39322034,11.2004146 C4.39322034,11.2004146 4.85423729,11.2004146 4.98983051,10.7772878 C5.04406779,10.5532795 5.09830508,10.354161 5.12542373,10.2048221 C5.15254237,10.0554833 5.31525424,9.93103426 5.50508474,9.98081384 C5.99322034,10.1052629 7.05084745,10.3292712 7.83728813,10.6777286 C8.94915255,11.1755247 9.19322034,11.3746432 11.1728813,11.4244229 C12.420339,11.4493127 13.7220339,11.399533 14.6440678,11.2501942 C15.0237288,11.2004146 15.2135593,11.1755247 15.4847458,11.0510757 C15.4847458,11.0510757 15.918644,10.8270674 15.6474576,10.4537203 C15.6474576,10.4537203 11.8237288,9.43323802 10.6847458,9.18433993 C9.49152546,8.91055202 2.03389831,8.01451885 1.32881356,8.88566221 Z"/>
      <path fill="url(#bandy-02-a)" d="M11.9864407,8.1140781 C11.9864407,8.1140781 12.6915255,8.73632335 13.4779661,8.76121316 C14.2644068,8.78610296 15.620339,8.93544183 15.6745763,10.0305935 C15.6745763,10.0305935 15.8644068,10.6030591 14.6711864,10.7523979 C13.4508474,10.8768471 10.2237288,11.2999738 8.40677966,10.5034999 C6.58983051,9.70702598 4.06779661,9.23411955 2.35932203,9.08478069 C2.35932203,9.08478069 1.87118644,9.05989088 1.57288136,8.98522145 C1.22033898,8.91055202 1.05762712,8.71143353 1.13898305,8.06429848 C1.24745763,6.8944774 1.57288136,6.86958759 2.0881356,5.27663975 C2.60338983,3.6836919 2.54915255,2.4640912 2.41355932,1.51827842 C2.41355932,1.51827842 3.25423729,1.59294785 4.23050847,1.09515164 C4.71864407,0.846253544 5.26101695,0.522686012 6.29152542,0.771584114 C6.48135593,0.497796202 6.72542373,0.248898101 7.75593221,0.522686012 C7.75593221,0.522686012 7.72881356,1.4684988 7.59322034,2.26497272 C7.53898305,2.68809949 7.67457627,3.13611608 7.97288136,3.78325113 C8.21694915,4.35571677 8.56949153,5.12730088 8.9220339,5.52553784 C8.94915255,5.50064804 10.8745763,7.31760417 11.9864407,8.1140781 Z"/>
      <path fill="#FFF" d="M12.1220339,8.26341696 L10.820339,7.44205322 C10.820339,7.44205322 9.13898305,6.27223215 8.78644068,5.87399519 C8.43389831,5.47575822 8.08135593,5.30152955 7.67457627,3.93259 C7.26779661,2.58854025 7.29491526,1.51827842 7.29491526,1.51827842 C7.29491526,1.51827842 6.86101695,0.970702598 6.4,0.896033164 C6.4,0.896033164 7.0779661,1.34404975 7.18644068,1.59294785 C7.18644068,1.59294785 7.21355932,2.81254855 7.59322034,4.03214924 C7.89152542,5.05263145 7.89152542,5.27663975 9.13898305,6.29712196 C9.1118644,6.34690158 11.2271187,8.01451885 12.1220339,8.26341696 Z"/>
      <path fill="#B5B5B5" d="M1.19322034,2.53876063 C1.24745763,2.68809949 1.32881356,2.81254855 1.38305085,2.96188741 C1.46440678,2.86232816 1.49152542,2.76276892 1.51864407,2.66320968 C1.51864407,2.63831987 1.6,2.43920139 1.49152542,2.31475234 C1.46440678,2.28986253 1.43728813,2.26497272 1.41016949,2.26497272 C1.43728813,2.11563386 1.32881356,1.966295 1.24745763,1.91651538 C1.22033898,1.89162557 1.19322034,1.89162557 1.19322034,1.86673576 C1.05762712,1.76717652 0.86779661,1.64272746 0.488135593,1.59294785 C0.406779661,1.59294785 0.298305085,1.64272746 0.298305085,1.66761728 C0.244067797,1.76717652 0.244067797,1.84184595 0.27118644,1.86673576 C0.325423729,1.966295 0.515254237,1.99118481 0.569491526,1.99118481 C0.922033898,2.11563386 1.19322034,2.31475234 1.27457627,2.36453196 C1.24745763,2.43920139 1.22033898,2.48898101 1.19322034,2.53876063 Z M2.57627119,4.82862316 C2.7118644,4.87840279 2.82033898,5.00285183 2.92881356,5.10241107 C2.95593221,5.00285183 3.01016949,4.85351297 2.98305085,4.72906392 L2.98305085,4.70417411 C2.98305085,4.70417411 2.92881356,4.57972506 2.73898305,4.52994544 C2.73898305,4.30593715 2.49491526,4.23126772 2.35932203,4.20637791 C2.33220339,4.20637791 2.30508474,4.20637791 2.2779661,4.20637791 C2.22372881,4.20637791 2.16949153,4.20637791 2.11525424,4.20637791 C2.0881356,4.20637791 2.03389831,4.20637791 1.97966102,4.20637791 C2.03389831,4.08192886 2.06101695,3.93259 2.06101695,3.83303076 C2.06101695,3.78325113 2.11525424,3.58413266 2.03389831,3.4596836 C2.00677966,3.40990398 1.95254237,3.38501417 1.89830508,3.36012437 C1.89830508,3.18589569 1.73559322,3.06144664 1.62711864,3.03655684 C1.6,3.03655684 1.57288136,3.01166702 1.54576271,3.01166702 C1.49152542,3.01166702 1.46440678,2.98677721 1.41016949,2.98677721 C1.41016949,3.06144664 1.27457627,3.08633645 1.24745763,3.01166702 L1.24745763,2.98677721 C1.22033898,2.98677721 1.19322034,2.98677721 1.16610169,2.96188741 C1.13898305,2.96188741 1.1118644,2.96188741 1.1118644,2.96188741 C1.00338983,2.96188741 0.922033898,2.96188741 0.813559322,2.98677721 C0.73220339,3.01166702 0.650847458,3.08633645 0.650847458,3.11122627 C0.623728813,3.18589569 0.650847458,3.26056512 0.677966102,3.28545494 C0.73220339,3.33523455 0.786440678,3.36012437 0.86779661,3.36012437 C0.922033898,3.36012437 1.00338983,3.36012437 1.00338983,3.33523455 C1.35593221,3.33523455 1.65423729,3.4347938 1.76271187,3.48457341 C1.76271187,3.55924284 1.76271187,3.7085817 1.73559322,3.83303076 C1.73559322,3.83303076 1.73559322,3.83303076 1.73559322,3.85792056 C1.76271187,3.88281038 1.81694915,3.90770019 1.84406779,3.93259 C1.87118644,3.95747981 1.87118644,3.98236962 1.87118644,4.03214924 C1.92542373,4.08192886 1.95254237,4.15659829 2.00677966,4.20637791 C2.03389831,4.23126772 2.00677966,4.30593715 1.97966102,4.30593715 C1.92542373,4.33082696 1.89830508,4.30593715 1.87118644,4.28104734 C1.87118644,4.28104734 1.87118644,4.28104734 1.87118644,4.25615752 C1.84406779,4.25615752 1.81694915,4.25615752 1.81694915,4.25615752 C1.76271187,4.28104734 1.68135593,4.30593715 1.6,4.33082696 C1.51864407,4.35571677 1.46440678,4.45527601 1.46440678,4.50505563 C1.46440678,4.62950468 1.54576271,4.70417411 1.68135593,4.70417411 C1.76271187,4.70417411 1.87118644,4.65439449 1.89830508,4.65439449 C2.03389831,4.62950468 2.16949153,4.60461487 2.33220339,4.60461487 C2.49491526,4.60461487 2.60338983,4.62950468 2.68474576,4.62950468 C2.60338983,4.6792843 2.57627119,4.75395373 2.57627119,4.82862316 Z M5.58644068,6.86958759 C5.50508474,6.81980797 5.42372881,6.79491816 5.36949153,6.79491816 C5.31525424,6.79491816 5.26101695,6.81980797 5.23389831,6.84469778 C5.23389831,6.96914683 5.15254237,7.21804493 5.15254237,7.21804493 L5.15254237,7.24293474 L5.15254237,7.26782456 C5.20677966,7.44205322 5.31525424,7.49183285 5.39661017,7.49183285 C5.42372881,7.49183285 5.4779661,7.49183285 5.50508474,7.46694303 C5.53220339,7.46694303 5.58644068,7.44205322 5.58644068,7.41716342 C5.58644068,7.41716342 5.58644068,7.3922736 5.69491526,7.1433755 C5.74915255,6.99403664 5.64067797,6.8944774 5.58644068,6.86958759 Z M3.76949153,5.77443594 C3.95932203,5.87399519 4.09491526,5.99844424 4.25762712,6.12289329 C4.23050847,6.07311367 4.23050847,5.99844424 4.20338983,5.9237748 C4.20338983,5.87399519 4.17627119,5.74954614 4.06779661,5.6499869 C4.01355932,5.60020728 3.90508474,5.55042765 3.79661017,5.52553784 C3.76949153,5.30152955 3.52542373,5.22686012 3.38983051,5.22686012 C3.36271187,5.22686012 3.33559322,5.22686012 3.30847458,5.22686012 C3.2,5.22686012 3.09152542,5.22686012 2.98305085,5.25174993 C2.98305085,5.27663975 2.95593221,5.30152955 2.92881356,5.30152955 C2.87457627,5.32641936 2.84745763,5.30152955 2.79322034,5.30152955 C2.73898305,5.32641936 2.65762712,5.35130918 2.57627119,5.40108879 C2.49491526,5.42597861 2.46779661,5.52553784 2.46779661,5.57531747 C2.49491526,5.74954614 2.60338983,5.77443594 2.65762712,5.77443594 C2.76610169,5.77443594 2.87457627,5.72465633 2.90169492,5.69976651 C3.11864407,5.62509708 3.36271187,5.62509708 3.49830508,5.62509708 C3.57966102,5.62509708 3.66101695,5.62509708 3.6881356,5.62509708 C3.71525424,5.6499869 3.74237288,5.69976651 3.76949153,5.77443594 Z M4.47457627,6.12289329 C4.42033898,6.12289329 4.36610169,6.12289329 4.3118644,6.1477831 C4.3118644,6.19756272 4.25762712,6.27223215 4.17627119,6.22245253 C4.14915255,6.22245253 4.14915255,6.19756272 4.1220339,6.19756272 C4.1220339,6.19756272 4.09491526,6.22245253 4.06779661,6.22245253 C4.01355932,6.24734233 3.93220339,6.27223215 3.90508474,6.29712196 C3.82372881,6.34690158 3.79661017,6.42157101 3.79661017,6.47135063 C3.82372881,6.6455793 3.95932203,6.67046911 3.98644068,6.67046911 C4.09491526,6.67046911 4.17627119,6.62068949 4.23050847,6.59579968 C4.52881356,6.52113025 4.71864407,6.52113025 4.77288136,6.52113025 C4.8,6.52113025 4.8,6.52113025 4.8,6.52113025 L4.85423729,6.52113025 L4.85423729,6.47135063 C4.88135593,6.22245253 4.61016949,6.1477831 4.47457627,6.12289329 Z M0.27118644,0.622245253 C0.298305085,0.622245253 0.677966102,0.696914683 0.976271191,0.696914683 C1.03050847,0.696914683 1.08474576,0.696914683 1.1118644,0.696914683 L1.13898305,0.696914683 L1.16610169,0.672024873 C1.24745763,0.597355443 1.35593221,0.423126772 1.19322034,0.248898101 L1.16610169,0.224008291 L1.13898305,0.224008291 C1.13898305,0.224008291 0.677966102,0.224008291 0.27118644,0.174228671 L0.244067797,0.174228671 L0.216949153,0.199118481 C0.189830508,0.199118481 0.0542372881,0.323567531 0.0813559322,0.448016582 C0.108474576,0.522686012 0.162711864,0.572465633 0.27118644,0.622245253 Z" transform="translate(6.508 1.244)"/>
      <g transform="translate(6.78 2.738)">
        <path fill="url(#bandy-02-b)" d="M0.786440678,1.74228671 C0.786440678,1.74228671 0.406779661,1.84184595 0.461016949,1.56805803 C0.461016949,1.54316823 0.515254237,1.4933886 0.569491526,1.4684988 C1.00338983,1.39382936 1.19322034,1.4933886 1.38305085,1.54316823 C1.38305085,1.54316823 1.70847458,1.64272746 1.6,1.91651538 C1.62711864,1.91651538 1.24745763,1.74228671 0.786440678,1.74228671 Z"/>
        <path fill="url(#bandy-02-c)" d="M0.379661017,0.398236962 C0.379661017,0.398236962 -3.74700271e-16,0.373347152 0.135593221,0.14933886 C0.135593221,0.12444905 0.216949153,0.0995592405 0.27118644,0.0995592405 C0.705084745,0.14933886 0.86779661,0.298677721 1.03050847,0.398236962 C1.03050847,0.398236962 1.30169492,0.597355443 1.1118644,0.821363734 C1.13898305,0.821363734 0.840677966,0.547575822 0.379661017,0.398236962 Z"/>
      </g>
    </g>
    <path fill="#A6A6A6" d="M12.5016949,9.72900932 L12.4745763,9.70411953 C12.4474576,9.70411953 10.6033898,8.90764563 8.37966102,7.19024873 C8.37966102,7.19024873 7.56610169,6.71734233 7.05084745,5.42307222 C7.05084745,5.42307222 6.53559322,4.1785817 6.48135593,3.28254855 C6.42711864,2.46118481 6.34576271,1.51537203 6.02033898,1.16691468 L6.04745763,1.14202487 C6.37288136,1.49048221 6.48135593,2.46118481 6.53559322,3.28254855 C6.58983051,4.1536919 7.10508474,5.37329259 7.10508474,5.37329259 C7.62033898,6.66756272 8.43389831,7.1155793 8.43389831,7.1155793 C10.4949153,8.68363734 12.1762712,9.48011125 12.4745763,9.62945016 L12.4745763,9.05698447 L12.5016949,9.05698447 L12.5016949,9.48011125 L12.5016949,9.72900932 Z M4.77288136,9.90323802 L4.63728813,9.90323802 C4.63728813,9.87834824 4.82711864,7.6133755 1.89830508,6.3937748 L1.95254237,6.29421557 C4.98983051,7.51381626 4.77288136,9.87834824 4.77288136,9.90323802 Z"/>
    <path fill="#A6A6A6" d="M6.86101695,2.33673576 C6.69830508,2.33673576 6.56271187,2.21228671 6.56271187,2.06294785 C6.56271187,1.91360899 6.69830508,1.78915993 6.86101695,1.78915993 C7.02372881,1.78915993 7.15932203,1.91360899 7.15932203,2.06294785 C7.15932203,2.21228671 7.02372881,2.33673576 6.86101695,2.33673576 Z M6.86101695,1.88871917 C6.75254237,1.88871917 6.64406779,1.9633886 6.64406779,2.08783766 C6.64406779,2.18739689 6.72542373,2.28695614 6.86101695,2.28695614 C6.99661017,2.28695614 7.0779661,2.21228671 7.0779661,2.08783766 C7.0779661,1.9633886 6.96949153,1.88871917 6.86101695,1.88871917 Z M6.96949153,3.73056512 C6.80677966,3.73056512 6.67118644,3.60611608 6.67118644,3.45677721 C6.67118644,3.30743835 6.80677966,3.1829893 6.96949153,3.1829893 C7.13220339,3.1829893 7.26779661,3.30743835 7.26779661,3.45677721 C7.26779661,3.60611608 7.13220339,3.73056512 6.96949153,3.73056512 Z M6.96949153,3.25765873 C6.86101695,3.25765873 6.75254237,3.33232816 6.75254237,3.45677721 C6.75254237,3.55633645 6.83389831,3.65589569 6.96949153,3.65589569 C7.0779661,3.65589569 7.18644068,3.58122627 7.18644068,3.45677721 C7.18644068,3.35721798 7.0779661,3.25765873 6.96949153,3.25765873 Z M7.29491526,5.1492843 C7.13220339,5.1492843 6.99661017,5.02483525 6.99661017,4.87549639 C6.99661017,4.72615752 7.13220339,4.60170848 7.29491526,4.60170848 C7.45762712,4.60170848 7.59322034,4.72615752 7.59322034,4.87549639 C7.59322034,5.02483525 7.48474576,5.1492843 7.29491526,5.1492843 Z M7.29491526,4.67637791 C7.18644068,4.67637791 7.0779661,4.75104734 7.0779661,4.87549639 C7.0779661,4.99994544 7.15932203,5.07461487 7.29491526,5.07461487 C7.43050847,5.07461487 7.5118644,4.99994544 7.5118644,4.87549639 C7.5118644,4.75104734 7.43050847,4.67637791 7.29491526,4.67637791 Z M8.08135593,6.51822386 C7.91864407,6.51822386 7.78305085,6.3937748 7.78305085,6.24443594 C7.78305085,6.09509708 7.91864407,5.97064804 8.08135593,5.97064804 C8.24406779,5.97064804 8.37966102,6.09509708 8.37966102,6.24443594 C8.37966102,6.3937748 8.24406779,6.51822386 8.08135593,6.51822386 Z M8.08135593,6.04531747 C7.97288136,6.04531747 7.86440678,6.1199869 7.86440678,6.24443594 C7.86440678,6.368885 7.94576271,6.44355443 8.08135593,6.44355443 C8.18983051,6.44355443 8.29830508,6.368885 8.29830508,6.24443594 C8.29830508,6.1199869 8.18983051,6.04531747 8.08135593,6.04531747 Z M9.22033898,7.53870607 C9.05762712,7.53870607 8.9220339,7.41425702 8.9220339,7.26491816 C8.9220339,7.1155793 9.05762712,6.99113025 9.22033898,6.99113025 C9.38305085,6.99113025 9.51864405,7.1155793 9.51864405,7.26491816 C9.51864405,7.41425702 9.38305085,7.53870607 9.22033898,7.53870607 Z M9.22033898,7.06579968 C9.1118644,7.06579968 9.00338983,7.14046911 9.00338983,7.26491816 C9.00338983,7.3644774 9.08474576,7.46403664 9.22033898,7.46403664 C9.32881356,7.46403664 9.43728809,7.38936721 9.43728809,7.26491816 C9.43728809,7.16535892 9.32881356,7.06579968 9.22033898,7.06579968 Z M10.6033898,8.45962904 C10.4406779,8.45962904 10.3050847,8.33517999 10.3050847,8.18584114 C10.3050847,8.03650228 10.4406779,7.91205322 10.6033898,7.91205322 C10.7661017,7.91205322 10.9016949,8.03650228 10.9016949,8.18584114 C10.9288136,8.33517999 10.7932203,8.45962904 10.6033898,8.45962904 Z M10.6033898,8.01161246 C10.4949153,8.01161246 10.3864407,8.08628189 10.3864407,8.21073095 C10.3864407,8.31029018 10.4677966,8.40984942 10.6033898,8.40984942 C10.7118644,8.40984942 10.820339,8.33517999 10.820339,8.21073095 C10.820339,8.08628189 10.7389831,8.01161246 10.6033898,8.01161246 Z M11.9322034,9.28099275 C11.7694915,9.28099275 11.6338983,9.15654372 11.6338983,9.00720489 C11.6338983,8.857866 11.7694915,8.73341696 11.9322034,8.73341696 C12.0949153,8.73341696 12.2305085,8.857866 12.2305085,9.00720489 C12.2305085,9.15654372 12.0949153,9.28099275 11.9322034,9.28099275 Z M11.9322034,8.8329762 C11.8237288,8.8329762 11.7152542,8.90764563 11.7152542,9.03209468 C11.7152542,9.13165393 11.7966102,9.23121318 11.9322034,9.23121318 C12.0406779,9.23121318 12.1491526,9.15654372 12.1491526,9.03209468 C12.1220339,8.90764563 12.0406779,8.8329762 11.9322034,8.8329762 Z"/>
  </g>
</svg>
