<svg xmlns="http://www.w3.org/2000/svg" width="17" height="17" viewBox="0 0 17 17">
  <defs>
    <radialGradient id="football-05-a" cx="47.408%" cy="17.33%" r="81.284%" fx="47.408%" fy="17.33%" gradientTransform="matrix(.4932 .83875 -.86992 .47552 .391 -.307)">
      <stop offset="0%" stop-color="#FAD961"/>
      <stop offset="100%" stop-color="#F76B1C"/>
    </radialGradient>
    <radialGradient id="football-05-b" cx="50.536%" cy="-48.256%" r="65.26%" fx="50.536%" fy="-48.256%" gradientTransform="matrix(.32725 0 0 1 .34 0)">
      <stop offset="0%" stop-color="#E6292E"/>
      <stop offset="57%" stop-color="#E6292E"/>
      <stop offset="100%" stop-color="#FFF"/>
    </radialGradient>
  </defs>
  <g fill="none" transform="translate(0 1)">
    <path fill="url(#football-05-a)" d="M3.50461539,6.08769254 C3.50461539,6.08769254 6.46,7.34307715 6.98307692,7.55230792 C7.50615385,7.73538485 8.34307692,8.28461562 8.05538462,9.12153869 C7.76769231,9.95846177 6.64307692,11.2923079 7.34923077,12.8353848 C8.05538462,14.3523079 9.25846154,14.7969233 11.3246154,14.1169233 C13.3907692,13.4107695 14.2538462,12.9400002 14.7507692,12.7307695 C15.2738462,12.5215387 15.2215385,12.3907695 15.3,12.1815387 C15.3784615,11.9723079 17.5492308,7.97076946 16.6338462,5.40769254 C15.64,2.609231 13.0246154,0.804615615 10.3569231,0.595384846 C8.29076923,0.438461769 6.17230769,1.249231 4.78615385,3.26307715 C4.44615385,3.78615408 3.50461539,6.08769254 3.50461539,6.08769254 Z"/>
    <circle cx="11.167" cy="11.056" r="2.066" fill="#3558BD" transform="rotate(-1.726 11.167 11.056)"/>
    <circle cx="11.089" cy="11.135" r="1.072" fill="#FFF"/>
    <path fill="url(#football-05-b)" d="M12.6323077,12.0507692 C12.3446154,12.5738462 11.7953846,12.94 11.1415385,12.9661538 C10.4876923,12.9923077 9.93846154,12.6523077 9.59846154,12.1553846 C9.57230769,12.1292308 9.59846154,12.1030769 9.59846154,12.1030769 C9.62461538,12.0769231 9.65076923,12.1030769 9.65076923,12.1030769 C9.99076923,12.5215385 10.5138462,12.8092308 11.1153846,12.7830769 C11.7169231,12.7569231 12.2138462,12.4692308 12.5276923,12.0246154 C12.5538462,11.9984615 12.58,11.9984615 12.58,12.0246154 C12.6323077,11.9984615 12.6584615,12.0246154 12.6323077,12.0507692 Z"/>
    <path fill="#DADADA" d="M7.42769254,7.26461508 C7.48000023,7.15999969 7.58461562,7.13384585 7.689231,7.15999969 C7.79384638,7.21230738 7.82000023,7.31692277 7.79384638,7.42153815 C7.79384638,7.42153815 5.83230792,11.7630766 5.36153869,12.6523074 C5.309231,12.7569228 5.20461561,12.7830766 5.10000023,12.7307689 C4.99538485,12.6784612 4.969231,12.5738458 5.02153869,12.4692305 C5.46615408,11.6061535 7.42769254,7.29076892 7.42769254,7.26461508 Z"/>
    <path fill="#DADADA" d="M5.49230769,11.5538461 C5.51846154,11.4753845 5.57076923,11.5276922 5.64923077,11.5799999 C5.72769231,11.6061538 5.80615385,11.6323076 5.75384615,11.6846153 C5.59692308,12.0246153 5.44,12.3646153 5.28307692,12.6261538 C5.02153846,13.096923 4.78615385,13.3846153 4.39384615,13.5938461 C4.00153846,13.8030768 3.50461538,13.8815384 2.72,13.9338461 C1.98769231,13.9861538 1.25538462,14.0123076 0.601538462,14.0123076 C0.313846154,14.0123076 0.104615385,13.776923 0.130769231,13.4892307 L0.470769231,11.0830768 C0.523076923,10.7692307 0.732307692,10.3507691 0.863076923,10.0630768 C0.915384615,9.93230762 1.04615385,9.87999992 1.20307692,9.90615377 L4.52461538,10.4292307 C6.09384615,10.6646153 6.69538462,10.7692307 7.87230769,10.036923 L8.10769231,9.90615377 C9.15384615,9.25230762 9.46769231,9.06923069 9.62461538,8.88615377 C9.70307692,8.80769223 9.59846154,8.676923 9.44153846,8.51999992 C9.04923077,8.20615377 8.34307692,7.86615377 7.87230769,7.68307685 C7.68923077,7.60461531 7.55846154,7.55230762 7.48,7.49999992 C7.40153846,7.44769223 7.37538462,7.36923069 7.42769231,7.29076915 C7.48,7.21230762 7.55846154,7.18615377 7.63692308,7.23846146 C7.68923077,7.26461531 7.82,7.34307685 8.00307692,7.39538454 C8.47384615,7.60461531 9.23230769,7.94461531 9.65076923,8.28461531 C9.96461538,8.54615377 10.0953846,8.80769223 9.88615385,9.06923069 C9.70307692,9.30461531 9.36307692,9.48769223 8.29076923,10.1676922 L8.05538462,10.2984615 C6.8,11.0307691 6.17230769,11.0046153 4.49846154,10.716923 L1.28153846,10.2461538 C1.20307692,10.2461538 1.15076923,10.2723076 1.12461538,10.3246153 C0.993846154,10.5861538 0.810769231,10.9261538 0.784615385,11.1353845 L0.444615385,13.5415384 C0.418461538,13.6461538 0.496923077,13.7246153 0.601538462,13.7246153 C1.22923077,13.6984615 1.96153846,13.6723076 2.69384615,13.6461538 C3.42615385,13.5938461 3.89692308,13.5153845 4.23692308,13.3323076 C4.70769231,13.096923 4.91692308,12.6523076 5.17846154,12.1292307 C5.30923077,11.9461538 5.41384615,11.7630768 5.49230769,11.5538461 Z"/>
    <path fill="#DADADA" d="M7.74153831,7.18615377 C7.92461523,7.26461531 7.76769215,7.63076915 7.58461523,7.55230762 L3.42615369,5.93076915 C3.373846,5.90461531 3.32153831,5.87846146 3.26923061,5.93076915 L2.87692292,6.32307685 C2.79846138,6.40153838 2.85076908,6.47999992 2.95538446,6.50615377 L7.27076908,8.10153838 C7.453846,8.17999992 7.32307677,8.57230762 7.13999985,8.49384608 L2.77230754,6.87230762 C2.45846138,6.76769223 2.32769215,6.296923 2.53692292,6.06153839 L2.95538446,5.616923 C3.08615369,5.48615377 3.29538446,5.43384608 3.45230754,5.51230762 L7.74153831,7.18615377 Z"/>
    <circle cx="9.52" cy="10.141" r="1" fill="#CDD4E2" transform="rotate(-1.743 9.52 10.141)"/>
    <path fill="#062164" d="M9.493846,9.85384623 C9.65076908,9.85384623 9.78153831,9.95846162 9.78153831,10.1153847 C9.78153831,10.2723078 9.67692292,10.3769232 9.51999985,10.403077 C9.36307677,10.403077 9.23230754,10.2984616 9.23230754,10.1415385 C9.23230754,9.98461546 9.36307677,9.85384623 9.493846,9.85384623 Z"/>
  </g>
</svg>
