<svg xmlns="http://www.w3.org/2000/svg" xmlns:xlink="http://www.w3.org/1999/xlink" width="17" height="14" viewBox="0 0 17 14">
  <defs>
    <path id="squash-02-a" d="M5.33100329,7.37602796 C4.6356321,7.03112385 4.58328658,7.00635323 3.91016727,6.59469349 C3.84341163,6.55018973 3.79890788,6.52793785 3.73771522,6.4834341 C3.02565512,6.01058169 2.34140987,5.45984771 1.76842401,4.82566919 C0.689207932,3.64075669 0.722585749,2.25557728 1.79067589,1.39887998 C2.84207713,0.519930801 4.19944168,0.753575524 5.15070947,2.04418444 C5.69588048,2.78962235 6.13535507,3.6018159 6.46357027,4.49189102 C6.73615577,5.23176596 6.81237702,5.30842722 7.01264391,6.05386513 C7.14615518,6.54340645 5.78160382,7.59854674 5.33100329,7.37602796 Z"/>
    <path id="squash-02-b" d="M5.33100329,7.37602796 C4.6356321,7.03112385 4.58328658,7.00635323 3.91016727,6.59469349 C3.84341163,6.55018973 3.79890788,6.52793785 3.73771522,6.4834341 C3.02565512,6.01058169 2.34140987,5.45984771 1.76842401,4.82566919 C0.689207932,3.64075669 0.722585749,2.25557728 1.79067589,1.39887998 C2.84207713,0.519930801 4.19944168,0.753575524 5.15070947,2.04418444 C5.69588048,2.78962235 6.13535507,3.6018159 6.46357027,4.49189102 C6.73615577,5.23176596 6.81237702,5.30842722 7.01264391,6.05386513 C7.14615518,6.54340645 5.78160382,7.59854674 5.33100329,7.37602796 Z"/>
  </defs>
  <g fill="none" fill-rule="evenodd">
    <g transform="matrix(-1 0 0 1 17 0)">
      <path fill="#D2D2D2" fill-rule="nonzero" d="M6.5387118,7.16664897 C6.59355444,7.12399359 6.64839708,7.05696369 6.6971461,7.00212106 L6.23403048,6.43541378 L6.06340893,6.5755672 L6.5387118,7.16664897 Z"/>
      <path fill="#D2D2D2" d="M11.7304816,13.9001063 C11.5903282,13.9976044 11.4684557,14.0097916 11.3770513,13.9366681 C11.0114337,13.595425 11.2734596,13.5832377 10.4386328,12.6021639 C9.75005301,11.8221797 9.23209475,11.1275062 9.05537958,10.6034544 C8.65320022,10.0976834 8.08649295,9.4395717 7.60509645,8.85458353 C7.19682347,8.50724682 6.73980148,8.21475274 6.24621773,7.97100768 C5.48451441,7.59320283 4.72281109,7.34945777 3.98548227,6.8985294 C3.91235875,6.84978039 3.86360974,6.82540588 3.79657985,6.77665687 C3.01659565,6.25869861 2.26707958,5.65542958 1.63943604,4.96075615 C0.457272489,3.6628137 0.493834249,2.14550068 1.66381055,1.20708219 C2.81550597,0.24428919 4.30235085,0.50022151 5.344361,1.91394287 C5.9415364,2.73048883 6.4229329,3.62015831 6.78245687,4.59513856 C7.08104457,5.40559089 7.17244897,6.20385597 7.39181952,7.02040193 C7.53806656,7.55664107 7.73306261,8.05631845 7.99508855,8.5255277 C8.47039143,9.1166095 9.01272419,9.7990957 9.4270908,10.2926794 C9.9084873,10.5668926 10.4873818,11.2067234 11.1150254,12.0415502 C11.9071968,13.0530922 11.9742267,12.8032535 12.2362526,13.2237138 C12.2850017,13.3212118 12.2667208,13.4248035 12.1692228,13.5283951 L11.7304816,13.9001063 Z M5.92934915,7.58710921 C5.91106827,7.59320283 5.95981728,7.60539009 5.97809816,7.61148371 C7.01401468,8.10506746 7.70259448,8.70833649 7.76353075,8.65958748 C7.82446701,8.61083847 7.36135139,7.81866702 7.0871382,6.70353335 C7.08104457,6.68525247 7.08104457,6.63040983 7.07495094,6.64869071 C6.98354654,6.88634215 6.81901863,7.11789996 6.61792895,7.27633425 C6.4229329,7.43476854 6.17918784,7.54445382 5.92934915,7.58710921 Z"/>
      <path fill="#FFF" fill-rule="nonzero" d="M11.7304816,13.9001063 C11.5903282,13.9976044 11.4684557,14.0097916 11.3770513,13.9366681 C11.0114337,13.595425 11.2734596,13.5832377 10.4386328,12.6021639 C9.75005301,11.8221797 9.23209475,11.1275062 9.05537958,10.6034544 C8.65320022,10.0976834 8.08649295,9.4395717 7.60509645,8.85458353 C7.19682347,8.50724682 7.73306261,8.05631845 7.99508855,8.5255277 C8.47039143,9.1166095 9.01272419,9.7990957 9.4270908,10.2926794 C9.9084873,10.5668926 10.4873818,11.2067234 11.1150254,12.0415502 C11.9071968,13.0530922 11.9742267,12.8032535 12.2362526,13.2237138 C12.2850017,13.3212118 12.2667208,13.4248035 12.1692228,13.5283951 L11.7304816,13.9001063 Z"/>
      <use fill="#7F7F7F" xlink:href="#squash-02-a"/>
    </g>
    <path fill="#D2D2D2" fill-rule="nonzero" d="M6.5387118,7.16664897 C6.59355444,7.12399359 6.64839708,7.05696369 6.6971461,7.00212106 L6.23403048,6.43541378 L6.06340893,6.5755672 L6.5387118,7.16664897 Z"/>
    <path fill="#D2D2D2" d="M11.7304816,13.9001063 C11.5903282,13.9976044 11.4684557,14.0097916 11.3770513,13.9366681 C11.0114337,13.595425 11.2734596,13.5832377 10.4386328,12.6021639 C9.75005301,11.8221797 9.23209475,11.1275062 9.05537958,10.6034544 C8.65320022,10.0976834 8.08649295,9.4395717 7.60509645,8.85458353 C7.19682347,8.50724682 6.73980148,8.21475274 6.24621773,7.97100768 C5.48451441,7.59320283 4.72281109,7.34945777 3.98548227,6.8985294 C3.91235875,6.84978039 3.86360974,6.82540588 3.79657985,6.77665687 C3.01659565,6.25869861 2.26707958,5.65542958 1.63943604,4.96075615 C0.457272489,3.6628137 0.493834249,2.14550068 1.66381055,1.20708219 C2.81550597,0.24428919 4.30235085,0.50022151 5.344361,1.91394287 C5.9415364,2.73048883 6.4229329,3.62015831 6.78245687,4.59513856 C7.08104457,5.40559089 7.17244897,6.20385597 7.39181952,7.02040193 C7.53806656,7.55664107 7.73306261,8.05631845 7.99508855,8.5255277 C8.47039143,9.1166095 9.01272419,9.7990957 9.4270908,10.2926794 C9.9084873,10.5668926 10.4873818,11.2067234 11.1150254,12.0415502 C11.9071968,13.0530922 11.9742267,12.8032535 12.2362526,13.2237138 C12.2850017,13.3212118 12.2667208,13.4248035 12.1692228,13.5283951 L11.7304816,13.9001063 Z M5.92934915,7.58710921 C5.91106827,7.59320283 5.95981728,7.60539009 5.97809816,7.61148371 C7.01401468,8.10506746 7.70259448,8.70833649 7.76353075,8.65958748 C7.82446701,8.61083847 7.36135139,7.81866702 7.0871382,6.70353335 C7.08104457,6.68525247 7.08104457,6.63040983 7.07495094,6.64869071 C6.98354654,6.88634215 6.81901863,7.11789996 6.61792895,7.27633425 C6.4229329,7.43476854 6.17918784,7.54445382 5.92934915,7.58710921 Z"/>
    <path fill="#FFF" fill-rule="nonzero" d="M11.7304816,13.9001063 C11.5903282,13.9976044 11.4684557,14.0097916 11.3770513,13.9366681 C11.0114337,13.595425 11.2734596,13.5832377 10.4386328,12.6021639 C9.75005301,11.8221797 9.23209475,11.1275062 9.05537958,10.6034544 C8.65320022,10.0976834 8.08649295,9.4395717 7.60509645,8.85458353 C7.19682347,8.50724682 7.73306261,8.05631845 7.99508855,8.5255277 C8.47039143,9.1166095 9.01272419,9.7990957 9.4270908,10.2926794 C9.9084873,10.5668926 10.4873818,11.2067234 11.1150254,12.0415502 C11.9071968,13.0530922 11.9742267,12.8032535 12.2362526,13.2237138 C12.2850017,13.3212118 12.2667208,13.4248035 12.1692228,13.5283951 L11.7304816,13.9001063 Z"/>
    <use fill="#7F7F7F" xlink:href="#squash-02-b"/>
    <path fill="#FF7800" fill-rule="nonzero" d="M9.5,2.21317582 C9.5,2.76873137 9.05555556,3.21317581 8.49999999,3.21317581 C7.94444444,3.21317581 7.5,2.76873137 7.5,2.21317582 C7.5,1.65762025 7.94444444,1.21317581 8.49999999,1.21317581 C9.05555556,1.21317581 9.5,1.65762025 9.5,2.21317582 Z"/>
  </g>
</svg>
