<?xml version="1.0" encoding="UTF-8"?>
<svg width="17px" height="14px" viewBox="0 0 17 14" version="1.1" xmlns="http://www.w3.org/2000/svg" xmlns:xlink="http://www.w3.org/1999/xlink">
    <!-- Generator: Sketch 48.2 (47327) - http://www.bohemiancoding.com/sketch -->
    <title>sports icons/fieldHockey</title>
    <desc>Created with Sketch.</desc>
    <defs></defs>
    <g id="Artboard-Copy" stroke="none" stroke-width="1" fill="none" fill-rule="evenodd" transform="translate(0.000000, -1.000000)">
        <g id="sports-icons/fieldHockey" fill-rule="nonzero">
            <ellipse id="Oval" fill="#E2D752" transform="translate(8.523134, 13.533275) rotate(-78.983336) translate(-8.523134, -13.533275) " cx="8.5231343" cy="13.5332746" rx="1.30257736" ry="1.3443251"></ellipse>
            <path d="M9.80087251,13.7905833 C9.66328406,14.5193599 8.97962469,14.9950815 8.27348005,14.8530833 C7.7338335,14.744789 7.33712904,14.3066389 7.24183432,13.7811904 C7.41529213,14.095023 7.71563114,14.3320549 8.08610277,14.4066454 C8.76173169,14.5425659 9.41594606,14.0872877 9.54764551,13.3900048 C9.60064651,13.1082185 9.56049424,12.8302999 9.4491386,12.5899528 C9.74091179,12.8943924 9.88599533,13.3380677 9.80087251,13.7905833 Z" id="Shape" fill="#000000" opacity="0.18"></path>
            <path d="M15.2514097,11.9042728 C16.2129228,13.0004767 15.3841799,14.5121772 14.3075636,14.7867806 C13.8755252,14.8967325 13.4033344,14.8077765 12.9905691,14.4127232 L12.0799155,13.5038243 L12.9568412,12.5667468 L13.4852451,13.0933004 C14.1539143,13.7767702 14.7722593,13.0883277 14.1983494,12.4893937 C13.7095624,11.9849411 14.5361639,11.0837775 15.2514097,11.9042728 Z" id="Shape" fill="#C1B56F"></path>
            <polygon id="Shape" fill="#FFFFFF" points="8.37519914 7.99959915 12.9568412 12.5667468 12.0799155 13.5038243 7.4982735 8.93612411 7.08229595 8.29519847 7.08229595 8.29409343 7.09086177 8.2858056 7.09086177 8.2858056 7.42707013 7.92721876 7.57964877 7.76422474 7.76649068 7.56531678"></polygon>
            <path d="M7.7632785,7.56752687 L7.09086177,8.2858056 L7.09032641,8.28525308 L7.08979104,8.28470055 C7.05285095,8.24270888 7.01591086,8.20126972 6.9784354,8.15927804 C6.97790004,8.15872552 6.97790004,8.15817299 6.97736468,8.15817299 C5.22993776,6.18732666 3.21161684,4.13857471 0.988787003,2.03070289 L1.49363492,1.49144132 C3.61206884,3.7109226 5.66572376,5.72210305 7.63479123,7.4559174 C7.63532659,7.45646993 7.63586195,7.45646993 7.63586195,7.45702245 C7.67869105,7.49348891 7.72098477,7.53050789 7.7632785,7.56752687 Z" id="Shape" fill="#ADA66F"></path>
            <path d="M1.230236,1.05605391 C1.25325664,1.07870731 1.26824682,1.10799099 1.277348,1.14058979 C1.36943055,1.30468885 1.38227928,1.32623722 1.44598755,1.4433719 L1.49363492,1.4908888 L0.986110185,2.03346551 L0.938462821,1.9859486 C0.825501093,1.920751 0.80301582,1.90970055 0.640800637,1.8207445 C0.608678819,1.81245666 0.581375273,1.79698605 0.558354637,1.77378012 C0.446463636,1.66217065 0.505889,1.41132562 0.691660183,1.21297019 C0.877431366,1.01461475 1.118345,0.944444444 1.230236,1.05605391 Z" id="Shape" fill="#141414"></path>
            <rect id="Rectangle-path" fill="#C12140" transform="translate(12.581647, 13.100400) rotate(-45.988599) translate(-12.581647, -13.100400) " x="11.9552748" y="12.6282197" width="1.26238474" height="1"></rect>
            <path d="M7.7632785,7.56752687 L7.08283131,8.29464595 L7.08229595,8.29354091 L7.09139713,8.2858056 C7.09139713,8.2858056 7.09086177,8.28525308 7.09032641,8.28470055 C7.05338631,8.24270888 7.0153755,8.19961215 6.97897077,8.15872552 L7.63639732,7.4559174 C7.67869105,7.49348891 7.72098477,7.53050789 7.7632785,7.56752687 Z" id="Shape" fill="#C12140"></path>
            <path d="M0.690589456,1.21407523 L14.3064929,14.7878857 C13.8765959,14.8956275 13.4033344,14.807224 12.9911044,14.4121707 L7.4982735,8.93612411 L7.08229595,8.29464595 L7.08122522,8.29298839 L7.08925568,8.28414803 C7.05231559,8.24215635 7.0153755,8.2007172 6.97790004,8.15872552 C6.97736468,8.15817299 6.97736468,8.15762047 6.97682931,8.15762047 C5.22940239,6.18677414 3.21108147,4.13802219 0.988251639,2.03015037 L0.985574821,2.03346551 L0.937927457,1.9859486 C0.824965729,1.920751 0.802480456,1.90970055 0.640265274,1.8207445 C0.608143455,1.81245666 0.58083991,1.79698605 0.557819273,1.77378012 C0.445928272,1.66217065 0.505353636,1.41132562 0.691124819,1.21297019 L0.690589456,1.21407523 Z" id="Shape" fill="#FFFFFF" opacity="0.36"></path>
            <path d="M1.73561928,11.7440414 C0.766611093,12.833615 1.5851821,14.3508407 2.65965692,14.6331795 C3.09116002,14.7464465 3.56388611,14.6608056 3.97879293,14.2685149 L4.89640621,13.3667988 L4.02590493,12.4236436 L3.49428884,12.9463295 C2.82080138,13.6248267 2.20727465,12.9319639 2.78546738,12.3374502 C3.2769312,11.8357601 2.4567541,10.9285188 1.73561928,11.7440414 Z" id="Shape" fill="#C1B56F"></path>
            <polygon id="Shape" fill="#FFFFFF" points="8.63859805 7.88909473 4.02590493 12.4230911 4.89640621 13.3667988 9.50909933 8.83280248 9.92935979 8.19408693 9.92935979 8.19353441 9.92079397 8.18524658 9.92079397 8.18524658 9.58672706 7.82389712 9.43521915 7.65979806 9.24998333 7.45978506"></polygon>
            <path d="M9.25373087,7.46199515 L9.92079397,8.18524658 L9.92132933,8.18469405 L9.9218647,8.18414153 C9.95934015,8.14270237 9.99628024,8.1007107 10.0337557,8.05927154 C10.0342911,8.05871902 10.0342911,8.05816649 10.0348264,8.05816649 C11.7956374,6.10002817 13.8278778,4.06619431 16.0651625,1.97434564 L15.5640621,1.43121642 C13.430638,3.63522708 11.3630636,5.63148943 9.38221815,7.3509382 C9.38168278,7.35149073 9.38114742,7.35149073 9.38114742,7.35204325 C9.33831833,7.38850971 9.2960246,7.42552869 9.25373087,7.46199515 Z" id="Shape" fill="#ADA66F"></path>
            <path d="M15.8306732,0.998039088 C15.8076526,1.02069249 15.792127,1.04942364 15.7830258,1.08202245 C15.6898726,1.24556899 15.6770238,1.26711735 15.6122448,1.38369951 L15.5640621,1.43066389 L16.0683746,1.97710825 L16.1165574,1.93014387 C16.2300545,1.86605131 16.2525397,1.85500087 16.4152903,1.76714985 C16.4474121,1.75941454 16.4747156,1.7433914 16.4977363,1.72129052 C16.6101626,1.6107861 16.5523434,1.35883602 16.3681783,1.15937554 C16.1834778,0.958810019 15.9430996,0.886982146 15.8306732,0.998039088 Z" id="Shape" fill="#141414"></path>
            <rect id="Rectangle-path" fill="#141414" transform="translate(4.804903, 12.566981) rotate(-43.606178) translate(-4.804903, -12.566981) " x="4.33269687" y="11.9125358" width="1" height="1.30285161"></rect>
            <path d="M9.25373087,7.46199515 L9.92935979,8.19408693 L9.92989515,8.19298189 L9.92079397,8.18524658 C9.92079397,8.18524658 9.92132933,8.18469405 9.9218647,8.18414153 C9.95934015,8.14214985 9.99735097,8.09960565 10.0342911,8.05927154 L9.38168278,7.35204325 C9.33831833,7.38850971 9.2960246,7.42552869 9.25373087,7.46199515 Z" id="Shape" fill="#141414"></path>
            <path d="M16.369249,1.15992806 L2.66126301,14.6348371 C3.09062465,14.745894 3.56388611,14.6608056 3.97932829,14.2685149 L9.50909933,8.83280248 L9.92935979,8.19463945 L9.93043051,8.19298189 L9.92240006,8.18414153 C9.95987551,8.14270237 9.99681561,8.1007107 10.0342911,8.05927154 C10.0348264,8.05871902 10.0348264,8.05816649 10.0353618,8.05816649 C11.7961728,6.10002817 13.8284132,4.06619431 16.0656978,1.97434564 L16.0683746,1.97766077 L16.1165574,1.93069639 C16.2300545,1.86660383 16.2525397,1.85555339 16.4152903,1.76770237 C16.4474121,1.75996707 16.4747156,1.74394392 16.4977363,1.72184304 C16.6101626,1.61133862 16.5523434,1.35938854 16.3681783,1.15992806 L16.369249,1.15992806 Z" id="Shape" fill="#000000" opacity="0.36"></path>
        </g>
    </g>
</svg>