<svg xmlns="http://www.w3.org/2000/svg" width="17" height="17" viewBox="0 0 17 17">
  <defs>
    <radialGradient id="volleyball-02-a" cx="42.674%" cy="39.802%" r="75.999%" fx="42.674%" fy="39.802%">
      <stop offset="0%" stop-color="#FFF"/>
      <stop offset="43.27%" stop-color="#D6D6E0"/>
      <stop offset="49.78%" stop-color="#C8C8D1"/>
      <stop offset="62.17%" stop-color="#A3A3AB"/>
      <stop offset="64.94%" stop-color="#9A9AA2"/>
      <stop offset="89.49%" stop-color="#D1D1D1"/>
    </radialGradient>
    <radialGradient id="volleyball-02-b" cx="90.689%" cy="20.557%" r="162.082%" fx="90.689%" fy="20.557%" gradientTransform="matrix(1 0 0 .6138 0 .08)">
      <stop offset="7.8%" stop-color="#67C8F0"/>
      <stop offset="15.32%" stop-color="#63C1EC"/>
      <stop offset="26.19%" stop-color="#59AEE2"/>
      <stop offset="39.05%" stop-color="#478FD0"/>
      <stop offset="41.79%" stop-color="#4387CC"/>
      <stop offset="48.84%" stop-color="#3678C1"/>
      <stop offset="62.26%" stop-color="#1352A3"/>
      <stop offset="64.94%" stop-color="#0B4A9C"/>
      <stop offset="87.4%" stop-color="#29579C"/>
    </radialGradient>
    <radialGradient id="volleyball-02-c" cx="1.337%" cy="9.471%" r="135.04%" fx="1.337%" fy="9.471%" gradientTransform="matrix(1 0 0 .80788 0 .018)">
      <stop offset="7.8%" stop-color="#FFED0D"/>
      <stop offset="17.04%" stop-color="#FEE60B"/>
      <stop offset="30.35%" stop-color="#FAD306"/>
      <stop offset="43.27%" stop-color="#F5BA00"/>
      <stop offset="50.36%" stop-color="#E6AC00"/>
      <stop offset="63.84%" stop-color="#C08700"/>
      <stop offset="64.94%" stop-color="#BD8400"/>
      <stop offset="87.4%" stop-color="#DB9100"/>
    </radialGradient>
  </defs>
  <g fill="none">
    <circle cx="8.424" cy="8.424" r="8.424" fill="url(#volleyball-02-a)"/>
    <path fill="url(#volleyball-02-b)" d="M0,8.26211506 C0,12.8582425 3.70671294,16.6022789 8.32066332,16.6539208 C7.72447872,16.4989952 7.33566268,15.8792926 7.02460985,14.381678 C6.71355701,12.7807797 7.18013626,7.41002402 7.25789947,7.04853084 C7.33566268,6.68703767 7.28382054,6.66121673 7.2319784,6.60957485 C6.22105669,6.3255445 2.64394909,3.69180854 1.81447487,3.09792691 C0.673947808,4.54389959 0,6.3255445 0,8.26211506 Z"/>
    <path fill="url(#volleyball-02-c)" d="M16.8486952,8.26211506 C16.8486952,7.15181461 16.6154056,6.09315604 16.2265895,5.11196029 C15.9155367,4.77628806 15.4489574,4.44061583 14.7490886,4.44061583 C13.401193,4.44061583 11.3275074,4.82792994 7.33566268,6.66121673 C7.28382054,7.04853084 7.02460985,9.16584799 7.02460985,10.3536113 C6.99868878,11.5671955 6.81724129,14.6398874 7.46526803,15.7501879 C7.80224193,16.3440695 8.06145263,16.576458 8.34658439,16.6539208 C8.37250546,16.6539208 8.4243476,16.6539208 8.45026867,16.6539208 C13.0642191,16.6797418 16.8486952,12.9098844 16.8486952,8.26211506 Z"/>
    <path fill="#000" d="M15.517748,12.3336104 C15.1703347,12.668012 14.7484757,12.9766903 14.3514319,13.2339223 C11.4976797,14.9059302 7.89947047,14.5972519 7.25427433,14.5458055 C7.20464386,14.1856807 7.17982862,13.7741095 7.15501338,13.2853687 C7.13019815,12.4879496 7.13019815,11.6133608 7.17982862,10.7902184 C7.82502476,10.7902184 10.6787769,10.6616024 13.3588224,9.6069513 C15.5673785,8.73236254 16.1877594,8.62946974 16.4855422,8.70663934 C16.4855422,8.65519294 16.4855422,8.60374654 16.4855422,8.55230015 C16.1133137,8.44940735 15.4681175,8.55230015 13.2843767,9.40116571 C10.6787769,10.4300937 7.87465523,10.5329865 7.20464386,10.5587097 C7.27908956,8.75808574 7.45279622,7.18897061 7.47761145,6.88029223 C7.84984,6.70022983 10.2072874,5.59413229 11.8947235,5.07966831 C13.2347463,4.66809713 14.67403,4.48803474 15.4929328,4.95105232 C15.6418242,5.02822191 15.8651613,5.2854539 16.0140527,5.51696269 C15.9644223,5.4140699 15.939607,5.2854539 15.8899765,5.18256111 C15.7907156,5.02822191 15.6418242,4.89960592 15.4929328,4.79671312 C15.2944109,4.66809713 15.0462585,4.56520434 14.7732909,4.51375794 C14.6492147,4.25652595 14.0536491,3.04753561 12.5151044,1.65848287 C11.4480493,0.706724518 10.3561789,0.243706939 9.09060181,0.0379213492 C8.91689516,0.0121981504 8.71837327,0.0121981504 8.54466661,0.0121981504 C10.0087656,0.192260542 11.1998969,0.706724518 12.3910282,1.78709887 C13.8054967,3.04753561 14.4258776,4.17935635 14.5995843,4.51375794 C13.8054967,4.41086514 12.8128872,4.59092753 11.845093,4.89960592 C11.6217559,4.97677552 11.3984188,5.02822191 11.1750817,5.13111471 C11.001375,4.89960592 9.93431984,3.53627638 7.77539429,2.04433085 C6.26166488,1.0154029 5.34350114,0.886786909 4.84719641,0.938233307 C4.7727507,0.963956505 4.72312023,0.989679704 4.64867452,1.0411261 C5.0457183,1.0154029 6.03832775,1.1182957 7.65131811,2.22439325 C9.63653701,3.58772278 10.7035922,4.87388272 10.9765598,5.2082843 C9.41319988,5.77419468 7.70094858,6.57161384 7.40316575,6.72595303 C5.88943633,5.87708747 4.52459834,4.95105232 3.55680413,4.23080275 C2.88679275,3.74206197 2.39048802,3.35621399 2.19196613,3.1761516 C2.1671509,3.2018748 2.14233566,3.2533212 2.11752043,3.2790444 C2.1671509,3.33049079 2.26641184,3.45910679 2.4401185,3.61344598 C2.19196613,4.02501716 0.90157385,6.23721226 1.00083479,9.5297817 C1.05046527,10.6358792 1.39787857,12.2049944 1.8941833,13.2596455 C1.94381377,13.3368151 2.01825948,13.4139847 2.06788995,13.4911543 C1.69566141,12.5908424 1.44750905,11.510468 1.32343287,10.867388 C0.70305196,6.90601542 2.29122708,4.12790996 2.53937944,3.71633878 C2.73790133,3.89640117 3.03568417,4.12790996 3.43272795,4.41086514 C3.68088031,4.59092753 3.95384791,4.77098993 4.22681551,4.97677552 C4.05310885,5.3883467 3.20939082,7.54909539 3.15976035,10.8416648 C3.11012988,13.7998327 4.00347838,15.2146086 4.94645736,15.9348582 C5.07053354,15.9863046 5.19460972,16.0634742 5.3186859,16.1149206 C4.32607645,15.4718406 3.30865177,14.0570647 3.35828224,10.8416648 C3.40791271,7.67771139 4.20200027,5.56840909 4.40052216,5.07966831 C5.24424019,5.64557868 6.21203441,6.31438185 7.27908956,6.90601542 C7.22945909,7.4204794 6.88204578,10.738772 6.98130673,13.3368151 C7.05575244,15.6004566 7.45279622,16.552215 8.27169901,16.7837238 C8.32132949,16.7837238 8.3957752,16.7837238 8.44540567,16.7837238 C8.51985138,16.7837238 8.59429709,16.7837238 8.66874279,16.7837238 C7.97391618,16.7322774 7.50242669,16.1406438 7.3039048,14.8030375 C7.55205716,14.8287607 8.04836189,14.8287607 8.71837327,14.8287607 C9.8350589,14.8287607 11.3736035,14.7001447 12.788072,14.2114039 C13.731051,13.8770023 14.6492147,13.4139847 15.3688566,12.668012 C15.4184871,12.4879496 15.4681175,12.4365032 15.517748,12.3336104 Z" opacity=".7"/>
  </g>
</svg>
