<svg xmlns="http://www.w3.org/2000/svg" width="17" height="17" viewBox="0 0 17 17">
  <g fill="none" fill-rule="evenodd">
    <path fill="#DADADA" fill-rule="nonzero" d="M13.8154254,11.8290192 C14.1145231,11.4839064 14.4136209,11.1387936 14.643696,10.7936808 C14.7817412,10.8857109 14.8967788,10.9547335 14.9888088,11.023756 C15.218884,10.7016507 15.4259517,10.402553 15.6100118,10.0804477 C15.4949742,10.0114252 15.3799366,9.94240263 15.2418915,9.87338007 C15.4259517,9.55127481 15.6100118,9.22916955 15.7250494,8.9300718 C15.8630945,8.99909436 16.0011397,9.06811691 16.1161772,9.11413195 C16.2312148,8.83804173 16.3462524,8.5619515 16.415275,8.30886879 C16.3002374,8.26285376 16.1621923,8.21683872 16.0241472,8.14781616 C16.0931697,7.87172594 16.1391848,7.61864323 16.1391848,7.38856804 C16.3002374,7.43458308 16.4382825,7.48059812 16.5533201,7.52661315 C16.5533201,7.31954549 16.5533201,7.11247782 16.5073051,6.92841767 C16.36926,6.88240263 16.2312148,6.85939511 16.0701622,6.79037255 C16.0011397,6.6063124 15.9091096,6.42225225 15.7710645,6.30721466 C15.9321171,6.3532297 16.1161772,6.39924473 16.2542224,6.42225225 C16.1621923,6.28420714 15.9551246,6.21518458 15.8630945,6.19217706 C14.597681,5.91608684 9.19091409,4.23653797 6.82113965,2.30390639 L6.68309454,2.34992143 C7.14324492,2.74104924 6.77512461,3.82240263 5.73978627,4.90375601 C4.65843289,6.07713947 3.2089592,6.81338007 2.51873364,6.53728985 C2.40369604,6.49127481 2.19662837,6.39924473 2.12760582,6.30721466 C3.83016221,8.86104924 5.00354567,14.5439064 5.1645983,15.855335 C5.1645983,15.947365 5.21061334,16.1314252 5.32565093,16.2464628 C5.30264341,16.1084177 5.27963589,15.8783425 5.25662837,15.7172898 C5.37166597,15.8783425 5.50971108,15.9933801 5.69377123,16.0854101 C5.71677875,16.2464628 5.76279379,16.4075154 5.76279379,16.5455605 C5.94685394,16.6145831 6.13091409,16.6605981 6.36098928,16.6836056 C6.33798176,16.5455605 6.31497424,16.4075154 6.2689592,16.2694703 C6.49903439,16.2924778 6.77512461,16.2924778 7.05121484,16.2464628 C7.09722988,16.4075154 7.14324492,16.522553 7.16625243,16.6605981 C7.41933514,16.6145831 7.71843289,16.5455605 7.99452311,16.4535304 C7.94850807,16.3384929 7.90249304,16.2004477 7.856478,16.0624026 C8.17858326,15.9703726 8.50068852,15.8323274 8.84580131,15.6712748 C8.91482386,15.8093199 8.9608389,15.947365 9.00685394,16.0624026 C9.3289592,15.9243575 9.65106446,15.7402974 9.97316973,15.5562372 C9.90414717,15.4411996 9.85813213,15.326162 9.76610206,15.1881169 C10.1112148,14.9810492 10.4793351,14.7509741 10.8474554,14.4978914 C10.9394855,14.6359365 11.0085081,14.7509741 11.0775306,14.8430041 C11.4226434,14.6129289 11.7447487,14.3598462 12.0898615,14.083756 C12.0208389,13.9917259 11.9288088,13.8766883 11.8367788,13.7616507 C12.1818915,13.462553 12.5500118,13.1634553 12.8951246,12.8183425 C13.0101622,12.9333801 13.1021923,13.0254101 13.1942224,13.1174402 C13.3782825,12.9333801 13.5623427,12.7493199 13.7464028,12.5652598 C13.8844479,12.4272147 13.9994855,12.2891695 14.1145231,12.1511244 C14.0455006,12.0360868 13.930463,11.9440568 13.8154254,11.8290192 Z"/>
    <path fill="#000" d="M8.13256822 7.84871842C7.94850807 8.03277857 7.7414404 8.21683872 7.53437273 8.37789135 7.32730507 8.14781616 7.14324492 7.89473346 6.95918477 7.66465827 7.14324492 7.50360564 7.32730507 7.342553 7.51136522 7.18150037 7.69542537 7.41157556 7.92550055 7.61864323 8.13256822 7.84871842zM7.97151559 6.69834248C8.13256822 6.51428233 8.27061334 6.33022218 8.40865845 6.14616203 8.63873364 6.33022218 8.86880883 6.53728985 9.12189153 6.72135 8.98384642 6.90541015 8.82279379 7.11247782 8.63873364 7.31954549 8.40865845 7.11247782 8.17858326 6.90541015 7.97151559 6.69834248zM6.98219228 8.81503421C6.77512461 8.95307932 6.56805695 9.09112443 6.36098928 9.20616203 6.19993664 8.95307932 6.03888401 8.67698909 5.87783138 8.44691391 6.06189153 8.33187631 6.24595168 8.21683872 6.43001183 8.07879361 6.61407198 8.30886879 6.79813213 8.5619515 6.98219228 8.81503421zM6.47602687 7.11247782C6.29196672 6.88240263 6.10790657 6.67533496 5.94685394 6.49127481 6.10790657 6.3532297 6.2689592 6.21518458 6.43001183 6.05413195 6.61407198 6.2381921 6.79813213 6.44525977 7.0051998 6.65232744 6.82113965 6.81338007 6.66008702 6.9744327 6.47602687 7.11247782zM6.01587649 7.48059812C5.83181634 7.59563571 5.67076371 7.71067331 5.48670356 7.8257109 5.32565093 7.59563571 5.1645983 7.36556052 5.02655319 7.15849285 5.18760582 7.06646278 5.34865845 6.95142518 5.50971108 6.83638759 5.67076371 7.04345526 5.83181634 7.25052293 6.01587649 7.48059812zM5.83181634 9.48225225C5.64775619 9.57428233 5.44068852 9.64330488 5.27963589 9.71232744 5.14159078 9.43623721 5.00354567 9.16014699 4.86550055 8.90706428 5.02655319 8.86104924 5.21061334 8.79202669 5.37166597 8.69999661 5.5327186 8.95307932 5.69377123 9.20616203 5.83181634 9.48225225zM5.02655319 8.07879361C4.86550055 8.14781616 4.70444792 8.21683872 4.54339529 8.26285376 4.40535018 8.00977105 4.26730507 7.77969586 4.12925995 7.54962067 4.26730507 7.50360564 4.4283577 7.43458308 4.58941033 7.36556052 4.72745544 7.59563571 4.86550055 7.8257109 5.02655319 8.07879361zM4.45136522 8.99909436C4.56640281 9.25217706 4.70444792 9.52826729 4.81948552 9.80435752 4.65843289 9.82736503 4.52038777 9.82736503 4.38234266 9.82736503 4.26730507 9.55127481 4.15226747 9.27518458 4.03722988 8.99909436 4.15226747 9.02210188 4.29031258 9.02210188 4.45136522 8.99909436z"/>
    <path fill="#666" d="M5.11858326 10.5175906C5.23362086 10.7936808 5.34865845 11.0927786 5.46369604 11.3918763 5.27963589 11.4148838 5.09557574 11.4378914 4.93452311 11.4148838 4.84249304 11.1157861 4.72745544 10.8396959 4.63542537 10.5405981 4.77347048 10.5405981 4.93452311 10.5405981 5.11858326 10.5175906zM5.99286898 11.2538312C5.85482386 10.977741 5.73978627 10.6786432 5.60174116 10.402553 5.78580131 10.3335304 5.99286898 10.2645079 6.19993664 10.1724778 6.33798176 10.448568 6.49903439 10.7246583 6.6370795 11.0007485 6.43001183 11.0927786 6.19993664 11.1848086 5.99286898 11.2538312zM7.28129003 10.6786432C7.1202374 10.402553 6.95918477 10.1264628 6.79813213 9.87338007 7.0051998 9.75834248 7.23527499 9.59728985 7.44234266 9.45924473 7.62640281 9.71232744 7.81046296 9.96541015 7.99452311 10.2415004 7.7414404 10.3795455 7.51136522 10.5405981 7.28129003 10.6786432zM8.63873364 9.71232744C8.43166597 9.45924473 8.2245983 9.22916955 8.04053815 8.97608684 8.24760582 8.79202669 8.47768101 8.60796654 8.68474867 8.40089887 8.91482386 8.63097406 9.12189153 8.86104924 9.35196672 9.09112443 9.09888401 9.32119962 8.86880883 9.52826729 8.63873364 9.71232744zM9.21392161 7.84871842C9.39798176 7.64165075 9.58204191 7.43458308 9.72008702 7.22751541 9.97316973 7.41157556 10.2262524 7.61864323 10.4793351 7.80270338 10.3182825 8.03277857 10.1342224 8.26285376 9.92715469 8.49292894 9.67407198 8.26285376 9.4439968 8.05578609 9.21392161 7.84871842zM11.3766284 6.03112443C11.1005381 5.89307932 10.8244479 5.75503421 10.5483577 5.59398158 10.5943727 5.43292894 10.6173803 5.27187631 10.6173803 5.1338312 10.8934705 5.27187631 11.1695607 5.40992143 11.4456509 5.52495902 11.4686584 5.68601165 11.4456509 5.84706428 11.3766284 6.03112443zM11.2155757 4.81172594C11.3076058 4.90375601 11.3766284 5.01879361 11.3996359 5.1338312 11.1235457 5.01879361 10.8474554 4.90375601 10.5713652 4.7657109 10.5253502 4.65067331 10.4793351 4.55864323 10.3873051 4.46661315 10.6864028 4.60465827 10.962493 4.71969586 11.2155757 4.81172594zM10.3873051 6.07713947C10.6633953 6.2381921 10.916478 6.39924473 11.1925682 6.56029737 11.1005381 6.76736503 10.9855006 6.9744327 10.870463 7.18150037 10.6173803 6.99744022 10.34129 6.83638759 10.0882073 6.65232744 10.2032449 6.44525977 10.3182825 6.26119962 10.3873051 6.07713947z"/>
    <path fill="#000" d="M9.90414717 5.22586127C9.65106446 5.06480864 9.37497424 4.92676353 9.12189153 4.7657109 9.16790657 4.62766579 9.19091409 4.48962067 9.19091409 4.37458308 9.4439968 4.51262819 9.6970795 4.65067331 9.97316973 4.78871842 9.95016221 4.92676353 9.92715469 5.06480864 9.90414717 5.22586127zM9.76610206 4.19052293C9.83512461 4.25954549 9.90414717 4.35157556 9.92715469 4.46661315 9.65106446 4.32856804 9.39798176 4.21353045 9.14489905 4.07548534 9.12189153 3.98345526 9.07587649 3.89142518 9.00685394 3.82240263 9.23692913 3.93744022 9.49001183 4.07548534 9.76610206 4.19052293zM8.98384642 5.17984624C9.23692913 5.34089887 9.49001183 5.5019515 9.74309454 5.66300413 9.67407198 5.82405676 9.58204191 6.00811691 9.46700431 6.19217706 9.21392161 6.00811691 8.9608389 5.84706428 8.73076371 5.66300413 8.82279379 5.5019515 8.91482386 5.34089887 8.98384642 5.17984624zM8.52369604 4.3975906C8.29362086 4.23653797 8.06354567 4.09849285 7.856478 3.93744022 7.87948552 3.82240263 7.90249304 3.68435752 7.90249304 3.59232744 8.1095607 3.73037255 8.33963589 3.89142518 8.56971108 4.0294703 8.56971108 4.14450789 8.54670356 4.25954549 8.52369604 4.3975906zM8.40865845 3.50029737C8.47768101 3.56931992 8.52369604 3.63834248 8.54670356 3.73037255 8.31662837 3.59232744 8.08655319 3.45428233 7.87948552 3.31623721 7.856478 3.22420714 7.81046296 3.15518458 7.7414404 3.08616203 7.94850807 3.24721466 8.17858326 3.36225225 8.40865845 3.50029737zM7.71843289 4.30556052C7.92550055 4.46661315 8.15557574 4.62766579 8.38565093 4.78871842 8.31662837 4.92676353 8.24760582 5.08781616 8.13256822 5.24886879 7.90249304 5.06480864 7.69542537 4.90375601 7.4883577 4.74270338 7.60339529 4.58165075 7.67241785 4.44360564 7.71843289 4.30556052zM7.25828251 2.76405676C7.32730507 2.83307932 7.35031258 2.90210188 7.3733201 2.97112443 7.30429755 2.9251094 7.23527499 2.87909436 7.18925995 2.83307932 7.16625243 2.74104924 7.1202374 2.67202669 7.07422236 2.62601165 7.14324492 2.67202669 7.21226747 2.71804173 7.25828251 2.76405676zM7.41933514 3.24721466C7.41933514 3.33924473 7.39632762 3.45428233 7.3733201 3.59232744 7.30429755 3.5463124 7.23527499 3.47728985 7.18925995 3.43127481 7.21226747 3.31623721 7.23527499 3.20119962 7.23527499 3.10916955 7.30429755 3.13217706 7.35031258 3.1781921 7.41933514 3.24721466zM7.05121484 3.75338007C7.1202374 3.79939511 7.16625243 3.86841767 7.23527499 3.9144327 7.16625243 4.05247782 7.09722988 4.19052293 7.02820732 4.32856804 6.95918477 4.282553 6.91316973 4.21353045 6.84414717 4.16751541 6.93617725 4.0294703 7.0051998 3.89142518 7.05121484 3.75338007zM7.23527499 5.15683872C7.44234266 5.34089887 7.64941033 5.5019515 7.856478 5.68601165 7.7414404 5.84706428 7.60339529 6.03112443 7.44234266 6.19217706 7.23527499 5.9851094 7.02820732 5.80104924 6.84414717 5.61698909 6.98219228 5.47894398 7.1202374 5.31789135 7.23527499 5.15683872z"/>
    <path fill="#FFF" d="M6.59106446 4.55864323C6.66008702 4.60465827 6.70610206 4.67368082 6.77512461 4.74270338 6.66008702 4.90375601 6.54504943 5.04180112 6.40700431 5.20285376 6.33798176 5.1338312 6.29196672 5.08781616 6.22294416 5.01879361 6.36098928 4.85774097 6.47602687 4.71969586 6.59106446 4.55864323zM5.83181634 5.40992143C5.87783138 5.47894398 5.94685394 5.52495902 5.99286898 5.59398158 5.83181634 5.73202669 5.69377123 5.8700718 5.5327186 6.00811691 5.48670356 5.93909436 5.41768101 5.8700718 5.37166597 5.82405676 5.5327186 5.70901917 5.67076371 5.57097406 5.83181634 5.40992143zM4.95753063 6.14616203C5.00354567 6.21518458 5.07256822 6.28420714 5.11858326 6.33022218 4.95753063 6.44525977 4.796478 6.53728985 4.63542537 6.62931992 4.58941033 6.56029737 4.54339529 6.49127481 4.47437273 6.42225225 4.63542537 6.3532297 4.796478 6.26119962 4.95753063 6.14616203zM4.08324492 6.67533496C4.12925995 6.74435752 4.17527499 6.81338007 4.22129003 6.88240263 4.0602374 6.95142518 3.92219228 7.02044774 3.78414717 7.04345526 3.73813213 6.9744327 3.6921171 6.90541015 3.64610206 6.83638759 3.78414717 6.79037255 3.92219228 6.74435752 4.08324492 6.67533496z"/>
    <path fill="#000" fill-rule="nonzero" d="M3.76113965,7.64165075 C3.89918477,7.87172594 4.01422236,8.10180112 4.15226747,8.35488383 C3.99121484,8.37789135 3.87617725,8.37789135 3.76113965,8.37789135 C3.64610206,8.12480864 3.53106446,7.89473346 3.39301935,7.66465827 C3.50805695,7.66465827 3.62309454,7.66465827 3.76113965,7.64165075 Z"/>
    <path fill="#FFF" d="M3.30098928 6.92841767C3.34700431 6.99744022 3.39301935 7.06646278 3.43903439 7.13548534 3.3239968 7.15849285 3.2089592 7.15849285 3.09392161 7.15849285 3.04790657 7.0894703 3.00189153 7.02044774 2.95587649 6.95142518 3.04790657 6.95142518 3.16294416 6.95142518 3.30098928 6.92841767zM2.63377123 6.90541015C2.58775619 6.83638759 2.54174116 6.76736503 2.51873364 6.69834248 2.56474867 6.76736503 2.63377123 6.81338007 2.70279379 6.85939511 2.74880883 6.92841767 2.79482386 6.99744022 2.8408389 7.06646278 2.74880883 7.02044774 2.67978627 6.9744327 2.63377123 6.90541015z"/>
    <path fill="#000" d="M3.25497424 8.12480864C3.13993664 7.87172594 3.04790657 7.64165075 2.93286898 7.43458308 2.97888401 7.50360564 3.04790657 7.54962067 3.13993664 7.59563571 3.25497424 7.8257109 3.37001183 8.05578609 3.48504943 8.30886879 3.37001183 8.26285376 3.30098928 8.1938312 3.25497424 8.12480864zM3.78414717 9.52826729C3.6921171 9.25217706 3.60008702 8.99909436 3.48504943 8.72300413 3.55407198 8.79202669 3.62309454 8.86104924 3.71512461 8.90706428 3.83016221 9.16014699 3.92219228 9.43623721 4.01422236 9.71232744 3.9451998 9.68931992 3.85316973 9.62029737 3.78414717 9.52826729z"/>
    <path fill="#666" d="M4.26730507,11.0467635 C4.19828251,10.7706733 4.10625243,10.4945831 4.01422236,10.1954853 C4.08324492,10.2875154 4.17527499,10.356538 4.29031258,10.4255605 C4.38234266,10.7016507 4.47437273,11.0007485 4.56640281,11.2768387 C4.4283577,11.2308237 4.33632762,11.1618011 4.26730507,11.0467635 Z"/>
    <path fill="#D0021B" fill-rule="nonzero" d="M1.96655319,1.38360564 C2.56474867,0.854432704 4.33632762,-0.249928199 6.15392161,0.670372553 C6.86715469,1.06150037 7.53437273,1.84375601 7.58038777,2.11984624 C7.62640281,2.39593646 8.1095607,3.61533496 6.13091409,5.57097406 C4.26730507,7.38856804 2.63377123,7.38856804 2.21963589,7.27353045 C1.80550055,7.15849285 1.48339529,6.85939511 0.954222359,6.16916955 C0.448056946,5.47894398 -0.2191611,3.31623721 1.96655319,1.38360564 Z"/>
    <path fill="#990013" fill-rule="nonzero" d="M7.58038777,2.14285376 C7.55738025,2.00480864 7.3733201,1.75172594 7.14324492,1.49864323 C7.35031258,1.91277857 7.53437273,3.68435752 5.34865845,5.43292894 C3.09392161,7.25052293 1.69046296,6.90541015 1.55241785,6.83638759 C1.55241785,6.83638759 1.55241785,6.83638759 1.55241785,6.83638759 C1.78249304,7.06646278 2.01256822,7.20450789 2.24264341,7.27353045 C2.65677875,7.38856804 4.29031258,7.38856804 6.15392161,5.57097406 C8.1095607,3.61533496 7.62640281,2.41894398 7.58038777,2.14285376 Z"/>
  </g>
</svg>
