<svg xmlns="http://www.w3.org/2000/svg" width="17" height="17" viewBox="0 0 17 17">
  <g fill="none" transform="translate(.5)">
    <circle cx="4.89" cy="11.448" r="4.682" fill="#FFF" stroke="#979797" stroke-width=".1"/>
    <path fill="#666" d="M5.54366197,10.2985915 C6.78309859,9.91549296 8.18028169,9.8028169 8.18028169,9.8028169 C8.18028169,9.8028169 9.03661972,9.55492958 7.95492958,9.62253521 C6.87323944,9.71267606 5.45352113,10.0957746 5.45352113,10.0957746 C5.45352113,10.0957746 4.30422535,10.6816901 5.54366197,10.2985915 Z M2.16338028,10.1859155 C2.16338028,10.1859155 1.48732394,9.93802817 0.676056338,9.98309859 C0.54084507,10.0507042 0.653521127,10.1408451 0.653521127,10.1408451 C0.653521127,10.1408451 1.96056338,10.1859155 2.16338028,10.456338 C2.34366197,10.7042254 2.16338028,10.1859155 2.16338028,10.1859155 Z M3.92112676,8.96901408 C3.92112676,8.78873239 3.96619718,7.66197183 4.23661972,7.25633803 C4.50704225,6.82816901 4.07887324,7.21126761 4.07887324,7.21126761 C4.07887324,7.21126761 3.69577465,7.93239437 3.76338028,9.03661972 C3.94366197,9.10422535 3.92112676,9.10422535 3.92112676,8.96901408 Z M2.63661972,12.2366197 C2.63661972,12.2366197 2.14084507,13.2056338 2.14084507,14.2647887 C2.23098592,14.6253521 2.32112676,14.3098592 2.32112676,14.3098592 C2.32112676,14.3098592 2.34366197,13.228169 2.81690141,12.371831 C3.26760563,11.5830986 2.63661972,12.2366197 2.63661972,12.2366197 Z M5.04788732,12.2140845 C4.57464789,11.2676056 4.82253521,12.2591549 4.82253521,12.2591549 C4.82253521,12.2591549 5.58873239,13.5661972 6.69295775,14.1070423 C6.91830986,14.084507 6.8056338,14.0169014 6.8056338,14.0169014 C6.8056338,14.0169014 5.52112676,13.1605634 5.04788732,12.2140845 Z M8.72112676,11.1323944 C8.81126761,11.4704225 8.51830986,12.9126761 8.04507042,13.4535211 C8.15774648,13.5211268 8.15774648,13.5211268 8.15774648,13.5211268 C8.15774648,13.5211268 8.85633803,12.6422535 8.85633803,11.2450704 C8.83380282,10.771831 8.69859155,11.1098592 8.72112676,11.1323944 Z M6.03943662,15.4816901 C6.03943662,15.4816901 4.64225352,15.7070423 3.58309859,15.3690141 C3.47042254,15.4366197 3.51549296,15.5267606 3.51549296,15.5267606 C3.51549296,15.5267606 4.84507042,15.9549296 6.21971831,15.5943662 C6.67042254,15.3690141 6.03943662,15.4816901 6.03943662,15.4816901 Z M0.36056338,10.9971831 C0.36056338,10.9971831 0.338028169,10.7492958 0.270422535,11.1098592 C0.202816901,13.0478873 1.17183099,13.971831 1.17183099,13.971831 C1.17183099,13.971831 1.44225352,14.1521127 1.35211268,13.971831 C0.292957746,13.0478873 0.36056338,10.9971831 0.36056338,10.9971831 Z M7.68450704,8.56338028 C7.68450704,8.56338028 8.15774648,8.92394366 7.7971831,8.51830986 C7.07605634,7.36901408 6.03943662,6.96338028 5.92676056,6.94084507 C5.81408451,6.91830986 5.45352113,6.87323944 5.61126761,6.96338028 C6.89577465,7.23380282 7.68450704,8.56338028 7.68450704,8.56338028 Z"/>
    <path fill="#79272D" d="M5.72394366,9.98309859 C5.25070423,9.6 4.12394366,8.96901408 3.94366197,8.90140845 C3.83098592,8.85633803 3.83098592,8.83380282 3.67323944,8.90140845 C2.9971831,9.1943662 2.09577465,9.96056338 1.98309859,10.0732394 C1.87042254,10.1859155 1.87042254,10.1633803 1.91549296,10.343662 C2.02816901,11.0422535 2.45633803,12.056338 2.54647887,12.2366197 C2.63661972,12.4169014 2.63661972,12.4169014 2.77183099,12.4394366 C3.01971831,12.4619718 4.64225352,12.484507 4.89014085,12.4619718 C5.11549296,12.4394366 5.09295775,12.4169014 5.13802817,12.2591549 C5.2056338,12.0112676 5.76901408,10.343662 5.83661972,10.2309859 C5.83661972,10.1408451 5.85915493,10.0732394 5.72394366,9.98309859 Z M3.69577465,15.3915493 C3.01971831,15.0309859 2.38873239,14.2197183 2.34366197,14.1295775 C2.29859155,14.0619718 2.27605634,14.0394366 2.09577465,14.0169014 C1.91549296,13.9943662 1.32957746,13.8591549 1.26197183,13.8366197 C1.1943662,13.8140845 1.14929577,13.7239437 1.10422535,13.9042254 C1.10422535,13.9943662 1.12676056,14.1521127 1.14929577,14.2873239 C1.53239437,14.8957746 2.38873239,15.571831 3.01971831,15.7746479 C3.33521127,15.7521127 3.56056338,15.5943662 3.62816901,15.5492958 C3.74084507,15.4816901 3.78591549,15.4591549 3.69577465,15.3915493 Z M1.03661972,8.72112676 C0.518309859,9.26197183 0.0901408451,10.4788732 0.18028169,11.3802817 C0.270422535,11.3577465 0.36056338,11.3577465 0.36056338,11.2901408 C0.383098592,10.9521127 0.721126761,10.2760563 0.811267606,10.1859155 C0.878873239,10.0957746 0.878873239,10.0732394 0.878873239,9.96056338 C0.878873239,9.71267606 1.10422535,8.81126761 1.14929577,8.69859155 C1.12676056,8.72112676 1.10422535,8.72112676 1.03661972,8.72112676 Z M8.15774648,13.3183099 C7.93239437,13.4760563 6.98591549,13.8591549 6.78309859,13.9042254 C6.58028169,13.9492958 6.58028169,13.9267606 6.53521127,14.1521127 C6.42253521,14.6253521 6.01690141,15.3239437 5.90422535,15.4591549 C5.7915493,15.5943662 5.7915493,15.6169014 5.85915493,15.684507 C5.90422535,15.7295775 6.10704225,15.8873239 6.42253521,15.9098592 C6.49014085,15.9098592 6.6028169,15.9098592 6.67042254,15.8873239 C7.34647887,15.684507 8.2028169,15.0535211 8.51830986,14.5352113 C8.56338028,14.0619718 8.42816901,13.5211268 8.36056338,13.4309859 C8.29295775,13.2957746 8.27042254,13.2507042 8.15774648,13.3183099 Z M4.01126761,7.36901408 C4.16901408,7.3915493 4.12394366,7.34647887 4.34929577,7.30140845 C4.57464789,7.25633803 5.13802817,7.05352113 5.83661972,7.03098592 C5.9943662,7.0084507 6.03943662,6.98591549 5.83661972,6.82816901 C5.65633803,6.76056338 5.2056338,6.71549296 4.86760563,6.71549296 C4.01126761,6.71549296 2.97464789,7.03098592 2.54647887,7.3915493 C2.68169014,7.36901408 3.58309859,7.32394366 4.01126761,7.36901408 Z M8.42816901,8.29295775 C8.42816901,8.31549296 8.42816901,8.31549296 8.42816901,8.29295775 C8.31549296,8.33802817 7.88732394,8.36056338 7.75211268,8.36056338 C7.63943662,8.36056338 7.5943662,8.38309859 7.5943662,8.47323944 C7.5943662,8.58591549 7.52676056,9.50985915 7.50422535,9.62253521 C7.48169014,9.73521127 7.50422535,9.78028169 7.61690141,9.91549296 C7.72957746,10.028169 8.49577465,11.0873239 8.63098592,11.2676056 C8.74366197,11.4478873 8.78873239,11.3802817 8.87887324,11.3352113 C8.94647887,11.2676056 9.35211268,11.0422535 9.6,11.0422535 C9.62253521,10.1408451 9.05915493,8.94647887 8.42816901,8.29295775 Z"/>
    <path fill="#574008" d="M10.1183099,6.06197183 C10.2535211,6.33239437 10.4112676,6.55774648 10.7492958,6.64788732 C10.7943662,6.67042254 10.7943662,6.69295775 10.7943662,6.73802817 C10.7492958,7.05352113 10.8619718,7.32394366 11.0197183,7.57183099 C11.0647887,7.63943662 11.1549296,7.70704225 11.2225352,7.75211268 C11.2676056,7.77464789 11.2676056,7.81971831 11.2676056,7.88732394 C11.1774648,8.33802817 11.3126761,8.69859155 11.5830986,9.03661972 C11.6056338,9.05915493 11.628169,9.05915493 11.6056338,9.10422535 C11.3577465,9.48732394 11.5380282,9.89295775 11.6732394,10.2760563 C11.7183099,10.3661972 11.7183099,10.4112676 11.6957746,10.5014085 C11.515493,11.1549296 11.8535211,11.4704225 11.9661972,11.6732394 C11.9887324,11.7183099 11.9661972,11.7183099 11.943662,11.8309859 C11.8084507,12.3042254 11.8985915,12.6197183 12.1915493,13.0478873 C12.3267606,13.2056338 12.3492958,13.228169 12.2591549,13.4535211 C12.0788732,14.1521127 12.2366197,14.4225352 12.4169014,14.715493 C12.4619718,14.7830986 12.5070423,14.9183099 12.484507,15.0084507 C12.3492958,15.4591549 12.3267606,15.8422535 12.4619718,16.2253521 L13.9492958,16.2253521 C14.1070423,15.684507 13.8816901,15.1887324 13.656338,14.9183099 C13.5661972,14.7830986 13.5211268,14.715493 13.5887324,14.6478873 C13.6112676,14.6253521 13.8816901,13.9042254 13.4084507,13.2732394 C13.2507042,13.0704225 13.2732394,13.0929577 13.3183099,12.9352113 C13.4535211,12.1239437 13.2957746,11.9887324 13.0704225,11.6732394 C13.0253521,11.6056338 13.0028169,11.4478873 13.0253521,11.3352113 C13.115493,10.8169014 13.0929577,10.5690141 12.7549296,10.1859155 C12.7098592,10.1408451 12.6647887,10.1183099 12.6647887,10.0957746 C12.8225352,9.71267606 12.6647887,9.17183099 12.5070423,8.92394366 C12.4619718,8.83380282 12.4394366,8.87887324 12.484507,8.63098592 C12.5521127,8.2028169 12.3943662,7.84225352 12.0338028,7.57183099 C11.9887324,7.52676056 11.9887324,7.48169014 11.9887324,7.41408451 C12.0112676,7.18873239 11.9661972,6.98591549 11.8535211,6.78309859 C11.7633803,6.6028169 11.628169,6.49014085 11.4253521,6.4 C11.4028169,6.4 11.3577465,6.4 11.3577465,6.33239437 C11.4028169,6.10704225 11.3352113,5.90422535 11.2,5.74647887 C10.9521127,5.83661972 10.6816901,5.88169014 10.3887324,5.92676056 C10.2985915,5.97183099 10.1859155,5.9943662 10.1183099,6.06197183 Z"/>
    <path fill="#788737" d="M15.1887324,3.4028169 C14.715493,3.2 14.2197183,2.9971831 13.7464789,2.83943662 C13.3408451,2.68169014 12.9577465,2.68169014 12.5295775,2.74929577 C12.3492958,2.77183099 12.1915493,2.77183099 11.9887324,2.81690141 C11.7859155,2.86197183 11.5830986,2.95211268 11.4253521,3.04225352 C11.4929577,2.90704225 11.5830986,2.7943662 11.6507042,2.65915493 C11.7183099,2.52394366 11.7859155,2.38873239 11.7408451,2.23098592 C11.7408451,2.18591549 11.7408451,2.18591549 11.7859155,2.16338028 C11.943662,2.14084507 12.0788732,2.09577465 12.1915493,1.96056338 C12.2140845,1.93802817 12.2140845,1.91549296 12.2140845,1.89295775 C12.1915493,1.87042254 12.1690141,1.87042254 12.1464789,1.87042254 C12.1014085,1.87042254 12.056338,1.89295775 11.9661972,1.87042254 C12.1014085,1.82535211 12.2140845,1.8028169 12.3492958,1.73521127 C12.3943662,1.71267606 12.4394366,1.71267606 12.4394366,1.66760563 C12.4394366,1.62253521 12.371831,1.64507042 12.3492958,1.57746479 C12.4169014,1.57746479 12.484507,1.57746479 12.5521127,1.57746479 C12.7323944,1.55492958 12.8676056,1.48732394 13.0253521,1.3971831 C13.0704225,1.37464789 13.0929577,1.35211268 13.0253521,1.30704225 C12.9802817,1.28450704 12.9577465,1.26197183 12.8901408,1.21690141 C12.9802817,1.21690141 13.0704225,1.21690141 13.1605634,1.21690141 C13.3183099,1.21690141 13.4309859,1.17183099 13.5661972,1.08169014 C13.5887324,1.05915493 13.6112676,1.03661972 13.6112676,1.01408451 C13.6112676,0.991549296 13.5661972,0.991549296 13.543662,0.991549296 C13.4985915,0.991549296 13.4535211,0.991549296 13.4084507,0.946478873 C13.6112676,0.946478873 13.7915493,0.923943662 13.971831,0.878873239 C14.2873239,0.788732394 14.5352113,0.585915493 14.7605634,0.315492958 C14.7830986,0.292957746 14.8056338,0.270422535 14.7830986,0.225352113 C14.7605634,0.202816901 14.7380282,0.202816901 14.6929577,0.202816901 C14.4,0.247887324 14.0619718,0.225352113 13.7690141,0.202816901 C13.115493,0.135211268 12.5070423,0.292957746 11.943662,0.54084507 C11.5830986,0.676056338 11.2225352,0.856338028 10.9295775,1.12676056 C10.8619718,1.1943662 10.771831,1.30704225 10.6816901,1.3971831 C10.6816901,1.32957746 10.6816901,1.26197183 10.7042254,1.21690141 C10.7042254,1.1943662 10.7267606,1.17183099 10.7042254,1.14929577 C10.6816901,1.12676056 10.6591549,1.14929577 10.6366197,1.17183099 C10.6140845,1.1943662 10.5690141,1.21690141 10.4788732,1.21690141 C10.6140845,1.12676056 10.7042254,1.01408451 10.771831,0.901408451 C10.7943662,0.878873239 10.8394366,0.856338028 10.7943662,0.833802817 C10.771831,0.811267606 10.7492958,0.856338028 10.7267606,0.856338028 C10.7042254,0.856338028 10.6816901,0.878873239 10.6591549,0.856338028 C10.8394366,0.766197183 10.9521127,0.608450704 11.0422535,0.428169014 C11.0873239,0.338028169 11.1098592,0.247887324 11.1098592,0.135211268 C11.1098592,0.112676056 11.1098592,0.0901408451 11.0873239,0.0676056338 C11.0647887,0.0676056338 11.0422535,0.0676056338 11.0197183,0.0901408451 C10.8169014,0.383098592 10.5239437,0.54084507 10.1859155,0.653521127 C9.73521127,0.811267606 9.37464789,1.05915493 9.05915493,1.41971831 C8.83380282,1.69014085 8.74366197,2.0056338 8.67605634,2.36619718 C8.63098592,2.61408451 8.6084507,2.86197183 8.67605634,3.10985915 C8.65352113,3.13239437 8.63098592,3.10985915 8.63098592,3.10985915 C8.47323944,2.97464789 8.31549296,2.90704225 8.13521127,2.81690141 C7.45915493,2.43380282 6.8056338,2.36619718 6.03943662,2.54647887 C5.88169014,2.5915493 5.72394366,2.61408451 5.56619718,2.68169014 C5.52112676,2.70422535 5.47605634,2.70422535 5.4084507,2.70422535 C5.38591549,2.70422535 5.34084507,2.68169014 5.31830986,2.72676056 C5.29577465,2.77183099 5.31830986,2.7943662 5.34084507,2.81690141 C5.47605634,2.97464789 5.61126761,3.04225352 5.7915493,3.08732394 C6.03943662,3.15492958 6.28732394,3.17746479 6.55774648,3.13239437 C6.51267606,3.2 6.42253521,3.22253521 6.37746479,3.26760563 C6.35492958,3.29014085 6.30985915,3.29014085 6.30985915,3.33521127 C6.30985915,3.38028169 6.35492958,3.38028169 6.37746479,3.38028169 C6.53521127,3.42535211 6.69295775,3.44788732 6.89577465,3.44788732 C6.82816901,3.51549296 6.73802817,3.51549296 6.69295775,3.53802817 C6.67042254,3.56056338 6.6028169,3.56056338 6.6028169,3.6056338 C6.6028169,3.65070423 6.67042254,3.65070423 6.69295775,3.67323944 C6.85070423,3.71830986 7.0084507,3.74084507 7.18873239,3.76338028 C7.05352113,3.8084507 6.96338028,3.78591549 6.87323944,3.8084507 C6.8056338,3.83098592 6.71549296,3.85352113 6.64788732,3.89859155 C6.62535211,3.92112676 6.6028169,3.94366197 6.62535211,3.96619718 C6.64788732,3.98873239 6.67042254,3.96619718 6.69295775,3.96619718 C6.87323944,3.92112676 7.0084507,3.94366197 7.14366197,4.05633803 C7.14366197,4.05633803 7.14366197,4.07887324 7.16619718,4.10140845 C6.94084507,4.07887324 6.73802817,4.12394366 6.53521127,4.16901408 C6.33239437,4.21408451 6.12957746,4.32676056 5.97183099,4.43943662 C5.38591549,4.89014085 4.8,5.36338028 4.50704225,6.06197183 C4.41690141,6.26478873 4.28169014,6.46760563 4.21408451,6.64788732 C4.16901408,6.73802817 4.12394366,6.82816901 4.03380282,6.87323944 C4.01126761,6.89577465 3.98873239,6.89577465 4.01126761,6.94084507 C4.01126761,6.96338028 4.03380282,6.96338028 4.05633803,6.96338028 C4.30422535,6.91830986 4.55211268,6.82816901 4.75492958,6.64788732 C4.82253521,6.58028169 4.89014085,6.46760563 4.93521127,6.37746479 C4.93521127,6.44507042 4.91267606,6.51267606 4.89014085,6.55774648 C4.86760563,6.58028169 4.84507042,6.6028169 4.86760563,6.62535211 C4.89014085,6.67042254 4.91267606,6.64788732 4.95774648,6.62535211 C5.2056338,6.53521127 5.43098592,6.37746479 5.54366197,6.10704225 C5.56619718,6.06197183 5.58873239,6.01690141 5.61126761,5.94929577 C5.61126761,5.94929577 5.61126761,5.94929577 5.63380282,5.92676056 C5.63380282,6.01690141 5.61126761,6.10704225 5.58873239,6.17464789 C5.56619718,6.1971831 5.56619718,6.21971831 5.58873239,6.24225352 C5.61126761,6.26478873 5.63380282,6.24225352 5.65633803,6.21971831 C5.81408451,6.12957746 5.94929577,6.01690141 6.06197183,5.88169014 C6.08450704,5.85915493 6.08450704,5.83661972 6.10704225,5.81408451 C6.10704225,5.90422535 6.06197183,5.9943662 6.03943662,6.08450704 C6.03943662,6.10704225 6.01690141,6.12957746 6.01690141,6.15211268 C6.03943662,6.17464789 6.06197183,6.15211268 6.08450704,6.15211268 C6.24225352,6.12957746 6.33239437,6.06197183 6.4,5.94929577 C6.55774648,5.7915493 6.64788732,5.61126761 6.71549296,5.4084507 C6.78309859,5.49859155 6.71549296,5.61126761 6.69295775,5.70140845 C6.69295775,5.74647887 6.62535211,5.83661972 6.67042254,5.88169014 C6.71549296,5.92676056 6.76056338,5.88169014 6.85070423,5.85915493 C6.87323944,5.85915493 6.91830986,5.83661972 6.98591549,5.83661972 C6.94084507,5.92676056 6.89577465,6.03943662 6.82816901,6.12957746 C6.6028169,6.55774648 6.55774648,7.0084507 6.58028169,7.45915493 C6.6028169,7.72957746 6.6028169,8.02253521 6.53521127,8.29295775 C6.49014085,8.47323944 6.4,8.6084507 6.35492958,8.76619718 C6.33239437,8.78873239 6.30985915,8.81126761 6.33239437,8.85633803 C6.35492958,8.87887324 6.4,8.87887324 6.42253521,8.85633803 C6.55774648,8.81126761 6.67042254,8.72112676 6.71549296,8.58591549 C6.73802817,8.54084507 6.76056338,8.51830986 6.76056338,8.45070423 C6.78309859,8.4056338 6.8056338,8.36056338 6.85070423,8.4056338 C6.87323944,8.42816901 6.89577465,8.42816901 6.91830986,8.4056338 C6.94084507,8.38309859 6.91830986,8.36056338 6.91830986,8.33802817 C6.89577465,8.15774648 6.91830986,8.02253521 6.98591549,7.84225352 C7.05352113,7.97746479 7.14366197,8.06760563 7.27887324,8.11267606 C7.30140845,8.11267606 7.32394366,8.13521127 7.34647887,8.11267606 C7.36901408,8.09014085 7.34647887,8.06760563 7.32394366,8.04507042 C7.25633803,7.88732394 7.27887324,7.75211268 7.32394366,7.57183099 C7.3915493,7.5943662 7.48169014,7.66197183 7.52676056,7.63943662 C7.57183099,7.5943662 7.50422535,7.50422535 7.48169014,7.43661972 C7.45915493,7.34647887 7.43661972,7.23380282 7.45915493,7.12112676 C7.52676056,7.21126761 7.61690141,7.27887324 7.68450704,7.32394366 C7.70704225,7.32394366 7.72957746,7.34647887 7.72957746,7.32394366 C7.75211268,7.30140845 7.72957746,7.27887324 7.72957746,7.27887324 C7.66197183,7.09859155 7.68450704,6.94084507 7.72957746,6.73802817 C7.77464789,6.78309859 7.81971831,6.87323944 7.88732394,6.91830986 C7.90985915,6.94084507 7.93239437,6.96338028 7.95492958,6.94084507 C7.97746479,6.91830986 7.95492958,6.89577465 7.95492958,6.87323944 C7.93239437,6.73802817 7.90985915,6.62535211 7.95492958,6.49014085 C8,6.58028169 8.02253521,6.67042254 8.11267606,6.73802817 C8.13521127,6.76056338 8.15774648,6.78309859 8.18028169,6.78309859 C8.2028169,6.76056338 8.2028169,6.73802817 8.18028169,6.71549296 C8.15774648,6.62535211 8.18028169,6.53521127 8.27042254,6.46760563 C8.29295775,6.64788732 8.29295775,6.78309859 8.31549296,6.96338028 C8.38309859,7.25633803 8.56338028,7.48169014 8.74366197,7.70704225 C8.83380282,7.84225352 8.94647887,7.93239437 9.03661972,8.02253521 C9.08169014,8.06760563 9.12676056,8.15774648 9.17183099,8.22535211 C9.17183099,8.27042254 9.1943662,8.29295775 9.23943662,8.29295775 C9.28450704,8.29295775 9.28450704,8.24788732 9.30704225,8.22535211 C9.3971831,8 9.35211268,7.7971831 9.28450704,7.5943662 C9.23943662,7.50422535 9.1943662,7.36901408 9.1943662,7.25633803 C9.28450704,7.30140845 9.37464789,7.3915493 9.48732394,7.34647887 C9.3971831,7.14366197 9.32957746,6.94084507 9.32957746,6.71549296 C9.3971831,6.76056338 9.48732394,6.8056338 9.55492958,6.85070423 C9.57746479,6.85070423 9.6,6.89577465 9.62253521,6.85070423 C9.64507042,6.82816901 9.62253521,6.8056338 9.6,6.78309859 C9.50985915,6.58028169 9.46478873,6.37746479 9.50985915,6.15211268 C9.6,6.1971831 9.66760563,6.28732394 9.75774648,6.30985915 C9.78028169,6.30985915 9.8028169,6.33239437 9.82535211,6.30985915 C9.84788732,6.28732394 9.82535211,6.26478873 9.8028169,6.24225352 C9.73521127,6.08450704 9.75774648,5.90422535 9.84788732,5.76901408 C9.87042254,5.81408451 9.87042254,5.85915493 9.89295775,5.90422535 C9.96056338,5.83661972 10.1183099,5.76901408 10.2084507,5.76901408 C10.5014085,5.74647887 10.771831,5.70140845 11.0197183,5.58873239 C10.9971831,5.54366197 10.9521127,5.49859155 10.884507,5.43098592 C10.884507,5.43098592 10.884507,5.43098592 10.8619718,5.4084507 C10.9070423,5.36338028 10.9971831,5.43098592 11.0422535,5.38591549 C11.0647887,5.34084507 11.0197183,5.29577465 11.0197183,5.18309859 C11.0873239,5.36338028 11.2225352,5.45352113 11.3352113,5.56619718 C11.3577465,5.58873239 11.3802817,5.63380282 11.4253521,5.61126761 C11.4478873,5.58873239 11.4253521,5.56619718 11.4253521,5.52112676 C11.4253521,5.49859155 11.4253521,5.49859155 11.4253521,5.47605634 C11.515493,5.65633803 11.6507042,5.76901408 11.8309859,5.88169014 C11.8535211,5.90422535 11.8985915,5.94929577 11.9211268,5.92676056 C11.9661972,5.90422535 11.9211268,5.85915493 11.9211268,5.76901408 C11.9887324,5.94929577 12.1239437,6.08450704 12.2366197,6.17464789 C12.2591549,6.1971831 12.2816901,6.21971831 12.3042254,6.1971831 C12.3267606,6.17464789 12.3267606,6.15211268 12.3042254,6.10704225 C12.2816901,6.06197183 12.2816901,5.97183099 12.3267606,5.90422535 C12.4169014,6.12957746 12.5295775,6.33239437 12.6647887,6.49014085 C12.6873239,6.51267606 12.7098592,6.53521127 12.7323944,6.55774648 C12.7549296,6.58028169 12.7549296,6.58028169 12.7774648,6.55774648 C12.8,6.53521127 12.7774648,6.53521127 12.7774648,6.51267606 C12.7323944,6.44507042 12.7098592,6.33239437 12.7323944,6.21971831 C12.8,6.35492958 12.8676056,6.44507042 12.9352113,6.53521127 C13.115493,6.85070423 13.4084507,7.05352113 13.7014085,7.21126761 C13.7239437,7.23380282 13.7690141,7.23380282 13.7915493,7.21126761 C13.8140845,7.16619718 13.7915493,7.14366197 13.7690141,7.12112676 C13.4760563,6.85070423 13.2957746,6.49014085 13.1830986,6.15211268 C13.0929577,5.83661972 12.9352113,5.49859155 12.7774648,5.2056338 C12.5295775,4.68732394 12.1239437,4.32676056 11.628169,4.07887324 C11.6056338,4.07887324 11.6056338,4.05633803 11.5830986,4.05633803 C11.6732394,4.05633803 11.7859155,4.05633803 11.8535211,4.05633803 C12.056338,4.07887324 12.2591549,4.05633803 12.4169014,3.98873239 C12.4394366,3.98873239 12.484507,3.98873239 12.484507,3.94366197 C12.484507,3.92112676 12.4619718,3.89859155 12.4394366,3.87605634 C12.3492958,3.83098592 12.2816901,3.71830986 12.2366197,3.6056338 C12.4619718,3.74084507 12.6647887,3.83098592 12.8901408,3.85352113 C13.0253521,3.87605634 13.1380282,3.87605634 13.2732394,3.87605634 C13.2957746,3.87605634 13.3408451,3.87605634 13.3633803,3.85352113 C13.3859155,3.8084507 13.3408451,3.8084507 13.3183099,3.78591549 C13.2957746,3.76338028 13.2957746,3.74084507 13.2507042,3.69577465 C13.3859155,3.74084507 13.4760563,3.83098592 13.5887324,3.83098592 C13.6112676,3.83098592 13.656338,3.85352113 13.6788732,3.85352113 C13.7014085,3.85352113 13.7239437,3.85352113 13.7239437,3.83098592 C13.7464789,3.8084507 13.7239437,3.8084507 13.7014085,3.78591549 C13.656338,3.74084507 13.6338028,3.71830986 13.6338028,3.6056338 C13.7014085,3.65070423 13.7690141,3.67323944 13.8140845,3.74084507 C13.9042254,3.8084507 14.0394366,3.87605634 14.1971831,3.87605634 C14.2197183,3.87605634 14.2422535,3.87605634 14.2422535,3.85352113 C14.2422535,3.83098592 14.2422535,3.8084507 14.2197183,3.8084507 C14.1521127,3.78591549 14.1521127,3.71830986 14.1295775,3.62816901 C14.2647887,3.69577465 14.3549296,3.76338028 14.4676056,3.8084507 C14.715493,3.87605634 14.9633803,3.83098592 15.1661972,3.71830986 C15.256338,3.65070423 15.3690141,3.49295775 15.1887324,3.4028169 Z"/>
  </g>
</svg>
