<svg xmlns="http://www.w3.org/2000/svg" width="17" height="17" viewBox="0 0 17 17">
  <g fill="none" fill-rule="evenodd" transform="translate(0 1.5)">
    <path fill="#000" d="M9.99622778,13.7916724 C9.92037086,13.7916724 9.84321214,13.7848466 9.76693301,13.7713711 L9.69536856,13.75874 L9.68741695,13.754905 C8.99675312,13.5905601 8.48739295,12.9153421 8.31977591,12.6661331 C8.07957407,12.377729 7.90425172,12.0971711 7.79489954,11.8267109 C7.41786676,11.9093935 7.06391474,11.9511219 6.73782852,11.9511219 C6.54072721,11.9511219 6.35337189,11.9357112 6.18104018,11.9053474 C6.04037416,11.8805426 5.90899674,11.8462381 5.78803382,11.8027153 C4.98998812,12.1188796 4.339786,12.136155 4.20854932,12.136155 L4.18550374,12.1358384 C3.99850026,12.1291534 3.81670403,12.1104003 3.64532229,12.0801068 C1.49606652,11.701174 1.02836431,9.6803754 0.929954395,8.96983256 C0.201502844,8.05004989 -0.108187581,6.77026354 0.033463595,5.25548259 C0.143449083,4.07987635 0.484523723,3.15358462 0.523050309,3.05179703 L0.59141301,2.87140816 L0.741367633,2.75002302 C3.15285048,0.80469428 7.54266475,0.5161495 7.72833123,0.50478504 L7.75478967,0.50369433 C7.8573865,0.50126663 7.96128514,0.5 8.06349494,0.5 C8.78649296,0.5 9.49879501,0.56097404 10.1805573,0.6811981 C13.0056995,1.17933455 14.5103123,2.53807402 14.57294,2.59570557 L14.6315919,2.64957243 L14.676909,2.71515558 C15.7861932,4.3193745 16.2566398,6.38943087 16.1148479,9.0434025 C16.0510591,10.2374804 15.5082036,11.1032203 15.2568133,11.4436264 C14.6623076,13.6161741 13.4000429,13.7225356 13.2559992,13.7274614 L13.2153616,13.7289743 L13.1734925,13.7255966 C13.1652946,13.7249281 12.3799152,13.6617023 11.5727216,13.6617023 C10.8402943,13.6617023 10.4712131,13.7134581 10.2906131,13.7569105 C10.1948772,13.7799561 10.095834,13.7916724 9.99622778,13.7916724"/>
    <path fill="#DB0000" d="M14.6809533,4.89574488 C14.6809533,4.89574488 14.452458,3.78220446 13.9179311,3.26308384 C13.6514795,3.00431729 12.9753022,2.5789328 11.9834961,2.22498693 C11.4840752,2.13713186 10.6240697,2.04227725 9.76110564,2.21106 C9.48603088,2.26485545 9.20363186,2.2689325 8.9265727,2.22668269 C8.75234185,2.20016381 8.52489284,2.16098081 8.22997403,2.1033248 C7.48196119,1.95709211 6.05824007,1.86155198 4.67344938,2.15289887 C3.68701918,2.44164798 2.62853701,2.88554157 1.70048443,3.56839373 C1.70048443,3.56839373 1.11389401,4.73944585 1.57593589,6.81091318 C1.57593589,6.81091318 1.716504,7.53161337 2.3158307,8.07267069 C2.4468015,8.19094129 2.62334147,8.24495321 2.79786096,8.2188673 C2.99695101,8.18913728 3.31110052,8.14443403 3.72147569,8.09301987 C3.9812164,8.06047561 4.17218842,7.83309876 4.15847798,7.57166229 L4.08433335,6.15699727 C4.07105587,5.90346234 4.26762031,5.68510552 4.52119132,5.67182804 L4.81863574,5.65624143 C5.07220675,5.64296395 5.2905275,5.83952839 5.30380498,6.0930994 L5.3719603,7.39335439 C5.38671707,7.67499572 5.63144845,7.88819309 5.91251251,7.8644163 C6.15605325,7.84381456 6.40976858,7.82386226 6.67268433,7.8051006 C6.94379028,7.78572558 7.14984378,7.55272023 7.13562822,7.28128957 L7.06992634,6.02793872 C7.05664886,5.77436771 7.2532133,5.55604697 7.50678431,5.54276949 L7.80422873,5.5271468 C8.05779974,5.51386932 8.27612049,5.71043375 8.28939797,5.96400477 L8.35509985,7.21771641 C8.36931541,7.48936356 8.59802722,7.69909724 8.86985477,7.69022153 C9.11931265,7.6821035 9.3731723,7.67550084 9.63082036,7.67070219 C9.91321938,7.66547057 10.1356533,7.42788305 10.1208604,7.14580876 L10.0555193,5.89884409 C10.0422419,5.64527308 10.2388063,5.42695233 10.4923773,5.41363877 L10.7897856,5.39808825 C11.0433927,5.38481077 11.2616774,5.5813752 11.275027,5.83494621 L11.3468265,7.20526878 C11.3604287,7.46511773 11.5711726,7.67095475 11.8313102,7.67766565 C12.1104259,7.68491775 12.3918868,7.69473154 12.6750435,7.70743174 C12.899534,7.71749809 13.0844445,7.53161337 13.0708784,7.30730333 C13.0316233,6.65735623 13.1750417,5.43207571 14.6809533,4.89574488"/>
    <path fill="#FFF" d="M9.99698657 5.08594118C9.99698657 5.08594118 10.701559 4.6008441 11.5750584 4.83164857 11.7267753 4.87173357 11.8476076 4.9865044 11.8956302 5.13591213 11.9720118 5.37346357 12.0179778 5.79928102 11.7887248 6.4639488 11.7887248 6.4639488 11.9155464 5.49130121 11.5366331 5.16737399 11.5366331 5.16737399 11.202387 4.90720031 9.99698657 5.08594118M6.99009549 5.12473451C6.99009549 5.12473451 7.69466787 4.63960136 8.56816733 4.8704419 8.71988419 4.9105269 8.84071647 5.02529773 8.8887391 5.17470546 8.96512069 5.41225691 9.01105067 5.83803828 8.78183373 6.50274214 8.78183373 6.50274214 8.90861924 5.53009454 8.52970593 5.20616732 8.52970593 5.20616732 8.19549587 4.94599365 6.99009549 5.12473451M4.00532874 5.25792063C4.00532874 5.25792063 4.70990112 4.77282355 5.58340057 5.00362802 5.73508135 5.04371302 5.85594972 5.15848385 5.90397234 5.30789158 5.98035394 5.54544302 6.02632 5.97126048 5.79706698 6.63592825 5.79706698 6.63592825 5.92385248 5.66328066 5.54497525 5.33935344 5.54497525 5.33935344 5.21072912 5.07917977 4.00532874 5.25792063M3.77198784 3.42551649C3.77198784 3.42551649 2.78378972 3.75694838 2.41072139 4.39253559 2.03768913 5.0281228 2.20906965 6.18384087 2.20906965 6.18384087 2.20906965 6.18384087 1.62269571 5.06914589 1.99009947 4.18785313 1.99009947 4.18785313 2.13708984 3.7244402 3.77198784 3.42551649"/>
    <path fill="#B38E71" d="M11.2519682,8.47426396 C11.2519682,8.47426396 11.0603468,8.97566924 11.570267,9.2421569 C11.570267,9.2421569 12.4077224,9.379983 13.0395573,9.2144835 C13.4121205,9.1169229 13.2684134,8.30598633 12.6169509,8.26117483 C12.6169509,8.26117483 11.6091252,8.14333719 11.2519682,8.47426396"/>
    <path fill="#FFF" d="M14.8413077 5.82487986C14.8413077 5.82487986 15.2646717 8.17293732 14.5291426 9.2575054 14.5291426 9.2575054 14.865734 9.7231553 14.9816233 10.0157289 14.9816233 10.0157289 15.4960896 7.9291801 14.8413077 5.82487986M8.2299632 2.10334284C8.52488202 2.16099885 8.75233103 2.20018185 8.92656188 2.22670073 9.20365712 2.26895054 9.48602006 2.26487349 9.76109481 2.21104196 10.6240589 2.04229529 11.4840644 2.1371499 11.9835213 2.22496889 10.9856177 1.86882212 9.66833285 1.58494382 8.12659369 1.6158284 8.12659369 1.6158284 6.52727067 1.61027206 4.67347464 2.15291691 6.05826532 1.86157002 7.48195037 1.95707407 8.2299632 2.10334284"/>
    <path fill="#806551" d="M10.5128564,9.5583233 C10.482044,9.4182243 10.5333499,9.4195592 10.5089236,9.1667098 C10.5069032,9.1456751 10.503692,9.1254342 10.5003005,9.1052293 C10.1196914,9.515388 9.59364342,9.622149 9.59364342,9.622149 C9.59364342,9.622149 9.29674019,9.870308 8.49861209,9.7295956 C8.49861209,9.7295956 8.77242404,10.0988034 9.28126183,10.2832088 C9.37676588,10.1962918 9.69026595,9.7397702 10.5128564,9.5583233"/>
    <path fill="#B38E71" d="M10.5003113 9.1052437C10.369557 8.32129512 9.24833151 8.16113551 8.4092164 8.36975071 8.4092164 8.36975071 8.16084093 8.91416348 8.41823643 9.355784 8.41823643 9.355784 8.948145 9.7283833 9.59365424 9.6221274 9.59365424 9.6221274 10.1196662 9.5153663 10.5003113 9.1052437M7.59952823 9.6056785C7.57795232 9.5193388 7.56103075 9.4256026 7.55110872 9.3231712 7.47497969 8.53586714 6.38593766 8.37246032 5.57658864 8.57371517 5.57658864 8.57371517 5.33221806 9.1468477 5.57427952 9.5621659 5.57427952 9.5621659 6.1883269 9.8996953 7.03776092 9.8775421 7.03776092 9.8775421 7.32160315 9.8189119 7.59952823 9.6056785"/>
    <path fill="#806551" d="M7.59952823 9.6056785C7.32160315 9.8189119 7.03776092 9.8775421 7.03776092 9.8775421 7.03776092 9.8775421 6.45077362 10.1179799 5.70023518 9.9856381 5.70023518 9.9856381 6.2848412 10.490002 6.83838224 10.6019225 6.83838224 10.6019225 7.71318058 10.598567 8.10475801 10.4096155 8.10475801 10.4096155 7.74366827 10.182852 7.59952823 9.6056785M4.69264761 9.9017915C4.43756123 10.0408804 4.15256445 10.0923667 4.15256445 10.0923667 4.15256445 10.0923667 3.60652807 10.3160273 2.90834187 10.1929219 2.90834187 10.1929219 3.45221344 10.6621077 3.96711268 10.7662349 3.96711268 10.7662349 4.78086348 10.7630598 5.14512826 10.5873497 5.14512826 10.5873497 4.83610212 10.3921563 4.69264761 9.9017915"/>
    <path fill="#B38E71" d="M4.63010635,9.5766809 C4.55928109,8.84429074 3.54622377,8.69232132 2.79334013,8.87954101 C2.79334013,8.87954101 2.56603544,9.4126607 2.79117532,9.7990065 C2.79117532,9.7990065 3.36239561,10.1130117 4.1525861,10.0923739 C4.1525861,10.0923739 4.4375468,10.0408876 4.69263318,9.9017988 C4.66431029,9.8048515 4.6417963,9.6975493 4.63010635,9.5766809"/>
    <path fill="#806551" d="M13.8090775 11.4897385C13.8090775 11.4897385 11.9718422 10.8790466 10.8182889 11.3038899 11.1510558 11.4581684 11.5521584 11.7584992 11.8554838 12.3449453 11.8554838 12.3449453 12.9896621 12.3860045 13.4034649 12.4155902 13.8153554 12.4451037 14.2809692 11.9253697 14.3898951 10.5993175 14.2765674 10.8807062 14.0749879 11.2946173 13.8090775 11.4897385M9.35913714 11.1852043C9.33748907 11.2748995 9.32150558 11.3698623 9.3134958 11.4720051 9.3134958 11.4720051 9.684255 12.2673551 10.2131894 12.5796284 10.2131894 12.5796284 10.9264932 12.3689927 11.2677389 12.4002381 11.2677389 12.4002381 11.3105299 11.5842143 10.1894848 11.140898 10.1894848 11.140898 9.70020241 11.022447 9.35913714 11.1852043"/>
    <path fill="#B38E71" d="M13.8090775,11.4897385 C14.0749879,11.2946173 14.2765674,10.8807062 14.3898951,10.5993175 C14.3903641,10.5932921 14.3910135,10.5875554 14.3914826,10.5814578 C14.3914826,10.5814578 14.3239045,10.0390655 13.7616321,9.5116465 C13.7616321,9.5116465 13.3327478,9.8740351 12.5598397,9.8691282 C11.8311658,9.86451 9.71589726,9.706876 9.35913714,11.1852224 C9.70020241,11.022465 10.1894848,11.140916 10.1894848,11.140916 C10.1894848,11.140916 10.4654255,11.1402305 10.8182889,11.3038899 C11.9718422,10.8790466 13.8090775,11.4897385 13.8090775,11.4897385"/>
  </g>
</svg>
