<?xml version="1.0" encoding="UTF-8"?>
<svg width="17px" height="17px" viewBox="0 0 17 17" version="1.1" xmlns="http://www.w3.org/2000/svg" xmlns:xlink="http://www.w3.org/1999/xlink">
    <!-- Generator: Sketch 48.2 (47327) - http://www.bohemiancoding.com/sketch -->
    <title>sports icons/waterpolo</title>
    <desc>Created with Sketch.</desc>
    <defs>
        <radialGradient cx="58.9256574%" cy="31.4456084%" fx="58.9256574%" fy="31.4456084%" r="71.4360429%" id="radialGradient-1">
            <stop stop-color="#FFFFFF" offset="0%"></stop>
            <stop stop-color="#FFFFD7" offset="4.17025%"></stop>
            <stop stop-color="#FFFF9C" offset="10.85%"></stop>
            <stop stop-color="#FFFF71" offset="16.56%"></stop>
            <stop stop-color="#FFFF57" offset="21%"></stop>
            <stop stop-color="#FFFF4D" offset="23.64%"></stop>
            <stop stop-color="#ECC903" offset="44.24%"></stop>
            <stop stop-color="#C99E00" offset="63.64%"></stop>
            <stop stop-color="#A37600" offset="86.41%"></stop>
            <stop stop-color="#916300" offset="100%"></stop>
        </radialGradient>
        <radialGradient cx="58.3470866%" cy="33.0535144%" fx="58.3470866%" fy="33.0535144%" r="70.8390551%" gradientTransform="translate(0.583471,0.330535),scale(0.985827,1.000000),translate(-0.583471,-0.330535)" id="radialGradient-2">
            <stop stop-color="#FFFFFF" offset="0%"></stop>
            <stop stop-color="#D3D3D3" offset="5.399266%"></stop>
            <stop stop-color="#9C9C9C" offset="12.77%"></stop>
            <stop stop-color="#747474" offset="19.14%"></stop>
            <stop stop-color="#5C5C5C" offset="24.18%"></stop>
            <stop stop-color="#535353" offset="27.27%"></stop>
            <stop stop-color="#404040" offset="38.18%"></stop>
            <stop stop-color="#1D1D1D" offset="63.03%"></stop>
            <stop stop-color="#000000" offset="100%"></stop>
        </radialGradient>
    </defs>
    <g id="Artboard-Copy" stroke="none" stroke-width="1" fill="none" fill-rule="evenodd">
        <g id="sports-icons/waterpolo" fill-rule="nonzero">
            <circle id="Oval" fill="url(#radialGradient-1)" cx="8.5" cy="8.5" r="8.27164179"></circle>
            <path d="M16.1373134,10.5298507 C16.1373134,10.5552239 16.1626866,10.6059701 16.1626866,10.6567164 C16.1880597,10.7835821 16.2641791,11.0880597 16.3910448,11.0880597 C16.3910448,11.0373134 16.3910448,10.9358209 16.238806,10.5552239 C16.238806,10.5298507 16.2134328,10.5044776 16.2134328,10.4791045 C15.9343284,9.76865672 15.5791045,9.13432836 15.1223881,8.4238806 L15.0716418,8.37313433 L15.0970149,8.32238806 C15.4522388,7.6119403 15.7313433,6.85074627 15.9597015,5.8358209 C15.9597015,5.81044776 15.9597015,5.78507463 15.9850746,5.75970149 C16.1119403,5.25223881 16.0865672,5.12537313 16.061194,5.1 C16.0358209,5.1 15.9850746,5.15074627 15.9597015,5.45522388 C15.9597015,5.50597015 15.9597015,5.53134328 15.9597015,5.55671642 C15.3,8.85522388 13.3970149,11.0626866 12.0014925,12.4328358 C11.9761194,12.458209 11.9253731,12.5089552 11.8746269,12.5597015 C11.5447761,12.8895522 11.2656716,13.1940299 11.0626866,13.219403 C10.9104478,13.2447761 10.7074627,13.1686567 10.5298507,13.1179104 C10.4537313,13.0925373 10.3776119,13.0671642 10.3014925,13.0671642 C9.51492537,12.8895522 8.90597015,12.661194 8.24626866,12.3820896 L8.11940299,12.3313433 L8.22089552,12.2298507 C10.5298507,9.71791045 12.4328358,6.49552239 14.0567164,2.41044776 C14.0313433,2.38507463 14.0059701,2.35970149 14.0059701,2.33432836 C12.6865672,5.45522388 10.9865672,9.00746269 8.5,11.7223881 C8.47462687,11.7731343 8.4238806,11.7985075 8.39850746,11.8492537 C8.29701493,11.9761194 8.14477612,12.1537313 7.96716418,12.2298507 L7.91641791,12.2552239 L7.78955224,12.1537313 C7.05373134,11.7985075 6.26716418,11.4432836 5.68358209,10.9358209 L5.63283582,10.8850746 L5.65820896,10.8089552 C7.05373134,6.82537313 8.77910448,3.52686567 10.8089552,1.06567164 C10.8343284,1.01492537 10.8850746,0.989552239 10.9104478,0.93880597 C10.9865672,0.837313433 11.0880597,0.76119403 11.1641791,0.634328358 C11.138806,0.634328358 11.138806,0.634328358 11.138806,0.634328358 C11.0626866,0.634328358 10.9865672,0.735820896 10.8850746,0.862686567 C10.8343284,0.862686567 10.8343284,0.888059701 10.8089552,0.913432836 C8.29701493,3.85671642 6.67313433,7.6880597 5.53134328,10.7074627 L5.48059701,10.8343284 L5.40447761,10.7835821 C4.92238806,10.4283582 4.59253731,10.1492537 4.2119403,9.74328358 L4.16119403,9.69253731 C3.85671642,9.3880597 3.34925373,8.80447761 3.29850746,8.39850746 C3.27313433,8.14477612 3.37462687,7.73880597 3.4761194,7.35820896 C3.50149254,7.25671642 3.52686567,7.18059701 3.55223881,7.05373134 C4.26268657,4.16119403 5.37910448,2.08059701 7.07910448,0.58358209 C7.12985075,0.558208955 7.15522388,0.507462687 7.20597015,0.482089552 C7.35820896,0.355223881 7.38358209,0.329850746 7.38358209,0.253731343 L7.35820896,0.253731343 C7.33283582,0.279104478 7.28208955,0.279104478 7.25671642,0.279104478 L7.23134328,0.279104478 C6.44477612,0.93880597 5.78507463,1.75074627 5.25223881,2.56268657 L5.1761194,2.63880597 L5.12537313,2.63880597 C4.77014925,2.5880597 4.2880597,2.53731343 3.83134328,2.53731343 C3.50149254,2.53731343 3.19701493,2.56268657 2.96865672,2.5880597 C2.86716418,2.61343284 2.68955224,2.61343284 2.63880597,2.68955224 C2.63880597,2.68955224 2.63880597,2.68955224 2.63880597,2.71492537 C2.79104478,2.71492537 2.96865672,2.68955224 3.14626866,2.68955224 C3.3238806,2.6641791 3.52686567,2.6641791 3.70447761,2.63880597 C3.75522388,2.63880597 3.80597015,2.63880597 3.85671642,2.63880597 C4.2119403,2.63880597 4.56716418,2.6641791 4.97313433,2.71492537 L5.12537313,2.74029851 L5.04925373,2.86716418 C4.61791045,3.62835821 4.16119403,4.54179104 3.83134328,5.60746269 L3.80597015,5.73432836 L3.72985075,5.73432836 C3.4,5.68358209 3.07014925,5.68358209 2.71492537,5.68358209 C2.00447761,5.68358209 1.26865672,5.75970149 0.685074627,5.93731343 C0.685074627,5.96268657 0.659701493,5.9880597 0.659701493,6.01343284 C1.64925373,5.75970149 2.76567164,5.70895522 3.67910448,5.8358209 L3.80597015,5.8358209 L3.72985075,5.9119403 C3.50149254,6.54626866 3.37462687,7.25671642 3.22238806,7.94179104 C3.19701493,8.04328358 3.17164179,8.17014925 3.17164179,8.27164179 L3.17164179,8.32238806 L3.09552239,8.37313433 C2.18208955,8.60149254 1.14179104,8.88059701 0.279104478,9.28656716 C0.304477612,9.3119403 0.304477612,9.33731343 0.304477612,9.36268657 C0.380597015,9.33731343 0.456716418,9.3119403 0.58358209,9.26119403 C0.710447761,9.21044776 0.862686567,9.13432836 0.989552239,9.10895522 L1.06567164,9.08358209 L1.09104478,9.15970149 C1.7761194,10.961194 3.01940299,12.4835821 4.82089552,13.6507463 C6.44477612,14.7164179 8.44925373,15.2492537 10.6820896,15.2492537 C10.9104478,15.2492537 11.1134328,15.2492537 11.3671642,15.2238806 L11.4432836,15.2238806 L11.4686567,15.3 C11.4940299,15.4268657 11.519403,15.6044776 11.519403,15.7567164 C11.519403,15.8835821 11.5447761,16.0358209 11.5701493,16.1373134 C11.5955224,16.1373134 11.6208955,16.1119403 11.6462687,16.1119403 C11.5701493,15.2238806 11.3925373,14.4119403 11.2402985,13.6253731 L11.1641791,13.2701493 L11.2149254,13.2447761 C11.8492537,12.7119403 12.458209,12.0776119 13.1940299,11.2656716 L13.2701493,11.1641791 L13.3462687,11.2656716 C13.7268657,11.8238806 14.0313433,12.6865672 14.2343284,13.6 C14.2597015,13.6761194 14.2597015,13.7522388 14.2597015,13.8283582 C14.2850746,14.0567164 14.3104478,14.1835821 14.3865672,14.2343284 C14.4373134,14.0820896 14.3865672,13.8791045 14.3358209,13.6761194 C14.3104478,13.6253731 14.3104478,13.5746269 14.2850746,13.5238806 C14.0567164,12.6104478 13.7522388,11.7223881 13.3716418,11.1134328 L13.3208955,11.1134328 L13.3716418,11.0626866 C13.9044776,10.3776119 14.4373134,9.59104478 14.9447761,8.70298507 L15.0208955,8.5761194 L15.1223881,8.70298507 C15.4776119,9.13432836 15.858209,9.84477612 16.1373134,10.5298507 Z M11.2402985,14.2089552 C11.2910448,14.4880597 11.341791,14.7671642 11.3925373,15.0716418 L11.4179104,15.1731343 L11.3164179,15.1731343 C11.0880597,15.1731343 10.8850746,15.1985075 10.6313433,15.1985075 C8.4238806,15.1985075 6.47014925,14.6656716 4.84626866,13.6 C3.04477612,12.4328358 1.80149254,10.9358209 1.14179104,9.18507463 L1.11641791,9.10895522 L1.19253731,9.08358209 C1.64925373,8.90597015 2.18208955,8.75373134 2.68955224,8.62686567 C2.79104478,8.60149254 2.94328358,8.5761194 3.04477612,8.55074627 L3.12089552,8.52537313 L3.14626866,8.5761194 C4.56716418,10.8597015 7.05373134,12.3820896 10.9865672,13.3716418 L11.0373134,13.3970149 L11.0373134,13.4731343 C11.138806,13.6761194 11.1895522,13.9552239 11.2402985,14.2089552 Z" id="Shape" fill="url(#radialGradient-2)"></path>
        </g>
    </g>
</svg>