<svg xmlns="http://www.w3.org/2000/svg" width="17" height="17" viewBox="0 0 17 17">
  <defs>
    <linearGradient id="tabletennis-02-a" x1="38.825%" x2="60.94%" y1="58.998%" y2="36.684%">
      <stop offset="19.39%" stop-color="#9D8C82"/>
      <stop offset="45.05%" stop-color="#B39F94"/>
      <stop offset="78.56%" stop-color="#C9B4A6"/>
      <stop offset="100%" stop-color="#D1BBAD"/>
    </linearGradient>
  </defs>
  <g fill="none">
    <path fill="#998C7B" d="M16.6876749,14.4796633 C16.6876749,14.6752411 15.1509925,15.7648886 14.7877766,15.5134315 C14.4245608,15.289914 11.3232562,11.6018762 10.4012467,10.9313238 C9.50717692,10.2607715 7.60727862,10.5122286 7.21612309,10.5122286 C5.73532001,10.6239873 4.70155182,9.70197786 3.66778362,8.75202872 C2.71783447,7.88589861 1.15321235,6.40509552 0.65029809,4.86841308 C0.370901282,4.00228297 0.482660005,3.0802735 1.12527266,2.21414339 C1.0693933,2.21414339 1.01351394,2.21414339 1.01351394,2.24208307 C0.175323516,3.30379095 0.147383835,4.2537401 0.482660005,5.28750829 C0.95763458,6.85213042 2.46637735,8.36087318 3.4163265,9.22700329 C4.47803437,10.1769524 5.53974224,11.1269016 7.04848501,10.9592635 C7.07642469,10.9592635 7.10436437,10.9592635 7.13230405,10.9592635 C7.38376118,10.9313238 8.41752937,10.7078064 9.33953884,10.9313238 C9.9821515,11.0989619 10.1777293,11.4062984 10.4291864,11.6018762 C11.2394371,12.2165491 14.2569227,16.0163457 14.6480782,16.1560441 C14.9554147,16.2678029 15.625967,16.2678029 16.156821,15.7648886 C16.855313,15.206095 16.7156146,14.5355427 16.6876749,14.4796633 Z"/>
    <path fill="#DEDBCC" d="M12.0217482,9.78579691 C11.7423514,9.08730489 12.3849641,8.38881286 12.6364212,7.94177797 C12.7202402,7.83001925 12.7481799,7.7462002 12.7481799,7.69032084 C12.9716974,6.68449233 12.2732053,5.84630191 11.7423514,5.23162893 C11.0717991,4.44931786 10.1497896,3.52730839 9.47923724,2.96851478 C8.72486586,2.32590212 7.3558215,1.54359105 5.95883745,1.1803752 C4.2824566,0.761279989 2.55019639,0.845099032 1.62818692,1.68328946 C0.538539367,2.68911797 0.342961601,3.8067052 0.65029809,4.84047339 C1.12527266,6.40509552 2.68989479,7.88589861 3.66778362,8.72408903 C4.7294915,9.67403818 5.76325969,10.5960477 7.21612309,10.4842889 C7.60727862,10.4563492 9.47923724,10.2328318 10.4012467,10.9033841 C11.2953165,11.5739365 14.4245608,15.2619744 14.7877766,15.4854918 C15.1509925,15.7090093 16.6876749,14.6473014 16.6876749,14.4517236 C16.6876749,14.2561458 12.3290847,10.5122286 12.0217482,9.78579691 Z"/>
    <path fill="url(#tabletennis-02-a)" d="M10.7644626,8.86378744 L9.42335788,9.59021914 C9.42335788,9.59021914 14.7039576,15.5693108 14.8715956,15.5972505 C15.2627512,15.6810696 16.5759162,14.9266982 16.7156146,14.4517236 C16.7714939,14.1723268 11.1276784,8.94760648 10.7644626,8.86378744 Z"/>
    <path fill="url(#tabletennis-02-a)" d="M10.7644626,8.86378744 L9.42335788,9.59021914 C9.42335788,9.59021914 14.7039576,15.5693108 14.8715956,15.5972505 C15.2627512,15.6810696 16.5759162,14.9266982 16.7156146,14.4517236 C16.7714939,14.1723268 11.1276784,8.94760648 10.7644626,8.86378744 Z"/>
    <path fill="#000" d="M0.706177452,3.05233382 C0.873815537,2.57735925 1.18115203,2.13032435 1.6561266,1.71122914 L1.68406628,1.68328946 C1.6561266,1.71122914 1.62818692,1.71122914 1.57230756,1.73916882 C1.12527266,2.15826403 0.845875856,2.60529893 0.706177452,3.05233382 Z"/>
    <path fill="#000" d="M0.538539367,5.20368925 C1.01351394,6.76831137 2.52225671,8.27705414 3.47220586,9.14318425 C4.53391373,10.0931334 5.5956216,11.0430825 7.10436437,10.8754445 C7.13230405,10.8754445 7.16024373,10.8754445 7.18818341,10.8754445 C7.24406277,10.8754445 7.38376118,10.8475048 7.52345958,10.8195651 C7.55139926,10.7357461 7.55139926,10.651927 7.57933894,10.568108 C7.43964054,10.568108 7.29994214,10.5960477 7.24406277,10.5960477 C5.76325969,10.7078064 4.7294915,9.78579691 3.6957233,8.83584776 C2.74577415,7.96971765 1.15321235,6.51685425 0.65029809,4.95223212 C0.342961601,3.94640361 0.31502192,2.85675605 1.26497107,1.87886722 C1.29291075,1.85092754 1.32085043,1.82298786 1.34879011,1.82298786 C1.23703139,1.9068069 1.12527266,1.99062595 1.01351394,2.10238467 C0.706177452,2.46560052 0.566479048,2.88469573 0.426780643,3.2199719 C0.231202877,3.97434329 0.31502192,4.53313691 0.538539367,5.20368925 Z"/>
    <path fill="#D3BEB1" d="M10.7644626,8.86378744 L9.42335788,9.59021914 C9.42335788,9.59021914 9.70275469,9.89755563 10.1497896,10.4004699 C10.7085832,10.3445905 11.4070752,9.98137467 11.7144117,9.61815882 C11.1835578,9.14318425 10.8482816,8.89172712 10.7644626,8.86378744 Z"/>
    <path fill="#FF7800" d="M12.7481799,7.55062244 C12.5805418,8.22117478 10.8203419,8.83584776 10.1497896,9.19906361 C9.11602139,9.75785723 8.13813256,10.2607715 7.32788182,10.3445905 C5.81913905,10.5122286 4.75743118,9.56227946 3.6957233,8.61233031 C2.74577415,7.7462002 1.18115203,6.26539712 0.678237771,4.72871467 C0.594418729,4.42137818 0.538539367,4.14198137 0.510599686,3.83464488 C0.510599686,4.19786074 0.566479048,4.53313691 0.678237771,4.89635276 C1.15321235,6.46097488 2.71783447,7.94177797 3.6957233,8.7799684 C4.75743118,9.72991755 5.81913905,10.6798667 7.32788182,10.5122286 C8.11019288,10.4284096 9.11602139,9.92549531 10.1497896,9.36670169 C10.8203419,9.00348584 12.6084815,8.38881286 12.7481799,7.71826052 C12.7761196,7.55062244 12.8040593,7.38298435 12.8040593,7.24328595 C12.7761196,7.32710499 12.7761196,7.43886372 12.7481799,7.55062244 Z"/>
    <path fill="#D0021B" d="M5.95883745,1.0406768 C7.3558215,1.40389265 8.72486586,2.18620371 9.47923724,2.82881637 C10.1497896,3.38760999 11.0717991,4.30961946 11.7423514,5.09193052 C12.2452656,5.7066035 12.9716974,6.54479393 12.7481799,7.55062244 C12.5805418,8.22117478 10.8203419,8.83584776 10.1497896,9.19906361 C9.11602139,9.75785723 8.13813256,10.2607715 7.32788182,10.3445905 C5.81913905,10.5122286 4.75743118,9.56227946 3.6957233,8.61233031 C2.74577415,7.7462002 1.18115203,6.26539712 0.678237771,4.72871467 C0.342961601,3.69494648 0.482660005,2.57735925 1.54436788,1.57153073 C2.46637735,0.705400627 4.2824566,0.593641904 5.95883745,1.0406768 Z"/>
    <path fill="#FF2D2D" d="M5.67944065,10.0931334 C5.34416448,6.06981935 7.07642469,3.83464488 7.83079607,1.7671085 C7.24406277,1.48771169 6.60145011,1.20831488 5.95883745,1.0406768 C4.2824566,0.621581585 2.46637735,0.705400627 1.54436788,1.57153073 C0.454720324,2.57735925 0.342961601,3.69494648 0.678237771,4.72871467 C1.15321235,6.2933368 2.71783447,7.77413989 3.6957233,8.61233031 C4.31039628,9.19906361 4.95300894,9.75785723 5.67944065,10.0931334 Z"/>
    <circle cx="9.423" cy="10.931" r="1.593" fill="#FFF"/>
    <circle cx="9.312" cy="10.848" r="1.425" fill="#F4F4F4"/>
  </g>
</svg>
