<svg xmlns="http://www.w3.org/2000/svg" width="17" height="17" viewBox="0 0 17 17">
  <defs>
    <linearGradient id="darts-02-a" x1="68.59%" x2="39.23%" y1="41.397%" y2="70.757%">
      <stop offset="9.031%" stop-color="#005DB8"/>
      <stop offset="18.21%" stop-color="#0061B8"/>
      <stop offset="26.64%" stop-color="#006CB6"/>
      <stop offset="31.12%" stop-color="#0075B5"/>
      <stop offset="45.73%" stop-color="#006DB0"/>
      <stop offset="68.39%" stop-color="#0033A1"/>
      <stop offset="73.4%" stop-color="#0033A1"/>
      <stop offset="87.93%" stop-color="#004FB0"/>
    </linearGradient>
    <linearGradient id="darts-02-b" x1="86.593%" x2="21.935%" y1="22.657%" y2="86.981%">
      <stop offset="9.031%" stop-color="#A67917"/>
      <stop offset="13.66%" stop-color="#AA7C19"/>
      <stop offset="17.93%" stop-color="#B5851E"/>
      <stop offset="22.04%" stop-color="#C79526"/>
      <stop offset="26.05%" stop-color="#E1AB32"/>
      <stop offset="29.56%" stop-color="#FFC43F"/>
      <stop offset="49.01%" stop-color="#D19913"/>
      <stop offset="51.28%" stop-color="#BF8A0F"/>
      <stop offset="56.02%" stop-color="#9E7109"/>
      <stop offset="60.56%" stop-color="#865E04"/>
      <stop offset="64.79%" stop-color="#785301"/>
      <stop offset="68.39%" stop-color="#734F00"/>
      <stop offset="73.4%" stop-color="#734F00"/>
      <stop offset="87.93%" stop-color="#A36B0F"/>
    </linearGradient>
    <linearGradient id="darts-02-c" x1="3.321%" x2="95.23%" y1="95.553%" y2="3.674%">
      <stop offset="9.031%" stop-color="#A67917"/>
      <stop offset="13.66%" stop-color="#AA7C19"/>
      <stop offset="17.93%" stop-color="#B5851E"/>
      <stop offset="22.04%" stop-color="#C79526"/>
      <stop offset="26.05%" stop-color="#E1AB32"/>
      <stop offset="29.56%" stop-color="#FFC43F"/>
      <stop offset="49.01%" stop-color="#D19913"/>
      <stop offset="51.28%" stop-color="#BF8A0F"/>
      <stop offset="56.02%" stop-color="#9E7109"/>
      <stop offset="60.56%" stop-color="#865E04"/>
      <stop offset="64.79%" stop-color="#785301"/>
      <stop offset="68.39%" stop-color="#734F00"/>
      <stop offset="73.4%" stop-color="#734F00"/>
      <stop offset="87.93%" stop-color="#A36B0F"/>
    </linearGradient>
    <linearGradient id="darts-02-d" x1="34.96%" x2="68.59%" y1="34.89%" y2="69.223%">
      <stop offset="0%" stop-color="#FFC43F"/>
      <stop offset="49.01%" stop-color="#D19913"/>
      <stop offset="50.65%" stop-color="#CE9613"/>
      <stop offset="64.31%" stop-color="#B67E11"/>
      <stop offset="77.07%" stop-color="#A8700F"/>
      <stop offset="87.93%" stop-color="#A36B0F"/>
    </linearGradient>
    <linearGradient id="darts-02-e" x1="56.609%" x2="32.601%" y1="35.507%" y2="59.662%">
      <stop offset="9.031%" stop-color="#807C70"/>
      <stop offset="15.94%" stop-color="#848073"/>
      <stop offset="22.29%" stop-color="#8E8B7E"/>
      <stop offset="28.4%" stop-color="#A19D90"/>
      <stop offset="31.53%" stop-color="#ADAA9C"/>
      <stop offset="38.92%" stop-color="#A19D96"/>
      <stop offset="61.33%" stop-color="#4F4A48"/>
      <stop offset="70.28%" stop-color="#7D6E68"/>
    </linearGradient>
    <linearGradient id="darts-02-f" x1="32.695%" x2="79.042%" y1="15.502%" y2="72.887%">
      <stop offset="0%" stop-color="#6BDEFA"/>
      <stop offset="99.75%" stop-color="#0054AA"/>
    </linearGradient>
    <linearGradient id="darts-02-g" x1="15.947%" x2="73.33%" y1="33.054%" y2="79.4%">
      <stop offset="0%" stop-color="#6BDEFA"/>
      <stop offset="99.75%" stop-color="#0054AA"/>
    </linearGradient>
    <linearGradient id="darts-02-h" x1="43.188%" x2="51.647%" y1="53.679%" y2="43.514%">
      <stop offset="0%" stop-color="#88837E"/>
      <stop offset="100%" stop-color="#FFF"/>
    </linearGradient>
  </defs>
  <g fill="none">
    <path fill="#3FADDE" d="M13.1453229,12.9170542 C13.1453229,12.9170542 13.4838291,12.5221303 14.0197972,11.7887003 C14.5557653,11.0552702 14.0197972,9.78587211 13.5120379,9.33453056 C13.0042787,8.85498015 11.7912982,8.23438551 10.7475709,9.78587211 C11.5938363,10.8295995 13.1453229,12.9170542 13.1453229,12.9170542 Z"/>
    <path fill="#0072B3" d="M12.6375637,13.4530223 C12.6375637,13.4530223 12.2426398,13.7915285 11.5092098,14.3274966 C10.7757797,14.8634647 9.50638159,14.3274966 9.05504003,13.8197373 C8.57548962,13.311978 7.95489498,12.0989976 9.50638159,11.0552702 C10.5501089,11.8733268 12.6375637,13.4530223 12.6375637,13.4530223 Z"/>
    <path fill="url(#darts-02-a)" d="M4.90833946,5.15962113 L4.85192176,5.18782998 L3.63894132,7.1624493 C3.63894132,7.1624493 8.74474271,10.8013906 13.2863671,14.4685408 C13.9915883,14.9480912 14.612183,14.3274966 14.1326326,13.6222754 C10.4654824,9.08065093 6.82654108,3.97484954 6.82654108,3.97484954 L4.90833946,5.15962113 Z"/>
    <path fill="url(#darts-02-b)" d="M5.33147217,2.33873639 L3.89282095,3.77738761 C3.66715017,4.00305839 3.55431478,4.11589378 3.55431478,4.11589378 L2.11566356,5.554545 C2.62342281,6.42901927 4.14670057,7.55737317 4.28774481,7.67020856 C4.28774481,7.67020856 4.28774481,7.67020856 4.28774481,7.6984174 C4.59804213,8.00871473 5.55714295,7.55737317 6.43161722,6.6828989 C7.30609149,5.80842462 7.75743305,4.84932381 7.44713573,4.53902649 C7.44713573,4.53902649 6.26236413,2.87470449 5.33147217,2.33873639 Z"/>
    <path fill="url(#darts-02-c)" d="M5.35968101,2.36694524 C5.66997834,2.67724256 5.19042793,3.66455222 4.31595366,4.53902649 C3.41327054,5.44170961 2.45416973,5.89305117 2.14387241,5.58275385 C1.97461932,5.41350076 1.83357508,4.79290612 2.03103702,4.36977341 C2.22849895,3.97484954 2.76446705,3.8338053 3.18759976,3.41067259 C3.52610593,3.07216642 3.66715017,2.53619832 4.00565634,2.31052754 C4.51341559,2.02843907 5.19042793,2.19769215 5.35968101,2.36694524 Z"/>
    <path fill="url(#darts-02-d)" d="M4.71087752,2.28231869 C4.96475715,2.53619832 4.56983329,3.3542549 3.83640325,4.08768493 C3.10297322,4.82111496 2.28491664,5.21603883 2.03103702,4.9621592 C1.77715739,4.70827957 2.17208125,3.890223 2.90551129,3.15679297 C3.63894132,2.39515408 4.4569979,2.00023022 4.71087752,2.28231869 Z"/>
    <path fill="url(#darts-02-e)" d="M3.69535902,3.18500181 C3.69535902,3.18500181 1.69253085,1.52067981 0.423132712,0.589787847 C0.338506169,0.533370153 0.22567078,0.589787847 0.310297322,0.702623237 C1.26939814,1.97202137 2.90551129,3.97484954 2.90551129,3.97484954 C2.96192898,4.03126724 3.18759976,3.91843185 3.41327054,3.72096991 C3.66715017,3.49529913 3.77998556,3.26962835 3.69535902,3.18500181 Z"/>
    <path fill="url(#darts-02-f)" d="M14.0197972,13.7633196 C14.0197972,13.7633196 14.6686007,13.5376488 15.6841192,13.0580984 C16.7278465,12.578548 16.3047138,11.3091499 15.6559103,10.7167641 C15.0071068,10.1243783 13.3992025,9.16527747 11.3399567,10.2090048 C12.2708486,11.3937764 14.0197972,13.7633196 14.0197972,13.7633196 Z"/>
    <path fill="url(#darts-02-g)" d="M13.4556202,14.2710789 C13.4556202,14.2710789 13.2299495,14.9198824 12.750399,15.9354009 C12.2708486,16.9791282 11.0014505,16.5559955 10.4090647,15.907192 C9.81667891,15.2583885 8.8575781,13.6504842 9.90130545,11.5912384 C11.1142859,12.5503392 13.4556202,14.2710789 13.4556202,14.2710789 Z"/>
    <path fill="url(#darts-02-h)" d="M0.394923864,0.617996695 L3.63894132,3.26962835 C3.63894132,3.26962835 3.58252363,3.46709029 3.38506169,3.63634337 C3.04655552,3.24141951 0.394923864,0.617996695 0.394923864,0.617996695 Z"/>
  </g>
</svg>
