<svg xmlns="http://www.w3.org/2000/svg" width="17" height="17" viewBox="0 0 17 17">
  <g fill="none" fill-rule="evenodd">
    <circle cx="8.5" cy="8.5" r="8.053" fill="#D0021B" fill-rule="nonzero"/>
    <path fill="#BDB289" d="M11.6962753 1.11635628C11.671498 1.11635628 11.671498 1.11635628 11.6467206 1.09157895 11.671498 1.11635628 11.6962753 1.11635628 11.6962753 1.11635628 11.7210526 1.1411336 11.7210526 1.1411336 11.6962753 1.11635628zM15.6110931 4.80817814C15.5863158 4.70906883 15.5119838 4.58518219 15.4624291 4.48607287 15.4376518 4.43651822 15.4376518 4.43651822 15.3633198 4.33740891 15.4376518 4.48607287 15.5367611 4.65951417 15.6110931 4.80817814z"/>
    <path fill="#9A0013" fill-rule="nonzero" d="M15.1403239,3.96574899 C15.1155466,3.91619433 15.0907692,3.891417 15.0659919,3.84186235 C14.6695547,3.27198381 14.1987854,2.77643725 13.6784615,2.33044534 C13.6536842,2.30566802 13.6289069,2.28089069 13.5793522,2.25611336 C13.4306883,2.13222672 13.257247,2.00834008 13.108583,1.90923077 C11.8201619,1.1411336 8.57433198,2.80121457 5.62582996,5.82404858 C2.8259919,8.69821862 1.28979757,11.7706073 1.90923077,13.1333603 C2.47910931,13.9757895 3.22242915,14.694332 4.0648583,15.2394332 C3.02421053,14.1244534 4.56040486,10.8042915 7.55846154,7.73190283 C10.6060729,4.58518219 14.0005668,2.90032389 15.1403239,3.96574899 Z"/>
    <path fill="#191919" fill-rule="nonzero" d="M14.397004,3.04898785 C14.2731174,2.92510121 14.1492308,2.80121457 14.0253441,2.67732794 C12.7864777,1.7605668 9.41676113,3.4454251 6.3691498,6.56736842 C3.47020243,9.54064777 1.90923077,12.7617004 2.65255061,14.0501215 C2.77643725,14.1740081 2.92510121,14.3226721 3.04898785,14.4465587 C2.2065587,13.2076923 3.76753036,9.93708502 6.71603239,6.91425101 C9.78842105,3.79230769 13.1581377,2.08267206 14.397004,3.04898785 Z"/>
    <path fill="#BDB289" fill-rule="nonzero" d="M5.63906625,15.6799387 C5.59325782,15.8101894 5.45053371,15.8786434 5.32028303,15.832835 C5.19003234,15.7870265 5.12157837,15.6443024 5.16738679,15.5140517 C7.26273213,9.55619219 10.7209617,6.09583033 15.5325682,5.16858856 C15.6681448,5.14246165 15.7992315,5.23118824 15.8253584,5.36676492 C15.8514853,5.50234161 15.7627587,5.63342827 15.627182,5.65955517 C11.0056282,6.55017201 7.67942539,9.87842573 5.63906625,15.6799387 Z"/>
    <path fill="#BDB289" fill-rule="nonzero" d="M4.86670592 15.3418629C4.83596348 15.476468 4.70192275 15.5606654 4.56731756 15.529923 4.43271238 15.4991805 4.34851499 15.3651398 4.37925743 15.2305346 5.63453923 9.73430753 9.20928421 6.0175258 15.0754372 4.10004432 15.2066751 4.05714629 15.3478403 4.12875998 15.3907383 4.25999797 15.4336364 4.39123597 15.3620227 4.53240111 15.2307847 4.57529915 9.52706707 6.43968505 6.0817259 10.0219213 4.86670592 15.3418629zM1.2092403 11.5926543C1.19376672 11.674039 1.11524751 11.7274706 1.03386272 11.7119971.952477935 11.6965235.899046338 11.6180043.914519911 11.5366195 1.84878393 6.62276539 5.30082672 3.04711781 11.2507346.815954392 11.3283029.786866968 11.4147644.826168461 11.4438519.903736733 11.4729393.981305005 11.4336378 1.06776653 11.3560695 1.09685395 5.49798294 3.29358517 2.12234441 6.79009273 1.2092403 11.5926543z"/>
    <path fill="#BDB289" fill-rule="nonzero" d="M1.7120768,12.0432007 C1.69660323,12.1245855 1.61808401,12.1780171 1.53669923,12.1625435 C1.45531444,12.14707 1.40188284,12.0685507 1.41735642,11.987166 C2.35162043,7.07331185 5.80366322,3.49766428 11.7535711,1.26650086 C11.8311394,1.23741343 11.9176009,1.27671493 11.9466884,1.3542832 C11.9757758,1.43185147 11.9364743,1.518313 11.858906,1.54740042 C6.00081944,3.74413164 2.62518092,7.2406392 1.7120768,12.0432007 Z"/>
  </g>
</svg>
