<?xml version="1.0" encoding="UTF-8"?>
<svg width="14px" height="16px" viewBox="0 0 14 16" version="1.1" xmlns="http://www.w3.org/2000/svg" xmlns:xlink="http://www.w3.org/1999/xlink">
    <!-- Generator: Sketch 48.2 (47327) - http://www.bohemiancoding.com/sketch -->
    <title>sports icons/winterSports</title>
    <desc>Created with Sketch.</desc>
    <defs></defs>
    <g id="Artboard-Copy" stroke="none" stroke-width="1" fill="none" fill-rule="evenodd" transform="translate(-3.000000, 0.000000)">
        <g id="sports-icons/winterSports" fill-rule="nonzero">
            <path d="M7.68591549,3.28028169 C7.68591549,3.28028169 7.92535211,3.16056338 8.21267606,3.35211268 C8.5,3.54366197 9.48169014,4.47746479 9.48169014,4.47746479 C9.48169014,4.47746479 10.2239437,4.69295775 10.6788732,4.83661972 C10.8464789,4.88450704 10.9661972,4.93239437 10.9901408,4.93239437 C11.0859155,4.95633803 10.7267606,6.05774648 10.4394366,6.17746479 C10.1521127,6.2971831 8.71549296,5.93802817 8.38028169,5.74647887 C8.04507042,5.55492958 7.4943662,5.12394366 7.4943662,5.12394366 C7.4943662,5.12394366 7.23098592,3.18450704 7.68591549,3.28028169 Z" id="Shape" fill="#B50422"></path>
            <path d="M5.74647887,1.48450704 C5.74647887,1.48450704 5.05211268,1.41267606 4.62112676,2.10704225 C4.19014085,2.80140845 4.50140845,3.47183099 4.50140845,3.47183099 C4.50140845,3.47183099 4.26197183,3.83098592 4.19014085,3.95070423 C4.02253521,4.26197183 3.85492958,4.76478873 3.68732394,5.31549296 C3.11267606,7.20704225 3.66338028,7.87746479 3.66338028,7.87746479 C3.66338028,7.87746479 4.16619718,7.97323944 4.64507042,8.02112676 C5.12394366,8.09295775 6.63239437,7.68591549 6.96760563,7.56619718 C7.27887324,7.44647887 7.66197183,6.39295775 7.75774648,5.69859155 C7.85352113,5.00422535 7.92535211,4.4056338 7.92535211,4.4056338 C7.92535211,4.4056338 8.28450704,3.35211268 8.02112676,2.87323944 C7.85352113,2.53802817 7.61408451,1.86760563 6.84788732,1.60422535 C6.53661972,1.5084507 6.36901408,1.34084507 5.74647887,1.48450704 Z" id="Shape" fill="#CE0019"></path>
            <path d="M8.38028169,2.65774648 C8.38028169,2.65774648 8.18873239,3.66338028 7.8056338,3.80704225 C7.42253521,3.92676056 6.72816901,3.47183099 6.72816901,3.47183099 C6.72816901,3.47183099 6.41690141,2.29859155 6.77605634,2.25070423 C7.08732394,2.15492958 8.3084507,1.34084507 8.38028169,2.65774648 Z" id="Shape" fill="#D3B489"></path>
            <path d="M8.71549296,1.98732394 C8.71549296,1.98732394 9.14647887,0.0718309859 6.9915493,0.167605634 C5.12394366,0.23943662 5.45915493,2.34647887 5.45915493,2.34647887 C5.45915493,2.34647887 5.6028169,2.68169014 5.86619718,2.96901408 C6.15352113,3.28028169 6.56056338,3.51971831 6.72816901,3.44788732 C7.01549296,3.32816901 6.63239437,2.58591549 7.08732394,2.15492958 C7.3028169,1.93943662 8.71549296,1.98732394 8.71549296,1.98732394 Z" id="Shape" fill="#FFA347"></path>
            <path d="M8.6915493,2.53802817 C8.6915493,2.53802817 8.66760563,2.87323944 8.35633803,2.92112676 C8.11690141,2.94507042 8.02112676,2.84929577 8.02112676,2.84929577 C8.02112676,2.84929577 7.75774648,3.18450704 7.44647887,3.11267606 C7.11126761,3.04084507 6.84788732,2.87323944 6.84788732,2.87323944 C6.84788732,2.87323944 6.82394366,2.51408451 6.87183099,2.22676056 C6.91971831,1.96338028 7.13521127,1.96338028 7.37464789,1.93943662 C8.09295775,1.86760563 8.73943662,1.77183099 8.73943662,1.77183099 L8.6915493,2.53802817 Z" id="Shape" fill="#08BBE6"></path>
            <path d="M10.6788732,4.83661972 C10.6788732,4.83661972 11.8042254,4.69295775 11.756338,5.19577465 C11.7323944,5.67464789 11.4211268,6.24929577 10.8464789,6.24929577 C10.271831,6.24929577 10.1042254,6.00985915 10.1042254,6.00985915 C10.1042254,6.00985915 10.1042254,4.83661972 10.6788732,4.83661972 Z" id="Shape" fill="#172031"></path>
            <path d="M16.9042254,14.1267606 C16.9042254,14.1267606 16.0661972,14.6535211 15.084507,14.4140845 C14.1028169,14.1746479 5.26760563,12.2830986 5.26760563,12.2830986 L4.88450704,12.5943662 L15.515493,15.1323944 C15.4915493,15.156338 16.7126761,15.4915493 16.9042254,14.1267606 Z" id="Shape" fill="#08BBE6"></path>
            <path d="M9.48169014,11.2295775 C9.48169014,11.2295775 9.48169014,12.1394366 9.67323944,12.1873239 C9.86478873,12.2591549 10.6788732,12.9056338 10.7267606,13.0253521 C10.7507042,13.1450704 10.6309859,13.6478873 10.1042254,13.6 C9.57746479,13.5760563 8.18873239,13.0492958 8.18873239,13.0492958 C8.18873239,13.0492958 8.02112676,12.9056338 8.06901408,12.4028169 C8.09295775,11.9 8.06901408,11.7802817 8.06901408,11.7802817 L9.48169014,11.2295775 Z" id="Shape" fill="#F2AA0A"></path>
            <path d="M7.25492958,7.42253521 C7.25492958,7.42253521 8.81126761,8.95492958 8.93098592,9.12253521 C9.05070423,9.29014085 9.40985915,10.8225352 9.48169014,11.0859155 C9.52957746,11.2535211 9.60140845,11.3971831 9.36197183,11.6126761 C9.21830986,11.7323944 8.81126761,11.9239437 8.59577465,11.9478873 C8.16478873,11.971831 8.11690141,11.9957746 8.02112676,11.9 C7.92535211,11.828169 7.78169014,11.0859155 7.78169014,11.0859155 L7.4943662,10.0802817 L5.41126761,8.16478873 C5.41126761,8.14084507 7.13521127,7.94929577 7.25492958,7.42253521 Z" id="Shape" fill="#960019"></path>
            <path d="M15.2521127,14.8690141 C15.2521127,14.8690141 14.4140845,15.3957746 13.4323944,15.156338 C12.4507042,14.9169014 3.61549296,13.0253521 3.61549296,13.0253521 L3.23239437,13.3366197 L13.8633803,15.8746479 C13.8394366,15.8746479 15.0605634,16.2338028 15.2521127,14.8690141 Z" id="Shape" fill="#08BBE6"></path>
            <path d="M7.56619718,11.8521127 C7.56619718,11.8521127 7.56619718,12.7619718 7.75774648,12.8098592 C7.94929577,12.8816901 8.76338028,13.528169 8.81126761,13.6478873 C8.83521127,13.7676056 8.71549296,14.2704225 8.18873239,14.2225352 C7.66197183,14.1985915 6.27323944,13.671831 6.27323944,13.671831 C6.27323944,13.671831 6.1056338,13.528169 6.15352113,13.0253521 C6.17746479,12.5225352 6.15352113,11.9 6.15352113,11.9 L7.56619718,11.8521127 Z" id="Shape" fill="#FFC533"></path>
            <path d="M5.98591549,7.37464789 C5.98591549,7.37464789 7.39859155,8.95492958 7.66197183,9.45774648 C7.85352113,9.84084507 7.75774648,10.343662 7.78169014,10.7507042 C7.8056338,10.9901408 7.70985915,11.4690141 7.66197183,11.8042254 C7.61408451,11.9957746 7.63802817,12.0676056 7.59014085,12.1394366 C7.4943662,12.2591549 7.32676056,12.2591549 7.03943662,12.3309859 C6.77605634,12.4028169 6.36901408,12.3788732 6.17746479,12.2112676 C6.1056338,12.1394366 6.12957746,12.0676056 6.08169014,11.9478873 C5.86619718,11.3253521 6.00985915,10.128169 6.00985915,10.128169 C6.00985915,10.128169 4.02253521,9.09859155 3.83098592,8.42816901 C3.23239437,6.36901408 5.07605634,6.82394366 5.98591549,7.37464789 Z" id="Shape" fill="#CE0019"></path>
            <path d="M5.98591549,4.66901408 C6.08169014,4.93239437 5.98591549,5.31549296 5.81830986,5.74647887 C5.65070423,6.17746479 5.81830986,6.68028169 5.81830986,6.68028169 C5.81830986,6.68028169 6.68028169,7.3028169 6.82394366,7.42253521 C6.9915493,7.54225352 6.82394366,7.42253521 6.82394366,7.42253521 C6.82394366,7.42253521 5.93802817,7.85352113 5.98591549,8.16478873 C6.00985915,8.5 5.98591549,8.57183099 5.98591549,8.57183099 C5.98591549,8.57183099 4.86056338,7.92535211 4.23802817,7.44647887 C3.61549296,6.96760563 3.78309859,6.41690141 3.78309859,6.22535211 C3.78309859,6.03380282 4.07042254,4.4056338 4.16619718,4.30985915 C4.23802817,4.23802817 4.76478873,3.80704225 5.2915493,3.99859155 C5.55492958,4.07042254 5.91408451,4.42957746 5.98591549,4.66901408 Z" id="Shape" fill="#E01033"></path>
            <path d="M6.58450704,7.39859155 C6.8,7.35070423 7.03943662,7.35070423 7.23098592,7.42253521 C7.3028169,7.44647887 7.39859155,7.51830986 7.37464789,7.61408451 C7.35070423,7.70985915 7.20704225,7.68591549 7.20704225,7.73380282 C7.15915493,7.94929577 7.54225352,7.8056338 7.61408451,7.87746479 C7.73380282,7.94929577 7.70985915,8.16478873 7.63802817,8.28450704 C7.4943662,8.52394366 7.03943662,8.64366197 6.77605634,8.66760563 C6.44084507,8.6915493 5.81830986,8.71549296 5.81830986,8.23661972 C5.81830986,7.8056338 6.17746479,7.4943662 6.58450704,7.39859155 Z" id="Shape" fill="#172031"></path>
            <path d="M5.45915493,1.67605634 C5.45915493,1.67605634 4.81267606,1.81971831 4.88450704,2.22676056 C4.95633803,2.63380282 5.14788732,3.16056338 6.1056338,3.56760563 C6.48873239,3.73521127 7.11126761,3.68732394 7.11126761,3.68732394 C7.11126761,3.68732394 6.05774648,3.2084507 5.74647887,2.68169014 C5.6028169,2.41830986 5.48309859,2.2028169 5.48309859,2.2028169 L5.45915493,1.67605634 Z" id="Shape" fill="#172031"></path>
            <path d="M6.94366197,2.13098592 L5.50704225,1.53239437 C5.50704225,1.53239437 5.48309859,1.62816901 5.48309859,1.67605634 C5.48309859,1.72394366 5.48309859,1.91549296 5.48309859,1.91549296 L6.89577465,2.7056338 L6.94366197,2.13098592 Z" id="Shape" fill="#457EC1"></path>
            <path d="M8.42816901,13.2647887 C8.42816901,13.2647887 8.16478873,13.456338 7.97323944,13.7197183 C7.78169014,13.9830986 7.78169014,14.2225352 7.78169014,14.2225352 L7.47042254,14.1267606 C7.47042254,14.1267606 7.54225352,13.7197183 7.68591549,13.528169 C7.92535211,13.1929577 8.18873239,13.0732394 8.18873239,13.0732394 L8.42816901,13.2647887 Z" id="Shape" fill="#CCCCCC"></path>
            <path d="M8.04507042,12.9535211 C8.04507042,12.9535211 7.78169014,13.1450704 7.59014085,13.4084507 C7.39859155,13.671831 7.3028169,14.0788732 7.3028169,14.0788732 L6.9915493,13.9830986 C6.9915493,13.9830986 7.18309859,13.4084507 7.32676056,13.2169014 C7.56619718,12.8816901 7.8056338,12.7859155 7.8056338,12.7859155 L8.04507042,12.9535211 Z" id="Shape" fill="#CCCCCC"></path>
            <path d="M10.4394366,12.6901408 C10.4394366,12.6901408 10.1760563,12.8816901 9.98450704,13.1450704 C9.79295775,13.4084507 9.79295775,13.6478873 9.79295775,13.6478873 L9.48169014,13.5521127 C9.48169014,13.5521127 9.55352113,13.1450704 9.6971831,12.9535211 C9.93661972,12.6183099 10.2,12.4985915 10.2,12.4985915 L10.4394366,12.6901408 Z" id="Shape" fill="#BCBBBC"></path>
            <path d="M10.056338,12.3788732 C10.056338,12.3788732 9.79295775,12.5704225 9.60140845,12.8338028 C9.40985915,13.0971831 9.31408451,13.5042254 9.31408451,13.5042254 L9.0028169,13.4084507 C9.0028169,13.4084507 9.1943662,12.8338028 9.33802817,12.6422535 C9.57746479,12.3070423 9.81690141,12.2112676 9.81690141,12.2112676 L10.056338,12.3788732 Z" id="Shape" fill="#BCBBBC"></path>
            <path d="M11.4211268,4.9084507 C11.3492958,5.00422535 11.3971831,5.12394366 11.4929577,5.19577465 C11.5887324,5.26760563 11.7084507,5.21971831 11.7802817,5.12394366 L12.1633803,4.52535211 C12.2352113,4.42957746 12.1873239,4.30985915 12.0915493,4.23802817 C11.9957746,4.16619718 11.8760563,4.21408451 11.8042254,4.30985915 L11.4211268,4.9084507 Z" id="Shape" fill="#562A0C"></path>
            <path d="M7.66197183,7.47042254 C7.54225352,7.4943662 7.4943662,7.61408451 7.51830986,7.73380282 C7.54225352,7.85352113 7.66197183,7.90140845 7.78169014,7.87746479 L8.47605634,7.66197183 C8.59577465,7.63802817 8.64366197,7.51830986 8.61971831,7.39859155 C8.59577465,7.27887324 8.47605634,7.23098592 8.35633803,7.25492958 L7.66197183,7.47042254 Z" id="Shape" fill="#562A0C"></path>
            <path d="M8.64366197,1.98732394 C8.64366197,1.98732394 8.57183099,2.56197183 8.57183099,2.63380282 C8.54788732,2.7056338 8.42816901,2.80140845 8.3084507,2.80140845 C8.16478873,2.80140845 8.11690141,2.68169014 8.11690141,2.68169014 L8.11690141,2.10704225 C8.09295775,2.08309859 8.52394366,1.93943662 8.64366197,1.98732394 Z" id="Shape" fill="#46017C"></path>
            <path d="M7.87746479,2.10704225 C7.87746479,2.10704225 7.87746479,2.68169014 7.82957746,2.77746479 C7.78169014,2.87323944 7.68591549,3.04084507 7.4943662,3.01690141 C7.3028169,2.99295775 7.06338028,2.84929577 7.06338028,2.84929577 C7.06338028,2.84929577 7.08732394,2.29859155 7.11126761,2.22676056 C7.13521127,2.17887324 7.87746479,2.10704225 7.87746479,2.10704225 Z" id="Shape" fill="#46017C"></path>
            <path d="M8.42816901,1.98732394 C8.47605634,2.10704225 8.52394366,2.22676056 8.59577465,2.32253521 C8.57183099,2.46619718 8.57183099,2.58591549 8.54788732,2.60985915 C8.54788732,2.65774648 8.47605634,2.7056338 8.40422535,2.75352113 C8.35633803,2.77746479 8.06901408,2.17887324 8.06901408,2.17887324 L8.06901408,2.08309859 C8.09295775,2.08309859 8.28450704,2.03521127 8.42816901,1.98732394 Z" id="Shape" fill="#7D41B7"></path>
            <path d="M7.63802817,2.13098592 C7.68591549,2.29859155 7.75774648,2.44225352 7.87746479,2.56197183 C7.87746479,2.65774648 7.85352113,2.75352113 7.85352113,2.77746479 C7.82957746,2.84929577 7.75774648,2.96901408 7.61408451,2.99295775 C7.59014085,2.99295775 7.54225352,2.99295775 7.4943662,2.99295775 C7.4943662,2.99295775 7.08732394,2.22676056 7.11126761,2.22676056 C7.11126761,2.2028169 7.42253521,2.15492958 7.63802817,2.13098592 Z" id="Shape" fill="#7D41B7"></path>
        </g>
    </g>
</svg>