<svg xmlns="http://www.w3.org/2000/svg" width="45.788" height="45.787" viewBox="0 0 45.788 45.787">
  <g id="Icon1" transform="translate(0)">
    <path id="Path_5163" data-name="Path 5163" d="M36.387,13.908H3.954a.954.954,0,1,1,0-1.908H36.387a.954.954,0,1,1,0,1.908Z" transform="translate(2.723 10.894)" fill="#fff"/>
    <path id="Path_5164" data-name="Path 5164" d="M34.479,30.355H5.862A2.865,2.865,0,0,1,3,27.493V17.954a.954.954,0,0,1,1.908,0v9.539a.955.955,0,0,0,.954.954H34.479a.955.955,0,0,0,.954-.954V17.954a.954.954,0,0,1,1.908,0v9.539A2.865,2.865,0,0,1,34.479,30.355Z" transform="translate(2.723 15.433)" fill="#fff"/>
    <path id="Path_5165" data-name="Path 5165" d="M12.454,34.894a.954.954,0,0,1-.954-.954V12.954a.954.954,0,1,1,1.908,0V33.94A.954.954,0,0,1,12.454,34.894Z" transform="translate(10.44 10.894)" fill="#fff"/>
    <path id="Path_5166" data-name="Path 5166" d="M34.394,23.447H19.257A2.875,2.875,0,0,1,16.8,22.058l-5.168-8.616A.953.953,0,0,1,12.454,12H28.67a.954.954,0,0,1,.818.464L35.212,22a.955.955,0,0,1-.818,1.444ZM14.139,13.908l4.3,7.17a.963.963,0,0,0,.818.462h13.45l-4.579-7.631Z" transform="translate(10.439 10.894)" fill="#fff"/>
    <path id="Path_5167" data-name="Path 5167" d="M16.09,23.447H.954A.955.955,0,0,1,.135,22l5.723-9.539A.954.954,0,0,1,6.677,12H22.894a.955.955,0,0,1,.818,1.444l-5.168,8.612a2.872,2.872,0,0,1-2.453,1.391ZM2.638,21.539h13.45a.964.964,0,0,0,.82-.464l4.3-7.168H7.217Z" transform="translate(0 10.894)" fill="#fff"/>
    <path id="Path_5168" data-name="Path 5168" d="M17.447,19.147a.958.958,0,0,1-.7-.311L6.25,7.347A.955.955,0,0,1,6.2,6.124L10.59.374A.949.949,0,0,1,11.347,0h12.2A.949.949,0,0,1,24.3.374L28.7,6.124a.955.955,0,0,1-.053,1.223L18.151,18.836a.951.951,0,0,1-.7.311ZM8.2,6.649l9.251,10.13L26.7,6.649,23.075,1.908H11.819Z" transform="translate(5.447 0)" fill="#fff"/>
    <path id="Path_5169" data-name="Path 5169" d="M27.94,4.922H6.954a.954.954,0,1,1,0-1.908H27.94a.954.954,0,0,1,0,1.908Z" transform="translate(5.447 2.736)" fill="#fff"/>
    <path id="Path_5170" data-name="Path 5170" d="M12.454,19.147a.954.954,0,0,1-.954-.954V.954a.954.954,0,1,1,1.908,0V18.193A.954.954,0,0,1,12.454,19.147Z" transform="translate(10.44)" fill="#fff"/>
  </g>
</svg>
