<svg xmlns="http://www.w3.org/2000/svg" width="26" height="26" viewBox="0 0 26 26">
  <path id="football-ball_1_" data-name="football-ball (1)" d="M22.192,3.808A13,13,0,0,0,3.808,22.192,13,13,0,0,0,22.192,3.808Zm.006,12.2,2.189-1.583a11.357,11.357,0,0,1-1.359,4.157Zm-1.027-1.139-3.635-1.2L16.275,9.791,18.534,6.7,22.6,6.71a11.376,11.376,0,0,1,1.862,5.782ZM13,16.191l-3.035-2.2,1.159-3.568h3.751l1.159,3.568Zm-4.536-2.52L4.824,14.85,1.538,12.46A11.376,11.376,0,0,1,3.416,6.683l4.067,0,2.243,3.1ZM2.955,18.558A11.358,11.358,0,0,1,1.609,14.4l2.184,1.589ZM21.4,5.184l-2.7,0L17.87,2.6a11.482,11.482,0,0,1,3.244,2.283c.1.1.193.2.286.3ZM16.051,1.933,17.3,5.8l-2.26,3.089H10.96l-2.243-3.1L9.98,1.925a11.606,11.606,0,0,1,6.07.008ZM8.159,2.59,7.32,5.163l-2.7,0c.087-.092.174-.184.264-.274a11.479,11.479,0,0,1,3.274-2.3ZM4.036,20.165,5.294,16.3l3.64-1.179,3.3,2.4v3.827L8.945,23.741a11.442,11.442,0,0,1-4.059-2.626A11.672,11.672,0,0,1,4.036,20.165Zm6.778,4.1L13,22.679l2.186,1.588a11.628,11.628,0,0,1-4.372,0Zm6.241-.527-3.293-2.392V17.522l3.3-2.4,3.634,1.2,1.247,3.869a11.677,11.677,0,0,1-.83.924,11.442,11.442,0,0,1-4.059,2.626Z" fill="#fec900"/>
</svg>
