<svg xmlns="http://www.w3.org/2000/svg" width="38.458" height="40.028" viewBox="0 0 38.458 40.028">
  <g id="Icon4" transform="translate(-10)">
    <path id="Path_5190" data-name="Path 5190" d="M130,420h4.709v2.355H130Z" transform="translate(-110.582 -387.036)" fill="#fff"/>
    <path id="Path_5191" data-name="Path 5191" d="M89.672,184.386l-1.665-1.665-8.325,8.325-3.33-3.33-1.665,1.665,4.995,4.995Z" transform="translate(-59.611 -168.38)" fill="#fff"/>
    <path id="Path_5192" data-name="Path 5192" d="M48.458,9.418H33.546V4.176A4.181,4.181,0,0,0,29.37,0H14.176A4.181,4.181,0,0,0,10,4.176V35.852a4.181,4.181,0,0,0,4.176,4.176H29.37a4.181,4.181,0,0,0,4.176-4.176V30.61H48.458ZM26.051,2.355,24.638,4.709H18.908L17.495,2.355Zm-13.7,1.822a1.824,1.824,0,0,1,1.822-1.822h.573l2.826,4.709h8.4L28.8,2.355h.573a1.824,1.824,0,0,1,1.822,1.822V9.418H12.355ZM31.191,35.852a1.824,1.824,0,0,1-1.822,1.822H14.176a1.824,1.824,0,0,1-1.822-1.822V30.61H31.191Zm14.912-7.6H12.355V11.773H46.1Z" fill="#fff"/>
    <path id="Path_5193" data-name="Path 5193" d="M305,180h4.709v2.355H305Z" transform="translate(-271.846 -165.872)" fill="#fff"/>
    <path id="Path_5194" data-name="Path 5194" d="M305,240h7.064v2.355H305Z" transform="translate(-271.846 -221.163)" fill="#fff"/>
    <path id="Path_5195" data-name="Path 5195" d="M305,300h10.6v2.355H305Z" transform="translate(-271.846 -276.454)" fill="#fff"/>
  </g>
</svg>
