<svg xmlns="http://www.w3.org/2000/svg" width="36.277" height="44.224" viewBox="0 0 36.277 44.224">
  <g id="Icon3" transform="translate(-46)">
    <g id="Group_2086" data-name="Group 2086" transform="translate(66.73 39.042)">
      <g id="Group_2085" data-name="Group 2085">
        <path id="Path_5185" data-name="Path 5185" d="M286.864,452a.864.864,0,1,0,.864.864A.864.864,0,0,0,286.864,452Z" transform="translate(-286 -452)" fill="#fff"/>
      </g>
    </g>
    <g id="Group_2088" data-name="Group 2088" transform="translate(46)">
      <g id="Group_2087" data-name="Group 2087">
        <path id="Path_5186" data-name="Path 5186" d="M79.686,3.973H77.1V2.591A2.594,2.594,0,0,0,74.5,0H53.774a2.594,2.594,0,0,0-2.591,2.591V3.973H48.591A2.594,2.594,0,0,0,46,6.564c0,5.619,2.629,9.749,6.9,10.9A19.042,19.042,0,0,0,59.6,25.4a2.5,2.5,0,0,1,1.08,2.086V32.24a3.459,3.459,0,0,0-2.591,3.346h-.864a2.594,2.594,0,0,0-2.591,2.591V43.36a.864.864,0,0,0,.864.864H72.776a.864.864,0,0,0,.864-.864V38.178a2.594,2.594,0,0,0-2.591-2.591h-.864a3.461,3.461,0,0,0-2.591-3.346V27.485a2.5,2.5,0,0,1,1.08-2.09,19.041,19.041,0,0,0,6.709-7.933c4.265-1.15,6.894-5.279,6.894-10.9A2.594,2.594,0,0,0,79.686,3.973ZM47.728,6.564a.865.865,0,0,1,.864-.864h2.591V9.562a18.972,18.972,0,0,0,.887,5.754C49.321,13.954,47.728,10.809,47.728,6.564ZM71.049,37.314a.865.865,0,0,1,.864.864V42.5H56.365V38.178a.865.865,0,0,1,.864-.864ZM75.368,9.562a17.368,17.368,0,0,1-7.658,14.4,4.225,4.225,0,0,0-1.843,3.523V33a.864.864,0,0,0,.864.864,1.729,1.729,0,0,1,1.728,1.728H59.82a1.729,1.729,0,0,1,1.66-1.726l.068,0A.867.867,0,0,0,62.411,33V27.481a4.222,4.222,0,0,0-1.842-3.518,17.371,17.371,0,0,1-7.659-14.4V2.591a.865.865,0,0,1,.864-.864H74.5a.865.865,0,0,1,.864.864Zm.841,5.754A18.983,18.983,0,0,0,77.1,9.562V5.7h2.591a.865.865,0,0,1,.864.864C80.55,10.809,78.957,13.954,76.208,15.315Z" transform="translate(-46)" fill="#fff"/>
      </g>
    </g>
    <g id="Group_2090" data-name="Group 2090" transform="translate(57.198 5.217)">
      <g id="Group_2089" data-name="Group 2089">
        <path id="Path_5187" data-name="Path 5187" d="M189.425,65.389a.863.863,0,0,0-.7-.588L185,64.26l-1.667-3.379a.864.864,0,0,0-1.549,0l-1.667,3.379-3.728.541a.864.864,0,0,0-.479,1.473l2.7,2.629-.637,3.713a.864.864,0,0,0,1.253.911l3.334-1.753,3.335,1.753a.864.864,0,0,0,1.253-.911l-.637-3.713,2.7-2.629A.864.864,0,0,0,189.425,65.389Zm-4.447,2.595a.864.864,0,0,0-.248.765l.418,2.436-2.187-1.15a.864.864,0,0,0-.8,0l-2.187,1.15.418-2.436a.864.864,0,0,0-.249-.765l-1.769-1.724,2.445-.355a.864.864,0,0,0,.65-.473l1.094-2.216,1.094,2.216a.864.864,0,0,0,.65.473l2.445.355Z" transform="translate(-175.649 -60.4)" fill="#fff"/>
      </g>
    </g>
    <g id="Group_2092" data-name="Group 2092" transform="translate(59.82 39.042)">
      <g id="Group_2091" data-name="Group 2091">
        <path id="Path_5188" data-name="Path 5188" d="M210.319,452h-3.455a.864.864,0,1,0,0,1.727h3.455a.864.864,0,1,0,0-1.727Z" transform="translate(-206 -452)" fill="#fff"/>
      </g>
    </g>
    <g id="Group_2094" data-name="Group 2094" transform="translate(77.441 41.594)">
      <g id="Group_2093" data-name="Group 2093">
        <path id="Path_5189" data-name="Path 5189" d="M410.01,481.595h.482C410.246,481.546,410.081,481.541,410.01,481.595Z" transform="translate(-410.01 -481.557)" fill="#fff"/>
      </g>
    </g>
  </g>
</svg>
