<svg xmlns="http://www.w3.org/2000/svg" width="41.778" height="38.643" viewBox="0 0 41.778 38.643">
  <g id="Icon2" transform="translate(0 -19.211)">
    <path id="Path_5171" data-name="Path 5171" d="M32.147,50.408a.951.951,0,0,0-.95.95V74.609a.951.951,0,0,0,.95.95H66.934a.951.951,0,0,0,.95-.95V51.358a.951.951,0,0,0-.95-.95H32.147Zm.274,1.224h2.451v1.8H32.421Zm17.041,22.7H47.876V72.149a.612.612,0,1,0-1.224,0v2.187H38.029V72.149a.612.612,0,0,0-1.224,0v2.187H35.219v-2.17A2.184,2.184,0,0,1,36.472,70.2L39.546,69a3.682,3.682,0,0,0,5.586,0L48.209,70.2a2.181,2.181,0,0,1,1.252,1.971v2.17Zm-2.012-7.98a1.623,1.623,0,0,1-.272,2.127l-2.552-.988V67a3.594,3.594,0,0,0,1.3-2.765V62.466a.951.951,0,0,0-.95-.95,6.676,6.676,0,0,1-1.035-.044,1.12,1.12,0,0,1-.96-.842.662.662,0,0,0-1.287,0,1.12,1.12,0,0,1-.981.845,7.4,7.4,0,0,1-1.014.041.951.951,0,0,0-.95.95v1.8a3.54,3.54,0,0,0,1.3,2.742v.485l-2.552.989a1.623,1.623,0,0,1-.273-2.127c.59-.3,1.118-.734,1.118-1.392V61.439a4.044,4.044,0,0,1,3.941-4.062,3.991,3.991,0,0,1,4.047,3.993v3.595c0,.659.522,1.085,1.115,1.391Zm-5.252.226a2.318,2.318,0,0,1-2.222-2.316V62.74a2.85,2.85,0,0,0,2.365-.8,2.843,2.843,0,0,0,2.363.8v1.5A2.348,2.348,0,0,1,42.2,66.582Zm1.7,1.936a2.486,2.486,0,0,1-3.109,0,.887.887,0,0,0,.493-.86,3.724,3.724,0,0,0,2.125.008A.906.906,0,0,0,43.893,68.518ZM66.66,74.336H50.685v-2.17a3.4,3.4,0,0,0-2.016-3.1l-.012,0-.246-.1c.909-1.215.611-3.171-.4-3.693a1.552,1.552,0,0,1-.452-.317V61.37a5.214,5.214,0,0,0-5.286-5.217,5.272,5.272,0,0,0-5.149,5.286v3.508a1.547,1.547,0,0,1-.455.321c-1.016.524-1.308,2.484-.4,3.694l-.244.095-.011,0A3.4,3.4,0,0,0,34,72.166v2.17H32.421V54.658H66.66V74.336Zm0-20.9H36.1v-1.8H66.66v1.8Z" transform="translate(-28.651 -28.651)" fill="#fff"/>
    <path id="Path_5172" data-name="Path 5172" d="M286.632,135.473h.832a.612.612,0,1,0,0-1.224h-.832a.612.612,0,0,0,0,1.224Z" transform="translate(-262.681 -105.651)" fill="#fff"/>
    <path id="Path_5173" data-name="Path 5173" d="M286.632,166.695h.832a.612.612,0,1,0,0-1.224h-.832a.612.612,0,0,0,0,1.224Z" transform="translate(-262.681 -134.326)" fill="#fff"/>
    <path id="Path_5174" data-name="Path 5174" d="M286.632,197.917h.832a.612.612,0,1,0,0-1.224h-.832a.612.612,0,0,0,0,1.224Z" transform="translate(-262.681 -163)" fill="#fff"/>
    <path id="Path_5175" data-name="Path 5175" d="M286.632,229.14h.832a.612.612,0,1,0,0-1.224h-.832a.612.612,0,0,0,0,1.224Z" transform="translate(-262.681 -191.675)" fill="#fff"/>
    <path id="Path_5176" data-name="Path 5176" d="M286.632,259.977h.832a.612.612,0,1,0,0-1.224h-.832a.612.612,0,0,0,0,1.224Z" transform="translate(-262.681 -219.996)" fill="#fff"/>
    <path id="Path_5177" data-name="Path 5177" d="M286.632,291.2h.832a.612.612,0,1,0,0-1.224h-.832a.612.612,0,0,0,0,1.224Z" transform="translate(-262.681 -248.67)" fill="#fff"/>
    <path id="Path_5178" data-name="Path 5178" d="M325.3,135.473h7.686a.612.612,0,0,0,0-1.224H325.3a.612.612,0,1,0,0,1.224Z" transform="translate(-298.192 -105.651)" fill="#fff"/>
    <path id="Path_5179" data-name="Path 5179" d="M325.3,166.695h7.686a.612.612,0,0,0,0-1.224H325.3a.612.612,0,1,0,0,1.224Z" transform="translate(-298.192 -134.326)" fill="#fff"/>
    <path id="Path_5180" data-name="Path 5180" d="M325.3,197.917h7.686a.612.612,0,0,0,0-1.224H325.3a.612.612,0,1,0,0,1.224Z" transform="translate(-298.192 -163)" fill="#fff"/>
    <path id="Path_5181" data-name="Path 5181" d="M325.3,229.14h7.686a.612.612,0,0,0,0-1.224H325.3a.612.612,0,1,0,0,1.224Z" transform="translate(-298.192 -191.675)" fill="#fff"/>
    <path id="Path_5182" data-name="Path 5182" d="M325.3,259.977h7.686a.612.612,0,0,0,0-1.224H325.3a.612.612,0,1,0,0,1.224Z" transform="translate(-298.192 -219.996)" fill="#fff"/>
    <path id="Path_5183" data-name="Path 5183" d="M325.3,291.2h7.686a.612.612,0,0,0,0-1.224H325.3a.612.612,0,1,0,0,1.224Z" transform="translate(-298.192 -248.67)" fill="#fff"/>
    <path id="Path_5184" data-name="Path 5184" d="M41.166,34.5a.612.612,0,0,0,.612-.612V22.175a2.967,2.967,0,0,0-2.964-2.964H2.964A2.967,2.967,0,0,0,0,22.175V46.49a2.967,2.967,0,0,0,2.964,2.964H16.479v1.777a2.209,2.209,0,0,1-.937,1.833l-1.53,1.02H12.8a1.43,1.43,0,0,0-1.428,1.428v.914A1.43,1.43,0,0,0,12.8,57.854h6.664a.612.612,0,1,0,0-1.224H12.8a.2.2,0,0,1-.2-.2v-.914a.2.2,0,0,1,.2-.2H28.981a.2.2,0,0,1,.2.2v.914a.2.2,0,0,1-.2.2H22.317a.612.612,0,1,0,0,1.224h6.664a1.43,1.43,0,0,0,1.428-1.428v-.914a1.43,1.43,0,0,0-1.428-1.428H27.765l-1.53-1.02a2.209,2.209,0,0,1-.937-1.833V49.454H38.815a2.967,2.967,0,0,0,2.964-2.964V36.745a.612.612,0,0,0-1.224,0V46.49a1.742,1.742,0,0,1-1.74,1.74H2.963a1.742,1.742,0,0,1-1.74-1.74V22.175a1.742,1.742,0,0,1,1.74-1.74H38.815a1.742,1.742,0,0,1,1.74,1.74V33.889a.612.612,0,0,0,.612.612ZM17.7,51.231V49.454h6.372v1.777a3.4,3.4,0,0,0,1.481,2.852l0,0h-9.34l0,0A3.4,3.4,0,0,0,17.7,51.231Z" fill="#fff"/>
  </g>
</svg>
