<svg xmlns="http://www.w3.org/2000/svg" width="23.424" height="26.304" viewBox="0 0 23.424 26.304">
  <g id="poker" transform="translate(-0.347 0.155)">
    <path id="Path_70" data-name="Path 70" d="M201.531,165a.692.692,0,0,0-.506-.226h0a.692.692,0,0,0-.505.22c-1.363,1.467-3.41,3.67-3.545,3.812a2.771,2.771,0,0,0,2.7,4.651,2.976,2.976,0,0,1-.506.772.508.508,0,0,0,.354.872h2.909a.507.507,0,0,0,.354-.871,2.963,2.963,0,0,1-.507-.776,2.794,2.794,0,0,0,1.271.075,2.84,2.84,0,0,0,.39-.1A2.77,2.77,0,0,0,205,168.808C204.854,168.65,202.762,166.349,201.531,165Zm2.088,7.467a1.811,1.811,0,0,1-.248.062,1.775,1.775,0,0,1-.878-.071.963.963,0,0,0-1.2,1.295c.052.12.107.232.161.334h-.964c.053-.1.107-.209.158-.327a.963.963,0,0,0-1.192-1.3l-.007,0a1.78,1.78,0,0,1-.856.062,1.754,1.754,0,0,1-.914-2.993h0c.073-.074.472-.5,3.337-3.586,2.8,3.08,3.193,3.511,3.268,3.589h0a1.754,1.754,0,0,1-.667,2.932Zm0,0" transform="translate(-185.692 -156.403)" fill="#fec900" stroke="#fec92e" stroke-width="0.3"/>
    <path id="Path_72" data-name="Path 72" d="M23.168,2.6a1.537,1.537,0,0,0-1.094-.453h0l-5.463,0-.4-1.118a1.547,1.547,0,0,0-1.99-.936L8.6,2.151H8.561A1.542,1.542,0,0,0,7.5,2.578a.507.507,0,0,0-.148.03L1.52,4.73A1.547,1.547,0,0,0,.6,6.713L7.244,24.981a1.547,1.547,0,0,0,1.983.925l3.363-1.224h9.483a1.549,1.549,0,0,0,1.547-1.547V3.694A1.537,1.537,0,0,0,23.168,2.6Zm-8.6-1.552a.532.532,0,0,1,.684.322l.275.777h-3.96ZM8.88,24.952a.532.532,0,0,1-.679-.313,1.544,1.544,0,0,0,.361.043h1.06Zm13.725-1.817a.532.532,0,0,1-.532.532H8.561a.532.532,0,0,1-.532-.532v-7.61a.508.508,0,0,0-1.016,0v5.855L1.549,6.365a.533.533,0,0,1,.318-.682L7.014,3.811V17.018c0,.28.2-.76.482-.76s.534,1.04.534.76V3.7a.533.533,0,0,1,.532-.532l13.512,0h0a.532.532,0,0,1,.532.532Zm0,0" transform="translate(0 0)" fill="#fec900" stroke="#fec92e" stroke-width="0.3"/>
  </g>
</svg>
