<svg id="roulette" xmlns="http://www.w3.org/2000/svg" width="26" height="26" viewBox="0 0 26 26">
  <g id="Group_15" data-name="Group 15" transform="translate(0)">
    <g id="Group_14" data-name="Group 14">
      <path id="Path_66" data-name="Path 66" d="M146.84,141a5.84,5.84,0,1,0,5.84,5.84A5.846,5.846,0,0,0,146.84,141Zm0,10.664a4.824,4.824,0,1,1,4.824-4.824A4.83,4.83,0,0,1,146.84,151.664Z" transform="translate(-133.84 -133.84)" fill="#fec900"/>
      <path id="Path_67" data-name="Path 67" d="M206.435,201.149a.508.508,0,0,0-.718,0l-1.27,1.27a1.521,1.521,0,0,0-1.313,0l-1.27-1.27a.508.508,0,1,0-.718.718l1.27,1.27a1.522,1.522,0,0,0,0,1.313l-1.27,1.27a.508.508,0,1,0,.718.718l1.27-1.27a1.522,1.522,0,0,0,1.313,0l1.27,1.27a.508.508,0,0,0,.718-.718l-1.27-1.27a1.521,1.521,0,0,0,0-1.313l1.27-1.27A.508.508,0,0,0,206.435,201.149Zm-2.644,3.152a.508.508,0,1,1,.508-.508A.508.508,0,0,1,203.791,204.3Z" transform="translate(-190.791 -190.793)" fill="#fec900"/>
      <path id="Path_68" data-name="Path 68" d="M59.638,44.2a10.918,10.918,0,1,0,3.2,7.72A10.847,10.847,0,0,0,59.638,44.2Zm2.169,7.2-2.035,0a7.887,7.887,0,0,0-.136-1.034l1.965-.528A9.925,9.925,0,0,1,61.807,51.4Zm-.47-2.54-1.965.528a7.824,7.824,0,0,0-.4-.962l1.761-1.018A9.84,9.84,0,0,1,61.337,48.861Zm-1.11-2.333-1.762,1.019a7.91,7.91,0,0,0-.635-.826l1.438-1.439A9.931,9.931,0,0,1,60.226,46.528Zm-1.682-1.961-1.438,1.439a7.922,7.922,0,0,0-.825-.635L57.3,43.61A9.97,9.97,0,0,1,58.544,44.567Zm-3.577-2.073a9.847,9.847,0,0,1,1.454.6L55.4,44.86a7.833,7.833,0,0,0-.963-.4Zm-2.812-.476a9.878,9.878,0,0,1,1.83.215L53.459,44.2A7.86,7.86,0,0,0,52,44.048a1.671,1.671,0,0,0,.159-2.029Zm-1.405.251a.66.66,0,1,1-.66.66A.661.661,0,0,1,50.75,42.27Zm-1.592.138a1.673,1.673,0,0,0,.671,1.921,7.809,7.809,0,0,0-1.408.539L47.4,43.108A9.833,9.833,0,0,1,49.158,42.408Zm-2.637,1.207,1.02,1.761a7.921,7.921,0,0,0-.826.636l-1.441-1.437A9.955,9.955,0,0,1,46.521,43.614ZM44.561,45.3,46,46.734a7.927,7.927,0,0,0-.634.826L43.6,46.545A9.967,9.967,0,0,1,44.561,45.3Zm-1.468,2.125,1.764,1.016a7.835,7.835,0,0,0-.4.964l-1.966-.525A9.851,9.851,0,0,1,43.093,47.422Zm-.86,2.437,1.966.525a7.848,7.848,0,0,0-.135,1.034l-2.033,0A9.869,9.869,0,0,1,42.233,49.859Zm-.2,2.576,2.035,0a7.9,7.9,0,0,0,.136,1.034l-1.965.528A9.931,9.931,0,0,1,42.029,52.434Zm.47,2.54,1.965-.528a7.822,7.822,0,0,0,.4.962L43.1,56.427A9.848,9.848,0,0,1,42.5,54.975Zm1.11,2.333,1.762-1.019a7.9,7.9,0,0,0,.635.826l-1.438,1.439A9.928,9.928,0,0,1,43.61,57.308Zm1.682,1.961,1.437-1.438a7.923,7.923,0,0,0,.826.634l-1.017,1.762A9.97,9.97,0,0,1,45.291,59.269Zm3.577,2.073a9.847,9.847,0,0,1-1.454-.6l1.017-1.763a7.83,7.83,0,0,0,.963.4Zm2.541.466a9.868,9.868,0,0,1-1.56-.205l.526-1.966a7.849,7.849,0,0,0,1.033.136Zm-6.348-9.889a6.855,6.855,0,1,1,6.855,6.855A6.863,6.863,0,0,1,45.063,51.918Zm7.363,9.889V59.773a7.9,7.9,0,0,0,1.047-.138L54,61.6A9.938,9.938,0,0,1,52.426,61.807Zm2.557-.474-.53-1.964a7.824,7.824,0,0,0,.962-.4l1.019,1.76A9.844,9.844,0,0,1,54.983,61.334Zm2.332-1.112-1.02-1.761a7.908,7.908,0,0,0,.826-.636l1.441,1.437A9.949,9.949,0,0,1,57.315,60.222Zm1.96-1.683L57.834,57.1a7.921,7.921,0,0,0,.634-.826L60.23,57.29A9.972,9.972,0,0,1,59.274,58.538Zm1.469-2.124L58.979,55.4a7.826,7.826,0,0,0,.4-.964l1.966.525A9.854,9.854,0,0,1,60.743,56.414Zm-1.106-2.961a7.844,7.844,0,0,0,.135-1.034l2.035,0a9.87,9.87,0,0,1-.2,1.56Z" transform="translate(-38.918 -38.918)" fill="#fec900"/>
      <path id="Path_69" data-name="Path 69" d="M22.192,3.808A13,13,0,0,0,3.808,22.192,13,13,0,0,0,22.192,3.808ZM13,24.984A11.984,11.984,0,1,1,24.984,13,12,12,0,0,1,13,24.984Z" transform="translate(0)" fill="#fec900"/>
    </g>
  </g>
</svg>
