<svg id="slot-machine_1_" data-name="slot-machine (1)" xmlns="http://www.w3.org/2000/svg" width="26" height="26" viewBox="0 0 26 26">
  <path id="Path_60" data-name="Path 60" d="M23.625,6.125A6.936,6.936,0,0,0,16.7,0H9.3A6.936,6.936,0,0,0,2.376,6.125,2.8,2.8,0,0,0,0,8.887v14.32A2.8,2.8,0,0,0,2.793,26H23.207A2.8,2.8,0,0,0,26,23.207V8.887A2.8,2.8,0,0,0,23.625,6.125Zm.852,17.082a1.271,1.271,0,0,1-1.27,1.27H2.793a1.271,1.271,0,0,1-1.27-1.27V8.887a1.271,1.271,0,0,1,1.27-1.27H23.207a1.271,1.271,0,0,1,1.27,1.27ZM9.3,1.523h7.4a5.416,5.416,0,0,1,5.387,4.57H3.915A5.416,5.416,0,0,1,9.3,1.523Z" fill="#fec900"/>
  <path id="Path_61" data-name="Path 61" d="M80.043,181.05H61.762a.762.762,0,0,0-.762.762v9.141a.762.762,0,0,0,.762.762H80.043a.762.762,0,0,0,.762-.762v-9.141A.762.762,0,0,0,80.043,181.05Zm-11.426,1.523h4.57v7.617h-4.57Zm-6.094,0h4.57v7.617h-4.57Zm16.758,7.617h-4.57v-7.617h4.57Z" transform="translate(-57.902 -171.856)" fill="#fec900"/>
  <path id="Path_62" data-name="Path 62" d="M115.375,258.25a.2.2,0,0,0-.185-.118h-1.749a.2.2,0,0,0-.2.2v.441a.2.2,0,0,0,.2.2h.948l-.917,1.713a.2.2,0,0,0,.179.3h.6a.2.2,0,0,0,.18-.11l1.091-2.112a.2.2,0,0,0,0-.178Z" transform="translate(-107.488 -245.024)" fill="#fec900"/>
  <path id="Path_63" data-name="Path 63" d="M235.375,258.25a.2.2,0,0,0-.185-.118h-1.749a.2.2,0,0,0-.2.2v.441a.2.2,0,0,0,.2.2h.948l-.917,1.713a.2.2,0,0,0,.179.3h.6a.2.2,0,0,0,.18-.11l1.091-2.112a.2.2,0,0,0,0-.178Z" transform="translate(-221.394 -245.024)" fill="#fec900"/>
  <path id="Path_64" data-name="Path 64" d="M353.442,258.978h.948l-.917,1.713a.2.2,0,0,0,.179.3h.6a.2.2,0,0,0,.18-.11l1.091-2.112a.2.2,0,0,0,0-.178l-.156-.341a.2.2,0,0,0-.185-.118h-1.749a.2.2,0,0,0-.2.2v.441A.2.2,0,0,0,353.442,258.978Z" transform="translate(-335.301 -245.023)" fill="#fec900"/>
  <path id="Path_65" data-name="Path 65" d="M80.043,423H61.762a.762.762,0,0,0,0,1.523H80.043a.762.762,0,0,0,0-1.523Z" transform="translate(-57.902 -401.52)" fill="#fec900"/>
  <circle id="Ellipse_10" data-name="Ellipse 10" cx="0.65" cy="0.65" r="0.65" transform="translate(11.045 2.6)" fill="#fec900"/>
  <circle id="Ellipse_11" data-name="Ellipse 11" cx="0.65" cy="0.65" r="0.65" transform="translate(8.445 2.6)" fill="#fec900"/>
  <ellipse id="Ellipse_12" data-name="Ellipse 12" cx="1.3" cy="0.65" rx="1.3" ry="0.65" transform="translate(13.645 2.6)" fill="#fec900"/>
  <circle id="Ellipse_13" data-name="Ellipse 13" cx="0.65" cy="0.65" r="0.65" transform="translate(17.545 2.6)" fill="#fec900"/>
</svg>
