<svg xmlns="http://www.w3.org/2000/svg" width="21.977" height="26" viewBox="0 0 21.977 26">
  <path id="stopwatch" d="M19.442,7.992l1.019-1.019a1.014,1.014,0,1,0-1.434-1.434L18.008,6.558A10.884,10.884,0,0,0,12,4.07V2.029h.981a1.014,1.014,0,0,0,0-2.029H8.993a1.014,1.014,0,0,0,0,2.029h.981V4.07a10.988,10.988,0,1,0,9.469,3.922ZM10.988,23.971a8.96,8.96,0,1,1,8.96-8.96A8.97,8.97,0,0,1,10.988,23.971Zm4.7-13.66a1.014,1.014,0,0,1,0,1.434l-3.983,3.983a1.014,1.014,0,0,1-1.434-1.434l3.983-3.983A1.014,1.014,0,0,1,15.689,10.311Zm0,0" fill="#fec900"/>
</svg>
